<mxfile host="app.diagrams.net" agent="Mozilla/5.0 (Windows NT 10.0; Win64; x64) AppleWebKit/537.36 (KHTML, like Gecko) Chrome/131.0.0.0 Safari/537.36" version="24.9.1">
  <diagram name="Page-1" id="ZtU11tm6bYSsX8waaPjH">
    <mxGraphModel dx="4155" dy="3171" grid="1" gridSize="10" guides="1" tooltips="1" connect="1" arrows="1" fold="1" page="1" pageScale="1" pageWidth="827" pageHeight="1169" math="0" shadow="0">
      <root>
        <mxCell id="0" />
        <mxCell id="1" parent="0" />
        <mxCell id="mDsZhQNBarCHwUdvmZXA-4" value="S" style="rounded=1;whiteSpace=wrap;html=1;fillColor=#f5f5f5;strokeWidth=3;fontColor=#333333;strokeColor=#666666;" parent="1" vertex="1">
          <mxGeometry x="-2110" y="-290" width="2010" height="990" as="geometry" />
        </mxCell>
        <mxCell id="mDsZhQNBarCHwUdvmZXA-1" value="S" style="rounded=1;whiteSpace=wrap;html=1;fillColor=#f5f5f5;strokeWidth=3;fontColor=#333333;strokeColor=#666666;" parent="1" vertex="1">
          <mxGeometry x="560" y="-1360" width="1750" height="680" as="geometry" />
        </mxCell>
        <mxCell id="bLrstx7oAV7xhixI29AM-101" value="Subnet" style="sketch=0;outlineConnect=0;html=1;whiteSpace=wrap;fontSize=12;fontStyle=0;shape=mxgraph.aws4.group;grIcon=mxgraph.aws4.group_subnet;strokeColor=#666666;fillColor=#f5f5f5;verticalAlign=top;align=left;spacingLeft=30;fontColor=#333333;dashed=0;" parent="1" vertex="1">
          <mxGeometry x="-904.75" y="-70" width="490" height="282" as="geometry" />
        </mxCell>
        <mxCell id="bLrstx7oAV7xhixI29AM-92" value="Subnet" style="sketch=0;outlineConnect=0;html=1;whiteSpace=wrap;fontSize=12;fontStyle=0;shape=mxgraph.aws4.group;grIcon=mxgraph.aws4.group_subnet;strokeColor=#666666;fillColor=#f5f5f5;verticalAlign=top;align=left;spacingLeft=30;fontColor=#333333;dashed=0;" parent="1" vertex="1">
          <mxGeometry x="-904.75" y="250" width="490" height="282" as="geometry" />
        </mxCell>
        <mxCell id="bLrstx7oAV7xhixI29AM-1" value="" style="strokeColor=#0070F2;shadow=0;strokeWidth=2;rounded=1;absoluteArcSize=1;arcSize=20;" parent="1" vertex="1">
          <mxGeometry x="620" y="250" width="230" height="210" as="geometry" />
        </mxCell>
        <mxCell id="bLrstx7oAV7xhixI29AM-2" value="SAP On-Premise&lt;br style=&quot;font-size: 16px;&quot;&gt;Solutions QUA&lt;br style=&quot;font-size: 16px;&quot;&gt;&lt;font style=&quot;font-size: 10px;&quot;&gt;SAP S/4HANA&lt;br style=&quot;&quot;&gt;SAP ECC&lt;/font&gt;&lt;div&gt;&lt;font style=&quot;font-size: 10px;&quot;&gt;SAP BW on HANA&lt;/font&gt;&lt;/div&gt;" style="shape=image;editableCssRules=.*;part=1;verticalLabelPosition=bottom;labelBackgroundColor=none;verticalAlign=top;aspect=fixed;imageAspect=0;image=data:image/svg+xml,PHN2ZyB4bWxucz0iaHR0cDovL3d3dy53My5vcmcvMjAwMC9zdmciIHZpZXdCb3g9Ii0wLjUgLTAuNSAyNi4wODQgMjgiIGhlaWdodD0iMjgiIHdpZHRoPSIyNi4wODQiPiYjeGE7CSAgPHN0eWxlIHR5cGU9InRleHQvY3NzIj4uc3QwIHsgc3RvcC1jb2xvcjogcmdiKDM1LCAxNDksIDI1NSk7IH0gLnN0MSB7IHN0b3AtY29sb3I6IHJnYigwLCA4NywgMjEwKTsgfSA8L3N0eWxlPiYjeGE7CTxkZWZzPiYjeGE7CQk8bGluZWFyR3JhZGllbnQgZ3JhZGllbnRVbml0cz0idXNlclNwYWNlT25Vc2UiIHkyPSIyMy43OTIiIHgyPSIyMy4yNTYiIHkxPSIzLjQ3NCIgeDE9IjEuODY1IiBpZD0iQSI+JiN4YTsJCQk8c3RvcCBjbGFzcz0ic3QwIi8+JiN4YTsJCQk8c3RvcCBjbGFzcz0ic3QxIiBvZmZzZXQ9IjEiLz4mI3hhOwkJPC9saW5lYXJHcmFkaWVudD4mI3hhOwk8L2RlZnM+JiN4YTsJPHBhdGggZmlsbD0idXJsKCNBKSIgZD0iTTI0LjEwNCA4LjEwMmE0Ljk3IDQuOTcgMCAwIDEgMS4wNDIgMS41MzRjLjI5MS41NDkuNDM4IDEuMTUyLjQzOCAxLjgxdjExLjcyNWMwIDEuMjQxLS40MjEgMi4yNjUtMS4yNjIgMy4wNjgtLjgzOC44NDItMS44OCAxLjI2MS0zLjEyMSAxLjI2MUgzLjgyN2E0LjE4IDQuMTggMCAwIDEtMy4wNjgtMS4yNjFDLS4wODEgMjUuNDM2LS41IDI0LjQxMi0uNSAyMy4xNzFWMTEuNDQ0YzAtMS4zODcuNDkxLTIuNTAyIDEuNDc4LTMuMzQyTDkuNjM4LjU5NkE0LjUgNC41IDAgMCAxIDEyLjU5NC0uNSA0LjA5IDQuMDkgMCAwIDEgMTUuNDQ0LjU5NnptLTkuMzcgNy44MzZIMTAuMzV2OC43MTNoNC4zODR6bTcuNzgyLTQuNDk0YzAtLjQ3My0uMTQ3LS44NTktLjQzOC0xLjE1bC04LjY1OC03LjUwNmMtLjYyMS0uNDczLTEuMjYxLS40NzMtMS45MTggMGwtOC42NTUgNy41MDZjLS4yOTMuMjkzLS40MzguNjc3LS40MzggMS4xNTJ2MTEuNzI1YzAgLjQzOC4xMjguODAzLjM4NCAxLjA5NmExLjUzIDEuNTMgMCAwIDAgMS4wNC4zODRoMy42MTd2LTguNzEzYzAtLjgwMy4yNzQtMS40OC44MjEtMi4wMjcuNTg2LS41ODYgMS4yOC0uODc3IDIuMDgzLS44NzdoNC4zODRhMi42NiAyLjY2IDAgMCAxIDIuMDI3Ljg3N2MuNTQ5LjU0Ny44MjIgMS4yMjQuODIyIDIuMDI3djguNzEzaDMuNjE3Yy40MzggMCAuNzg0LS4xMjggMS4wNC0uMzg0LjE0NC0uMTQzLjI1Ny0uMzE0LjMzMy0uNTAzcy4xMTEtLjM5LjEwNi0uNTkzeiIvPiYjeGE7PC9zdmc+;labelPosition=center;align=left;fontStyle=1;spacingLeft=0;fontSize=16;fontColor=#1D2D3E;html=1;" parent="bLrstx7oAV7xhixI29AM-1" vertex="1">
          <mxGeometry y="0.5" width="28" height="30" relative="1" as="geometry">
            <mxPoint x="15" y="-90" as="offset" />
          </mxGeometry>
        </mxCell>
        <mxCell id="bLrstx7oAV7xhixI29AM-6" value="" style="strokeColor=#9673a6;shadow=0;strokeWidth=2;rounded=1;absoluteArcSize=1;arcSize=20;whiteSpace=wrap;verticalAlign=bottom;spacing=10;fontSize=10;align=left;fillColor=#e1d5e7;" parent="1" vertex="1">
          <mxGeometry x="920" y="-1110" width="240" height="154" as="geometry" />
        </mxCell>
        <mxCell id="bLrstx7oAV7xhixI29AM-7" value="SAP DataSphere DEV Tenant" style="shape=image;editableCssRules=.*;part=0;verticalLabelPosition=bottom;labelBackgroundColor=default;verticalAlign=top;imageAspect=0;image=data:image/svg+xml,PHN2ZyB4bWxucz0iaHR0cDovL3d3dy53My5vcmcvMjAwMC9zdmciIHZpZXdCb3g9Ii0wLjUgLTAuNSAyOCAxOC40MTIiIGhlaWdodD0iMTguNDEyIiB3aWR0aD0iMjgiPiYjeGE7CSAgPHN0eWxlIHR5cGU9InRleHQvY3NzIj4uc3QwIHsgc3RvcC1jb2xvcjogcmdiKDM1LCAxNDksIDI1NSk7IH0gLnN0MSB7IHN0b3AtY29sb3I6IHJnYigwLCA4NywgMjEwKTsgfSA8L3N0eWxlPiYjeGE7CTxkZWZzPiYjeGE7CQk8bGluZWFyR3JhZGllbnQgZ3JhZGllbnRVbml0cz0idXNlclNwYWNlT25Vc2UiIHkyPSIyMi4wMDgiIHgyPSIxNC44NjkiIHkxPSIyLjExMyIgeDE9IjIuMDM5IiBpZD0iQSI+JiN4YTsJCQk8c3RvcCBjbGFzcz0ic3QwIi8+JiN4YTsJCQk8c3RvcCBjbGFzcz0ic3QxIiBvZmZzZXQ9IjEiLz4mI3hhOwkJPC9saW5lYXJHcmFkaWVudD4mI3hhOwk8L2RlZnM+JiN4YTsJPHBhdGggZmlsbD0idXJsKCNBKSIgZD0iTTUuOTAzIDYuMDQ3QzYuNDM0IDIuMzQ1IDkuNjE5LS41IDEzLjQ2Ny0uNWMyLjgwMSAwIDUuMjQ3IDEuNTA2IDYuNTc3IDMuNzQ5aC4xMjRjNC4wNDkgMCA3LjMzMSAzLjI4MiA3LjMzMSA3LjMzMXMtMy4yODIgNy4zMzEtNy4zMzEgNy4zMzFoLTQuMDU0Yy0uMDg3IDAtLjE3My0uMDAyLS4yNTktLjAwNS0uMDc4LjAwMy0uMTU1LjAwNS0uMjMzLjAwNUg1LjQzMmMtMy4yNzYgMC01LjkzMi0yLjY1Ni01LjkzMi01LjkzMnMyLjY1Ni01LjkzMiA1LjkzMi01LjkzMnpNMTMuNDY3IDIuM2MtMi42NzQgMC00Ljg0MiAyLjE2OC00Ljg0MiA0Ljg0MmE0Ljk0IDQuOTQgMCAwIDAgLjAwNi4yMzggMS40IDEuNCAwIDAgMS0xLjM5OCAxLjQ2N2gtMS44Yy0xLjczIDAtMy4xMzIgMS40MDItMy4xMzIgMy4xMzJzMS40MDIgMy4xMzIgMy4xMzIgMy4xMzJoMTAuMTlhMy4xNCAzLjE0IDAgMCAwIC4xNi0uMDA0IDEuMzkgMS4zOSAwIDAgMSAuMTMxIDBjLjA2Ny4wMDMuMTM0LjAwNC4yMDIuMDA0aDQuMDU0YTQuNTMgNC41MyAwIDEgMCAwLTkuMDYyaC0uOTc3YTEuNCAxLjQgMCAwIDEtMS4yODMtLjg0QzE3LjE2MSAzLjQ5NCAxNS40NTIgMi4zIDEzLjQ2NyAyLjN6IiBmaWxsLXJ1bGU9ImV2ZW5vZGQiLz4mI3hhOzwvc3ZnPg==;labelPosition=center;align=left;fontSize=16;fontStyle=1;spacingLeft=0;" parent="bLrstx7oAV7xhixI29AM-6" vertex="1">
          <mxGeometry y="0.5" width="34" height="22" relative="1" as="geometry">
            <mxPoint x="15" y="-66" as="offset" />
          </mxGeometry>
        </mxCell>
        <mxCell id="bLrstx7oAV7xhixI29AM-95" value="IP Whitelisting" style="rounded=0;whiteSpace=wrap;html=1;" parent="bLrstx7oAV7xhixI29AM-6" vertex="1">
          <mxGeometry x="51.02999999999997" y="-10" width="137.95" height="20" as="geometry" />
        </mxCell>
        <mxCell id="bLrstx7oAV7xhixI29AM-105" value="Webasto-2.eu10" style="rounded=0;whiteSpace=wrap;html=1;" parent="bLrstx7oAV7xhixI29AM-6" vertex="1">
          <mxGeometry x="51.01999999999995" y="100" width="137.95" height="20" as="geometry" />
        </mxCell>
        <mxCell id="bLrstx7oAV7xhixI29AM-113" value="" style="shape=mxgraph.sap.icon;labelPosition=center;verticalLabelPosition=bottom;align=center;verticalAlign=top;strokeWidth=1;strokeColor=#D5DADD;fillColor=#EDEFF0;gradientColor=#FCFCFC;gradientDirection=west;aspect=fixed;SAPIcon=SAP_Datasphere" parent="bLrstx7oAV7xhixI29AM-6" vertex="1">
          <mxGeometry y="-10" width="50" height="50" as="geometry" />
        </mxCell>
        <mxCell id="bLrstx7oAV7xhixI29AM-15" value="HTTPS" style="rounded=1;whiteSpace=wrap;html=1;strokeColor=#475E75;strokeWidth=1.5;arcSize=16;fillColor=#FFFFFF;perimeterSpacing=0;absoluteArcSize=1;fontColor=#475E75;fontSize=10;fontStyle=1" parent="1" vertex="1">
          <mxGeometry x="1283" y="2460" width="51" height="16" as="geometry" />
        </mxCell>
        <mxCell id="bLrstx7oAV7xhixI29AM-21" value="SAML2/OIDC" style="rounded=1;whiteSpace=wrap;html=1;strokeColor=#188918;strokeWidth=1.5;arcSize=16;fillColor=#F5FAE5;perimeterSpacing=0;absoluteArcSize=1;fontColor=#188918;fontSize=10;fontStyle=1" parent="1" vertex="1">
          <mxGeometry x="1148" y="2460" width="70" height="16" as="geometry" />
        </mxCell>
        <mxCell id="bLrstx7oAV7xhixI29AM-22" value="" style="endArrow=none;html=1;strokeColor=#5B738B;bendable=1;rounded=0;endFill=0;endSize=4;strokeWidth=3;startSize=4;startArrow=none;startFill=0;jumpStyle=gap;" parent="1" source="bLrstx7oAV7xhixI29AM-63" edge="1">
          <mxGeometry width="50" height="50" relative="1" as="geometry">
            <mxPoint x="462.5" y="-316" as="sourcePoint" />
            <mxPoint x="2632.5" y="-316" as="targetPoint" />
            <Array as="points" />
          </mxGeometry>
        </mxCell>
        <mxCell id="bLrstx7oAV7xhixI29AM-25" value="" style="sketch=0;outlineConnect=0;fontColor=#232F3E;gradientColor=none;fillColor=#232F3D;strokeColor=none;dashed=0;verticalLabelPosition=bottom;verticalAlign=top;align=center;html=1;fontSize=12;fontStyle=0;aspect=fixed;pointerEvents=1;shape=mxgraph.aws4.client;" parent="1" vertex="1">
          <mxGeometry x="-244.75" y="80" width="30.79" height="30" as="geometry" />
        </mxCell>
        <mxCell id="bLrstx7oAV7xhixI29AM-26" value="CLIENT: LAPTOP INTRANET/ VPN" style="text;html=1;align=left;verticalAlign=middle;resizable=0;points=[];autosize=1;strokeColor=none;fillColor=none;fontSize=14;fontStyle=1;fontColor=#5B738B;" parent="1" vertex="1">
          <mxGeometry x="-369.75" y="160" width="240" height="30" as="geometry" />
        </mxCell>
        <mxCell id="bLrstx7oAV7xhixI29AM-31" value="" style="strokeColor=#6c8ebf;shadow=0;strokeWidth=2;rounded=1;absoluteArcSize=1;arcSize=20;whiteSpace=wrap;verticalAlign=bottom;spacing=10;fontSize=10;align=left;fillColor=#dae8fc;" parent="1" vertex="1">
          <mxGeometry x="1610" y="-1100" width="250" height="154" as="geometry" />
        </mxCell>
        <mxCell id="bLrstx7oAV7xhixI29AM-32" value="SAP DataSphere PRD Tenant" style="shape=image;editableCssRules=.*;part=0;verticalLabelPosition=bottom;labelBackgroundColor=default;verticalAlign=top;imageAspect=0;image=data:image/svg+xml,PHN2ZyB4bWxucz0iaHR0cDovL3d3dy53My5vcmcvMjAwMC9zdmciIHZpZXdCb3g9Ii0wLjUgLTAuNSAyOCAxOC40MTIiIGhlaWdodD0iMTguNDEyIiB3aWR0aD0iMjgiPiYjeGE7CSAgPHN0eWxlIHR5cGU9InRleHQvY3NzIj4uc3QwIHsgc3RvcC1jb2xvcjogcmdiKDM1LCAxNDksIDI1NSk7IH0gLnN0MSB7IHN0b3AtY29sb3I6IHJnYigwLCA4NywgMjEwKTsgfSA8L3N0eWxlPiYjeGE7CTxkZWZzPiYjeGE7CQk8bGluZWFyR3JhZGllbnQgZ3JhZGllbnRVbml0cz0idXNlclNwYWNlT25Vc2UiIHkyPSIyMi4wMDgiIHgyPSIxNC44NjkiIHkxPSIyLjExMyIgeDE9IjIuMDM5IiBpZD0iQSI+JiN4YTsJCQk8c3RvcCBjbGFzcz0ic3QwIi8+JiN4YTsJCQk8c3RvcCBjbGFzcz0ic3QxIiBvZmZzZXQ9IjEiLz4mI3hhOwkJPC9saW5lYXJHcmFkaWVudD4mI3hhOwk8L2RlZnM+JiN4YTsJPHBhdGggZmlsbD0idXJsKCNBKSIgZD0iTTUuOTAzIDYuMDQ3QzYuNDM0IDIuMzQ1IDkuNjE5LS41IDEzLjQ2Ny0uNWMyLjgwMSAwIDUuMjQ3IDEuNTA2IDYuNTc3IDMuNzQ5aC4xMjRjNC4wNDkgMCA3LjMzMSAzLjI4MiA3LjMzMSA3LjMzMXMtMy4yODIgNy4zMzEtNy4zMzEgNy4zMzFoLTQuMDU0Yy0uMDg3IDAtLjE3My0uMDAyLS4yNTktLjAwNS0uMDc4LjAwMy0uMTU1LjAwNS0uMjMzLjAwNUg1LjQzMmMtMy4yNzYgMC01LjkzMi0yLjY1Ni01LjkzMi01LjkzMnMyLjY1Ni01LjkzMiA1LjkzMi01LjkzMnpNMTMuNDY3IDIuM2MtMi42NzQgMC00Ljg0MiAyLjE2OC00Ljg0MiA0Ljg0MmE0Ljk0IDQuOTQgMCAwIDAgLjAwNi4yMzggMS40IDEuNCAwIDAgMS0xLjM5OCAxLjQ2N2gtMS44Yy0xLjczIDAtMy4xMzIgMS40MDItMy4xMzIgMy4xMzJzMS40MDIgMy4xMzIgMy4xMzIgMy4xMzJoMTAuMTlhMy4xNCAzLjE0IDAgMCAwIC4xNi0uMDA0IDEuMzkgMS4zOSAwIDAgMSAuMTMxIDBjLjA2Ny4wMDMuMTM0LjAwNC4yMDIuMDA0aDQuMDU0YTQuNTMgNC41MyAwIDEgMCAwLTkuMDYyaC0uOTc3YTEuNCAxLjQgMCAwIDEtMS4yODMtLjg0QzE3LjE2MSAzLjQ5NCAxNS40NTIgMi4zIDEzLjQ2NyAyLjN6IiBmaWxsLXJ1bGU9ImV2ZW5vZGQiLz4mI3hhOzwvc3ZnPg==;labelPosition=center;align=left;fontSize=16;fontStyle=1;spacingLeft=0;" parent="bLrstx7oAV7xhixI29AM-31" vertex="1">
          <mxGeometry y="0.5" width="34" height="22" relative="1" as="geometry">
            <mxPoint x="15" y="-66" as="offset" />
          </mxGeometry>
        </mxCell>
        <mxCell id="bLrstx7oAV7xhixI29AM-106" value="Webasto-1.eu10" style="rounded=0;whiteSpace=wrap;html=1;" parent="bLrstx7oAV7xhixI29AM-31" vertex="1">
          <mxGeometry x="35.02999999999997" y="90" width="137.95" height="20" as="geometry" />
        </mxCell>
        <mxCell id="bLrstx7oAV7xhixI29AM-114" value="" style="shape=mxgraph.sap.icon;labelPosition=center;verticalLabelPosition=bottom;align=center;verticalAlign=top;strokeWidth=1;strokeColor=#D5DADD;fillColor=#EDEFF0;gradientColor=#FCFCFC;gradientDirection=west;aspect=fixed;SAPIcon=SAP_Datasphere" parent="bLrstx7oAV7xhixI29AM-31" vertex="1">
          <mxGeometry y="-10" width="50" height="50" as="geometry" />
        </mxCell>
        <mxCell id="bLrstx7oAV7xhixI29AM-36" value="INTERNET" style="text;html=1;align=left;verticalAlign=middle;resizable=0;points=[];autosize=1;strokeColor=#6c8ebf;fillColor=#dae8fc;fontSize=14;fontStyle=1;" parent="1" vertex="1">
          <mxGeometry x="200" y="3500" width="90" height="30" as="geometry" />
        </mxCell>
        <mxCell id="bLrstx7oAV7xhixI29AM-40" value="" style="strokeColor=#0070F2;shadow=0;strokeWidth=2;rounded=1;absoluteArcSize=1;arcSize=20;" parent="1" vertex="1">
          <mxGeometry x="1193.5" y="240" width="230" height="210" as="geometry" />
        </mxCell>
        <mxCell id="bLrstx7oAV7xhixI29AM-41" value="SAP On-Premise&lt;br style=&quot;font-size: 16px;&quot;&gt;Solutions PRD&lt;br style=&quot;font-size: 16px;&quot;&gt;&lt;font style=&quot;font-size: 10px;&quot;&gt;SAP S/4HANA&lt;br style=&quot;&quot;&gt;SAP ECC&lt;/font&gt;&lt;div&gt;&lt;font style=&quot;font-size: 10px;&quot;&gt;SAP BW on HANA&lt;/font&gt;&lt;/div&gt;" style="shape=image;editableCssRules=.*;part=1;verticalLabelPosition=bottom;labelBackgroundColor=none;verticalAlign=top;aspect=fixed;imageAspect=0;image=data:image/svg+xml,PHN2ZyB4bWxucz0iaHR0cDovL3d3dy53My5vcmcvMjAwMC9zdmciIHZpZXdCb3g9Ii0wLjUgLTAuNSAyNi4wODQgMjgiIGhlaWdodD0iMjgiIHdpZHRoPSIyNi4wODQiPiYjeGE7CSAgPHN0eWxlIHR5cGU9InRleHQvY3NzIj4uc3QwIHsgc3RvcC1jb2xvcjogcmdiKDM1LCAxNDksIDI1NSk7IH0gLnN0MSB7IHN0b3AtY29sb3I6IHJnYigwLCA4NywgMjEwKTsgfSA8L3N0eWxlPiYjeGE7CTxkZWZzPiYjeGE7CQk8bGluZWFyR3JhZGllbnQgZ3JhZGllbnRVbml0cz0idXNlclNwYWNlT25Vc2UiIHkyPSIyMy43OTIiIHgyPSIyMy4yNTYiIHkxPSIzLjQ3NCIgeDE9IjEuODY1IiBpZD0iQSI+JiN4YTsJCQk8c3RvcCBjbGFzcz0ic3QwIi8+JiN4YTsJCQk8c3RvcCBjbGFzcz0ic3QxIiBvZmZzZXQ9IjEiLz4mI3hhOwkJPC9saW5lYXJHcmFkaWVudD4mI3hhOwk8L2RlZnM+JiN4YTsJPHBhdGggZmlsbD0idXJsKCNBKSIgZD0iTTI0LjEwNCA4LjEwMmE0Ljk3IDQuOTcgMCAwIDEgMS4wNDIgMS41MzRjLjI5MS41NDkuNDM4IDEuMTUyLjQzOCAxLjgxdjExLjcyNWMwIDEuMjQxLS40MjEgMi4yNjUtMS4yNjIgMy4wNjgtLjgzOC44NDItMS44OCAxLjI2MS0zLjEyMSAxLjI2MUgzLjgyN2E0LjE4IDQuMTggMCAwIDEtMy4wNjgtMS4yNjFDLS4wODEgMjUuNDM2LS41IDI0LjQxMi0uNSAyMy4xNzFWMTEuNDQ0YzAtMS4zODcuNDkxLTIuNTAyIDEuNDc4LTMuMzQyTDkuNjM4LjU5NkE0LjUgNC41IDAgMCAxIDEyLjU5NC0uNSA0LjA5IDQuMDkgMCAwIDEgMTUuNDQ0LjU5NnptLTkuMzcgNy44MzZIMTAuMzV2OC43MTNoNC4zODR6bTcuNzgyLTQuNDk0YzAtLjQ3My0uMTQ3LS44NTktLjQzOC0xLjE1bC04LjY1OC03LjUwNmMtLjYyMS0uNDczLTEuMjYxLS40NzMtMS45MTggMGwtOC42NTUgNy41MDZjLS4yOTMuMjkzLS40MzguNjc3LS40MzggMS4xNTJ2MTEuNzI1YzAgLjQzOC4xMjguODAzLjM4NCAxLjA5NmExLjUzIDEuNTMgMCAwIDAgMS4wNC4zODRoMy42MTd2LTguNzEzYzAtLjgwMy4yNzQtMS40OC44MjEtMi4wMjcuNTg2LS41ODYgMS4yOC0uODc3IDIuMDgzLS44NzdoNC4zODRhMi42NiAyLjY2IDAgMCAxIDIuMDI3Ljg3N2MuNTQ5LjU0Ny44MjIgMS4yMjQuODIyIDIuMDI3djguNzEzaDMuNjE3Yy40MzggMCAuNzg0LS4xMjggMS4wNC0uMzg0LjE0NC0uMTQzLjI1Ny0uMzE0LjMzMy0uNTAzcy4xMTEtLjM5LjEwNi0uNTkzeiIvPiYjeGE7PC9zdmc+;labelPosition=center;align=left;fontStyle=1;spacingLeft=0;fontSize=16;fontColor=#1D2D3E;html=1;" parent="bLrstx7oAV7xhixI29AM-40" vertex="1">
          <mxGeometry y="0.5" width="28" height="30" relative="1" as="geometry">
            <mxPoint x="15" y="-90" as="offset" />
          </mxGeometry>
        </mxCell>
        <mxCell id="bLrstx7oAV7xhixI29AM-42" value="" style="outlineConnect=0;dashed=0;verticalLabelPosition=bottom;verticalAlign=top;align=center;html=1;shape=mxgraph.aws3.customer_gateway;fillColor=#F58534;gradientColor=none;" parent="1" vertex="1">
          <mxGeometry x="-771.25" y="81.5" width="23.25" height="26.5" as="geometry" />
        </mxCell>
        <mxCell id="bLrstx7oAV7xhixI29AM-46" value="" style="image;aspect=fixed;html=1;points=[];align=center;fontSize=12;image=img/lib/azure2/analytics/Power_BI_Embedded.svg;" parent="1" vertex="1">
          <mxGeometry x="-257.25" y="70" width="15" height="20" as="geometry" />
        </mxCell>
        <mxCell id="bLrstx7oAV7xhixI29AM-53" value="Power BI OnPrem Data Gateway Installed" style="rounded=0;whiteSpace=wrap;html=1;" parent="1" vertex="1">
          <mxGeometry x="-744.23" y="85" width="229.48" height="20" as="geometry" />
        </mxCell>
        <mxCell id="bLrstx7oAV7xhixI29AM-55" value="ODBC" style="rounded=1;whiteSpace=wrap;html=1;strokeColor=#475E75;strokeWidth=1.5;arcSize=16;fillColor=#FFFFFF;perimeterSpacing=0;absoluteArcSize=1;fontColor=#475E75;fontSize=10;fontStyle=1" parent="1" vertex="1">
          <mxGeometry x="-249.51999999999998" y="132" width="51" height="16" as="geometry" />
        </mxCell>
        <mxCell id="bLrstx7oAV7xhixI29AM-56" value="Firewall Rule + NAT" style="rounded=0;whiteSpace=wrap;html=1;" parent="1" vertex="1">
          <mxGeometry x="1650" y="-281" width="115" height="20" as="geometry" />
        </mxCell>
        <mxCell id="bLrstx7oAV7xhixI29AM-57" value="" style="verticalLabelPosition=bottom;sketch=0;aspect=fixed;html=1;verticalAlign=top;strokeColor=none;align=center;outlineConnect=0;shape=mxgraph.citrix.proxy_server;" parent="1" vertex="1">
          <mxGeometry x="1990.88" y="-176" width="39.1" height="46" as="geometry" />
        </mxCell>
        <mxCell id="bLrstx7oAV7xhixI29AM-58" value="Firewall Proxy Server" style="rounded=0;whiteSpace=wrap;html=1;" parent="1" vertex="1">
          <mxGeometry x="1940" y="-206" width="137.95" height="20" as="geometry" />
        </mxCell>
        <mxCell id="bLrstx7oAV7xhixI29AM-60" value="" style="endArrow=none;html=1;strokeColor=#FF0000;bendable=1;rounded=0;endFill=0;endSize=4;strokeWidth=3;startSize=4;startArrow=none;startFill=0;jumpStyle=gap;" parent="1" source="bLrstx7oAV7xhixI29AM-8" edge="1">
          <mxGeometry width="50" height="50" relative="1" as="geometry">
            <mxPoint x="-580" y="-310" as="sourcePoint" />
            <mxPoint x="2731.818181818182" y="-310" as="targetPoint" />
            <Array as="points" />
          </mxGeometry>
        </mxCell>
        <mxCell id="bLrstx7oAV7xhixI29AM-59" value="" style="image;aspect=fixed;html=1;points=[];align=center;fontSize=12;image=img/lib/azure2/networking/NAT.svg;rotation=-180;" parent="1" vertex="1">
          <mxGeometry x="1641.5" y="-330" width="30" height="30" as="geometry" />
        </mxCell>
        <mxCell id="bLrstx7oAV7xhixI29AM-62" value="" style="endArrow=none;html=1;strokeColor=#5B738B;bendable=1;rounded=0;endFill=0;endSize=4;strokeWidth=3;startSize=4;startArrow=none;startFill=0;jumpStyle=gap;" parent="1" source="bLrstx7oAV7xhixI29AM-59" target="bLrstx7oAV7xhixI29AM-61" edge="1">
          <mxGeometry width="50" height="50" relative="1" as="geometry">
            <mxPoint x="1671.5" y="-315" as="sourcePoint" />
            <mxPoint x="1792.5" y="-316" as="targetPoint" />
            <Array as="points" />
          </mxGeometry>
        </mxCell>
        <mxCell id="bLrstx7oAV7xhixI29AM-61" value="" style="image;aspect=fixed;html=1;points=[];align=center;fontSize=12;image=img/lib/azure2/networking/NAT.svg;rotation=-180;" parent="1" vertex="1">
          <mxGeometry x="1692.5" y="-330" width="30" height="30" as="geometry" />
        </mxCell>
        <mxCell id="bLrstx7oAV7xhixI29AM-64" value="" style="endArrow=none;html=1;strokeColor=#5B738B;bendable=1;rounded=0;endFill=0;endSize=4;strokeWidth=3;startSize=4;startArrow=none;startFill=0;jumpStyle=gap;" parent="1" source="bLrstx7oAV7xhixI29AM-61" target="bLrstx7oAV7xhixI29AM-63" edge="1">
          <mxGeometry width="50" height="50" relative="1" as="geometry">
            <mxPoint x="1722.5" y="-315" as="sourcePoint" />
            <mxPoint x="1792.5" y="-316" as="targetPoint" />
            <Array as="points" />
          </mxGeometry>
        </mxCell>
        <mxCell id="bLrstx7oAV7xhixI29AM-63" value="" style="image;aspect=fixed;html=1;points=[];align=center;fontSize=12;image=img/lib/azure2/networking/NAT.svg;rotation=-180;" parent="1" vertex="1">
          <mxGeometry x="1752.5" y="-330" width="30" height="30" as="geometry" />
        </mxCell>
        <mxCell id="bLrstx7oAV7xhixI29AM-65" value="For all Clients which will access DataSphere, external ip V4 address range in Enable IP List&lt;div&gt;&lt;br&gt;&lt;/div&gt;&lt;div&gt;DP Agent NAT /Firewall Rule Creation for Every DP Agent&lt;/div&gt;&lt;div&gt;&lt;br&gt;&lt;/div&gt;&lt;div&gt;&lt;br&gt;&lt;/div&gt;&lt;div&gt;&lt;span style=&quot;background-color: rgb(255, 255, 255); color: rgb(66, 66, 66); font-family: Cabin; font-size: 16px;&quot;&gt;&lt;br&gt;&lt;/span&gt;&lt;/div&gt;&lt;div&gt;&lt;br&gt;&lt;/div&gt;" style="rounded=0;whiteSpace=wrap;html=1;align=left;" parent="1" vertex="1">
          <mxGeometry x="-730" y="1484" width="520" height="270" as="geometry" />
        </mxCell>
        <mxCell id="bLrstx7oAV7xhixI29AM-67" value="" style="verticalLabelPosition=bottom;html=1;verticalAlign=top;align=center;strokeColor=none;fillColor=#00BEF2;shape=mxgraph.azure.virtual_machine;" parent="1" vertex="1">
          <mxGeometry x="-716.02" y="41.5" width="50" height="40" as="geometry" />
        </mxCell>
        <mxCell id="bLrstx7oAV7xhixI29AM-69" value="" style="group" parent="1" vertex="1" connectable="0">
          <mxGeometry x="-680" y="-1140" width="410" height="154" as="geometry" />
        </mxCell>
        <mxCell id="bLrstx7oAV7xhixI29AM-49" value="" style="strokeColor=#d6b656;shadow=0;strokeWidth=2;rounded=1;absoluteArcSize=1;arcSize=20;whiteSpace=wrap;verticalAlign=bottom;spacing=10;fontSize=10;align=left;fillColor=#fff2cc;" parent="bLrstx7oAV7xhixI29AM-69" vertex="1">
          <mxGeometry width="240" height="154" as="geometry" />
        </mxCell>
        <mxCell id="bLrstx7oAV7xhixI29AM-48" value="" style="image;aspect=fixed;html=1;points=[];align=center;fontSize=12;image=img/lib/azure2/analytics/Power_BI_Embedded.svg;" parent="bLrstx7oAV7xhixI29AM-69" vertex="1">
          <mxGeometry x="10" y="10" width="22.5" height="30" as="geometry" />
        </mxCell>
        <mxCell id="bLrstx7oAV7xhixI29AM-52" value="&lt;b&gt;&lt;font style=&quot;font-size: 18px;&quot;&gt;Power BI Online Tenant&lt;/font&gt;&lt;/b&gt;" style="rounded=0;whiteSpace=wrap;html=1;align=left;" parent="bLrstx7oAV7xhixI29AM-69" vertex="1">
          <mxGeometry x="10" y="50" width="220" height="20" as="geometry" />
        </mxCell>
        <mxCell id="bLrstx7oAV7xhixI29AM-118" value="https://app.powerbi.com/home?experience=power-bi&amp;amp;language=en-US" style="rounded=0;whiteSpace=wrap;html=1;" parent="bLrstx7oAV7xhixI29AM-69" vertex="1">
          <mxGeometry x="-70" y="110" width="358.97" height="30" as="geometry" />
        </mxCell>
        <mxCell id="bLrstx7oAV7xhixI29AM-80" value="" style="group;fillColor=#e1d5e7;strokeColor=#9673a6;rounded=1;" parent="1" vertex="1" connectable="0">
          <mxGeometry x="920" y="-890" width="240" height="154" as="geometry" />
        </mxCell>
        <mxCell id="bLrstx7oAV7xhixI29AM-74" value="&lt;b&gt;&lt;font style=&quot;font-size: 18px;&quot;&gt;SAP Analytics Cloud DEV&lt;/font&gt;&lt;/b&gt;" style="rounded=0;whiteSpace=wrap;html=1;align=left;" parent="bLrstx7oAV7xhixI29AM-80" vertex="1">
          <mxGeometry y="50" width="230" height="20" as="geometry" />
        </mxCell>
        <mxCell id="bLrstx7oAV7xhixI29AM-75" value="" style="shape=mxgraph.sap.icon;labelPosition=center;verticalLabelPosition=bottom;align=center;verticalAlign=top;strokeWidth=1;strokeColor=#D5DADD;fillColor=#EDEFF0;gradientColor=#FCFCFC;gradientDirection=west;aspect=fixed;SAPIcon=SAP_Analytics_Cloud" parent="bLrstx7oAV7xhixI29AM-80" vertex="1">
          <mxGeometry width="50" height="50" as="geometry" />
        </mxCell>
        <mxCell id="bLrstx7oAV7xhixI29AM-112" value="webasto-q.eu10" style="rounded=0;whiteSpace=wrap;html=1;" parent="bLrstx7oAV7xhixI29AM-80" vertex="1">
          <mxGeometry x="51.02999999999998" y="110" width="137.95" height="20" as="geometry" />
        </mxCell>
        <mxCell id="bLrstx7oAV7xhixI29AM-81" value="" style="group;rounded=1;" parent="1" vertex="1" connectable="0">
          <mxGeometry x="1610" y="-880" width="250" height="154" as="geometry" />
        </mxCell>
        <mxCell id="bLrstx7oAV7xhixI29AM-76" value="" style="group;fillColor=#dae8fc;strokeColor=#6c8ebf;container=0;rounded=1;" parent="bLrstx7oAV7xhixI29AM-81" vertex="1" connectable="0">
          <mxGeometry width="250" height="154" as="geometry" />
        </mxCell>
        <mxCell id="bLrstx7oAV7xhixI29AM-78" value="&lt;b&gt;&lt;font style=&quot;font-size: 18px;&quot;&gt;SAP Analytics Cloud PRD&lt;/font&gt;&lt;/b&gt;" style="rounded=0;whiteSpace=wrap;html=1;align=left;container=0;" parent="bLrstx7oAV7xhixI29AM-81" vertex="1">
          <mxGeometry y="50" width="230" height="20" as="geometry" />
        </mxCell>
        <mxCell id="bLrstx7oAV7xhixI29AM-79" value="" style="shape=mxgraph.sap.icon;labelPosition=center;verticalLabelPosition=bottom;align=center;verticalAlign=top;strokeWidth=1;strokeColor=#D5DADD;fillColor=#EDEFF0;gradientColor=#FCFCFC;gradientDirection=west;aspect=fixed;SAPIcon=SAP_Analytics_Cloud;container=0;" parent="bLrstx7oAV7xhixI29AM-81" vertex="1">
          <mxGeometry width="50" height="50" as="geometry" />
        </mxCell>
        <mxCell id="bLrstx7oAV7xhixI29AM-111" value="webasto.eu10" style="rounded=0;whiteSpace=wrap;html=1;" parent="bLrstx7oAV7xhixI29AM-81" vertex="1">
          <mxGeometry x="56.02999999999997" y="100" width="137.95" height="20" as="geometry" />
        </mxCell>
        <mxCell id="bLrstx7oAV7xhixI29AM-116" value="IP Whitelisting" style="rounded=0;whiteSpace=wrap;html=1;" parent="bLrstx7oAV7xhixI29AM-81" vertex="1">
          <mxGeometry x="56.02999999999997" y="-10" width="137.95" height="20" as="geometry" />
        </mxCell>
        <mxCell id="bLrstx7oAV7xhixI29AM-83" value="GPD QUA" style="rounded=0;whiteSpace=wrap;html=1;" parent="1" vertex="1">
          <mxGeometry x="-791.25" y="310" width="115" height="20" as="geometry" />
        </mxCell>
        <mxCell id="bLrstx7oAV7xhixI29AM-85" value="GPD PRD" style="rounded=0;whiteSpace=wrap;html=1;" parent="1" vertex="1">
          <mxGeometry x="-578.75" y="310" width="115" height="20" as="geometry" />
        </mxCell>
        <mxCell id="bLrstx7oAV7xhixI29AM-86" value="" style="verticalLabelPosition=bottom;html=1;verticalAlign=top;align=center;strokeColor=none;fillColor=#00BEF2;shape=mxgraph.azure.sql_database_sql_azure;" parent="1" vertex="1">
          <mxGeometry x="-618.75" y="300" width="47.5" height="50" as="geometry" />
        </mxCell>
        <mxCell id="bLrstx7oAV7xhixI29AM-91" value="" style="verticalLabelPosition=bottom;html=1;verticalAlign=top;align=center;strokeColor=none;fillColor=#00BEF2;shape=mxgraph.azure.sql_database_sql_azure;" parent="1" vertex="1">
          <mxGeometry x="-838.75" y="300" width="47.5" height="50" as="geometry" />
        </mxCell>
        <mxCell id="bLrstx7oAV7xhixI29AM-96" value="IP Whitelisting" style="rounded=0;whiteSpace=wrap;html=1;" parent="1" vertex="1">
          <mxGeometry x="1684.76" y="-1110" width="137.95" height="20" as="geometry" />
        </mxCell>
        <mxCell id="bLrstx7oAV7xhixI29AM-97" value="ODBC" style="rounded=1;whiteSpace=wrap;html=1;strokeColor=#475E75;strokeWidth=1.5;arcSize=16;fillColor=#FFFFFF;perimeterSpacing=0;absoluteArcSize=1;fontColor=#475E75;fontSize=10;fontStyle=1" parent="1" vertex="1">
          <mxGeometry x="-741.75" y="132" width="51" height="16" as="geometry" />
        </mxCell>
        <mxCell id="bLrstx7oAV7xhixI29AM-98" value="" style="sketch=0;outlineConnect=0;fontColor=#232F3E;gradientColor=none;fillColor=#01A88D;strokeColor=none;dashed=0;verticalLabelPosition=bottom;verticalAlign=top;align=center;html=1;fontSize=12;fontStyle=0;aspect=fixed;shape=mxgraph.aws4.application_discovery_service_aws_discovery_agent;" parent="1" vertex="1">
          <mxGeometry x="-595.75" y="464" width="24.76" height="20" as="geometry" />
        </mxCell>
        <mxCell id="bLrstx7oAV7xhixI29AM-99" value="DP Agent DEV" style="rounded=0;whiteSpace=wrap;html=1;fillColor=#b0e3e6;strokeColor=#0e8088;" parent="1" vertex="1">
          <mxGeometry x="-563.75" y="464" width="100" height="20" as="geometry" />
        </mxCell>
        <mxCell id="bLrstx7oAV7xhixI29AM-100" value="JDBC" style="rounded=1;whiteSpace=wrap;html=1;strokeColor=#475E75;strokeWidth=1.5;arcSize=16;fillColor=#FFFFFF;perimeterSpacing=0;absoluteArcSize=1;fontColor=#475E75;fontSize=10;fontStyle=1" parent="1" vertex="1">
          <mxGeometry x="-539.25" y="501" width="51" height="16" as="geometry" />
        </mxCell>
        <mxCell id="bLrstx7oAV7xhixI29AM-102" value="ODATA" style="rounded=1;whiteSpace=wrap;html=1;strokeColor=#475E75;strokeWidth=1.5;arcSize=16;fillColor=#FFFFFF;perimeterSpacing=0;absoluteArcSize=1;fontColor=#475E75;fontSize=10;fontStyle=1" parent="1" vertex="1">
          <mxGeometry x="-653.25" y="132" width="51" height="16" as="geometry" />
        </mxCell>
        <mxCell id="bLrstx7oAV7xhixI29AM-115" value="IP Whitelisting" style="rounded=0;whiteSpace=wrap;html=1;" parent="1" vertex="1">
          <mxGeometry x="987.97" y="-900" width="137.95" height="20" as="geometry" />
        </mxCell>
        <mxCell id="bLrstx7oAV7xhixI29AM-117" value="1 Gateway Server + 2 Load Balancer Cluster" style="rounded=0;whiteSpace=wrap;html=1;" parent="1" vertex="1">
          <mxGeometry x="-754.75" y="10" width="289.48" height="20" as="geometry" />
        </mxCell>
        <mxCell id="-TzDsh0TMZtZClCxq-xT-16" value="" style="group;rounded=1;" parent="1" vertex="1" connectable="0">
          <mxGeometry x="1030" y="-261" width="230" height="210" as="geometry" />
        </mxCell>
        <mxCell id="-TzDsh0TMZtZClCxq-xT-10" value="" style="group;fillColor=#dae8fc;strokeColor=#6c8ebf;container=0;" parent="-TzDsh0TMZtZClCxq-xT-16" vertex="1" connectable="0">
          <mxGeometry width="230" height="210" as="geometry" />
        </mxCell>
        <mxCell id="bLrstx7oAV7xhixI29AM-3" value="Cloud Connector" style="shape=image;editableCssRules=.*;verticalLabelPosition=middle;labelBackgroundColor=none;verticalAlign=middle;aspect=fixed;imageAspect=0;image=data:image/svg+xml,PHN2ZyB4bWxucz0iaHR0cDovL3d3dy53My5vcmcvMjAwMC9zdmciIHZpZXdCb3g9Ii0wLjUgLTAuNSAyOCAyNy45NDYiIGhlaWdodD0iMjcuOTQ2IiB3aWR0aD0iMjgiPiYjeGE7CSAgPHN0eWxlIHR5cGU9InRleHQvY3NzIj4uc3QwIHsgc3RvcC1jb2xvcjogcmdiKDM1LCAxNDksIDI1NSk7IH0gLnN0MSB7IHN0b3AtY29sb3I6IHJnYigwLCA4NywgMjEwKTsgfSA8L3N0eWxlPiYjeGE7CTxkZWZzPiYjeGE7CQk8bGluZWFyR3JhZGllbnQgZ3JhZGllbnRVbml0cz0idXNlclNwYWNlT25Vc2UiIHkyPSIyNS4zMDEiIHgyPSIyMy40MTIiIHkxPSIzLjQ2NiIgeDE9IjIuMDM5IiBpZD0iQSI+JiN4YTsJCQk8c3RvcCBjbGFzcz0ic3QwIi8+JiN4YTsJCQk8c3RvcCBjbGFzcz0ic3QxIiBvZmZzZXQ9IjEiLz4mI3hhOwkJPC9saW5lYXJHcmFkaWVudD4mI3hhOwk8L2RlZnM+JiN4YTsJPHBhdGggZmlsbD0idXJsKCNBKSIgZD0iTTI3LjA2MiAyNS4wOTRjLjI5Mi4yOTIuNDM4LjYwMi40MzguOTI5YTEuMzYgMS4zNiAwIDAgMS0uNDM3Ljk4NSAxLjM2IDEuMzYgMCAwIDEtLjk4NS40MzhjLS4xODUtLjAwMi0uMzY4LS4wNDItLjUzNy0uMTE3YTEuMzYgMS4zNiAwIDAgMS0uNDQ3LS4zMmwtNS4xNDItNS4xNDJjLTEuMTI5LjkxMi0yLjQwNCAxLjMzLTMuODI3IDEuMjU4cy0yLjY2LS42MzktMy43MTktMS42OTZMNS42NzkgMTQuNzZjLS40OS0uNTE3LS44OTUtMS4xMDctMS4yMDItMS43NWE1LjU5IDUuNTkgMCAwIDEtLjQ5Mi0xLjk2OWMtLjAwMS0uNjg0LjA5LTEuMzY1LjI3My0yLjAyNS4yMTktLjY1Ni41NjUtMS4yNTYgMS4wNC0xLjgwM2wtNS4zNi01LjMwOUExLjM2IDEuMzYgMCAwIDEtLjUuOTIxYzAtLjM2Mi4xNDUtLjY5MS40MzgtLjk4M0ExLjM2IDEuMzYgMCAwIDEgLjkyMy0uNWMuMzY0IDAgLjY5MS4xNDUuOTg0LjQzN2w1LjMwNCA1LjMwNEM4LjI4IDQuMzUgOS42NDkgMy45IDExLjAzOSAzLjk4M2MxLjQyMS4wNzQgMi42Ni42MzkgMy43MTkgMS42OTdsNi43MjcgNi42NzFjLjUwOS41NDYuOTEgMS4xNDggMS4yMDIgMS44MDQuNTgxIDEuMjM0LjY2IDIuNjQ2LjIxOSAzLjkzNy0uMjE4LjY1NS0uNTUyIDEuMjY2LS45ODUgMS44MDR6TTcuNjQ4IDguNzQyYy0uMjY0LjI1NS0uNDczLjU2MS0uNjEzLjlzLS4yMTEuNzAyLS4yMDYgMS4wNjljMCAuNzMuMjczIDEuMzY5LjgxOSAxLjkxNUwxMCAxNS4wMzEgMTUuMDMxIDEwbC0yLjM1Mi0yLjQwNmMtLjI1NS0uMjY0LS41NjEtLjQ3My0uODk5LS42MTRzLS43MDMtLjIxMS0xLjA2OS0uMjA2Yy0uNzI4IDAtMS4zODQuMjc1LTEuOTY5LjgyMXptNi43MjcgMTAuNjFjLjI0Ni4yNi41NDMuNDY3Ljg3Mi42MDhzLjY4NC4yMTMgMS4wNDIuMjEyYy43NjUgMCAxLjQyMS0uMjc1IDEuOTY5LS44MjNsMS4xNDgtMS4wOTJjLjU0OC0uNTg0LjgyMS0xLjI0MS44MjEtMS45NjkgMC0uNzY3LS4yNzMtMS40MjMtLjgyMS0xLjk2OUwxNyAxMS45NjkgMTEuOTY5IDE3eiIvPiYjeGE7PC9zdmc+;labelPosition=right;align=left;fontSize=10;" parent="-TzDsh0TMZtZClCxq-xT-16" vertex="1">
          <mxGeometry x="14.710322580645197" y="4.00263157894733" width="28" height="28" as="geometry" />
        </mxCell>
        <mxCell id="-TzDsh0TMZtZClCxq-xT-15" value="SCC PRD" style="rounded=0;whiteSpace=wrap;html=1;fillColor=#b0e3e6;strokeColor=#0e8088;" parent="-TzDsh0TMZtZClCxq-xT-16" vertex="1">
          <mxGeometry x="60" y="80" width="100" height="20" as="geometry" />
        </mxCell>
        <mxCell id="-TzDsh0TMZtZClCxq-xT-18" value="" style="group;rounded=1;strokeColor=default;strokeWidth=2;" parent="1" vertex="1" connectable="0">
          <mxGeometry x="739" y="-261" width="230" height="210" as="geometry" />
        </mxCell>
        <mxCell id="-TzDsh0TMZtZClCxq-xT-19" value="" style="group;fillColor=#e1d5e7;strokeColor=#9673a6;container=0;" parent="-TzDsh0TMZtZClCxq-xT-18" vertex="1" connectable="0">
          <mxGeometry width="230" height="210" as="geometry" />
        </mxCell>
        <mxCell id="-TzDsh0TMZtZClCxq-xT-20" value="Cloud Connector" style="shape=image;editableCssRules=.*;verticalLabelPosition=middle;labelBackgroundColor=none;verticalAlign=middle;aspect=fixed;imageAspect=0;image=data:image/svg+xml,PHN2ZyB4bWxucz0iaHR0cDovL3d3dy53My5vcmcvMjAwMC9zdmciIHZpZXdCb3g9Ii0wLjUgLTAuNSAyOCAyNy45NDYiIGhlaWdodD0iMjcuOTQ2IiB3aWR0aD0iMjgiPiYjeGE7CSAgPHN0eWxlIHR5cGU9InRleHQvY3NzIj4uc3QwIHsgc3RvcC1jb2xvcjogcmdiKDM1LCAxNDksIDI1NSk7IH0gLnN0MSB7IHN0b3AtY29sb3I6IHJnYigwLCA4NywgMjEwKTsgfSA8L3N0eWxlPiYjeGE7CTxkZWZzPiYjeGE7CQk8bGluZWFyR3JhZGllbnQgZ3JhZGllbnRVbml0cz0idXNlclNwYWNlT25Vc2UiIHkyPSIyNS4zMDEiIHgyPSIyMy40MTIiIHkxPSIzLjQ2NiIgeDE9IjIuMDM5IiBpZD0iQSI+JiN4YTsJCQk8c3RvcCBjbGFzcz0ic3QwIi8+JiN4YTsJCQk8c3RvcCBjbGFzcz0ic3QxIiBvZmZzZXQ9IjEiLz4mI3hhOwkJPC9saW5lYXJHcmFkaWVudD4mI3hhOwk8L2RlZnM+JiN4YTsJPHBhdGggZmlsbD0idXJsKCNBKSIgZD0iTTI3LjA2MiAyNS4wOTRjLjI5Mi4yOTIuNDM4LjYwMi40MzguOTI5YTEuMzYgMS4zNiAwIDAgMS0uNDM3Ljk4NSAxLjM2IDEuMzYgMCAwIDEtLjk4NS40MzhjLS4xODUtLjAwMi0uMzY4LS4wNDItLjUzNy0uMTE3YTEuMzYgMS4zNiAwIDAgMS0uNDQ3LS4zMmwtNS4xNDItNS4xNDJjLTEuMTI5LjkxMi0yLjQwNCAxLjMzLTMuODI3IDEuMjU4cy0yLjY2LS42MzktMy43MTktMS42OTZMNS42NzkgMTQuNzZjLS40OS0uNTE3LS44OTUtMS4xMDctMS4yMDItMS43NWE1LjU5IDUuNTkgMCAwIDEtLjQ5Mi0xLjk2OWMtLjAwMS0uNjg0LjA5LTEuMzY1LjI3My0yLjAyNS4yMTktLjY1Ni41NjUtMS4yNTYgMS4wNC0xLjgwM2wtNS4zNi01LjMwOUExLjM2IDEuMzYgMCAwIDEtLjUuOTIxYzAtLjM2Mi4xNDUtLjY5MS40MzgtLjk4M0ExLjM2IDEuMzYgMCAwIDEgLjkyMy0uNWMuMzY0IDAgLjY5MS4xNDUuOTg0LjQzN2w1LjMwNCA1LjMwNEM4LjI4IDQuMzUgOS42NDkgMy45IDExLjAzOSAzLjk4M2MxLjQyMS4wNzQgMi42Ni42MzkgMy43MTkgMS42OTdsNi43MjcgNi42NzFjLjUwOS41NDYuOTEgMS4xNDggMS4yMDIgMS44MDQuNTgxIDEuMjM0LjY2IDIuNjQ2LjIxOSAzLjkzNy0uMjE4LjY1NS0uNTUyIDEuMjY2LS45ODUgMS44MDR6TTcuNjQ4IDguNzQyYy0uMjY0LjI1NS0uNDczLjU2MS0uNjEzLjlzLS4yMTEuNzAyLS4yMDYgMS4wNjljMCAuNzMuMjczIDEuMzY5LjgxOSAxLjkxNUwxMCAxNS4wMzEgMTUuMDMxIDEwbC0yLjM1Mi0yLjQwNmMtLjI1NS0uMjY0LS41NjEtLjQ3My0uODk5LS42MTRzLS43MDMtLjIxMS0xLjA2OS0uMjA2Yy0uNzI4IDAtMS4zODQuMjc1LTEuOTY5LjgyMXptNi43MjcgMTAuNjFjLjI0Ni4yNi41NDMuNDY3Ljg3Mi42MDhzLjY4NC4yMTMgMS4wNDIuMjEyYy43NjUgMCAxLjQyMS0uMjc1IDEuOTY5LS44MjNsMS4xNDgtMS4wOTJjLjU0OC0uNTg0LjgyMS0xLjI0MS44MjEtMS45NjkgMC0uNzY3LS4yNzMtMS40MjMtLjgyMS0xLjk2OUwxNyAxMS45NjkgMTEuOTY5IDE3eiIvPiYjeGE7PC9zdmc+;labelPosition=right;align=left;fontSize=10;" parent="-TzDsh0TMZtZClCxq-xT-18" vertex="1">
          <mxGeometry x="14.710322580645197" y="4.00263157894733" width="28" height="28" as="geometry" />
        </mxCell>
        <mxCell id="-TzDsh0TMZtZClCxq-xT-21" value="SCC DEV" style="rounded=0;whiteSpace=wrap;html=1;fillColor=#b0e3e6;strokeColor=#0e8088;" parent="-TzDsh0TMZtZClCxq-xT-18" vertex="1">
          <mxGeometry x="60" y="80" width="100" height="20" as="geometry" />
        </mxCell>
        <mxCell id="-TzDsh0TMZtZClCxq-xT-23" value="" style="verticalLabelPosition=bottom;sketch=0;aspect=fixed;html=1;verticalAlign=top;strokeColor=none;align=center;outlineConnect=0;shape=mxgraph.citrix.proxy_server;" parent="1" vertex="1">
          <mxGeometry x="1720.88" y="-176" width="39.1" height="46" as="geometry" />
        </mxCell>
        <mxCell id="-TzDsh0TMZtZClCxq-xT-24" value="Gateway Server" style="rounded=0;whiteSpace=wrap;html=1;" parent="1" vertex="1">
          <mxGeometry x="1670" y="-206" width="137.95" height="20" as="geometry" />
        </mxCell>
        <mxCell id="bLrstx7oAV7xhixI29AM-8" value="CORPORATE NETWORK" style="text;html=1;align=left;verticalAlign=middle;resizable=0;points=[];autosize=1;strokeColor=#b85450;fillColor=#f8cecc;fontSize=14;fontStyle=1;glass=0;" parent="1" vertex="1">
          <mxGeometry x="410" y="-330" width="190" height="30" as="geometry" />
        </mxCell>
        <mxCell id="mDsZhQNBarCHwUdvmZXA-6" value="" style="endArrow=none;html=1;strokeColor=#FF0000;bendable=1;rounded=0;endFill=0;endSize=4;strokeWidth=3;startSize=4;startArrow=none;startFill=0;jumpStyle=gap;" parent="1" edge="1">
          <mxGeometry width="50" height="50" relative="1" as="geometry">
            <mxPoint x="430" y="1877.2727272727273" as="sourcePoint" />
            <mxPoint x="410" y="-300" as="targetPoint" />
            <Array as="points" />
          </mxGeometry>
        </mxCell>
        <mxCell id="mDsZhQNBarCHwUdvmZXA-7" value="AZURE VNET" style="text;html=1;align=left;verticalAlign=middle;resizable=0;points=[];autosize=1;strokeColor=#d79b00;fillColor=#ffe6cc;fontSize=14;fontStyle=1;" parent="1" vertex="1">
          <mxGeometry x="-1050" y="-110" width="110" height="30" as="geometry" />
        </mxCell>
        <mxCell id="mDsZhQNBarCHwUdvmZXA-8" value="" style="shape=image;verticalLabelPosition=bottom;labelBackgroundColor=default;verticalAlign=top;aspect=fixed;imageAspect=0;image=data:image/png,iVBORw0KGgoAAAANSUhEUgAAANMAAAAqCAYAAAApmm4IAAAAAXNSR0IArs4c6QAAAARnQU1BAACxjwv8YQUAAAAJcEhZcwAADsMAAA7DAcdvqGQAAAlBSURBVHhe7ZwHaFRZFIbPzCTGGntXrFgiCoZYVzTqKtgVewni2oNR0RiwgyW4sa0NFSuKXbAXFHtiXRUFu2jEgl1jIjomM7PvP76nY5xk7sS3w2bnfHDx5b57b165/zn3nPuixaVBgiD8Mlb9X0EQfhERkyCYhIhJEExCxCQIJiFiEgSTEDEJgkmImATBJERMgmASIiZBMAm1LyC0Jq6ML/oP3rBoErWRS5Opy+Ugradenz02Sx6yWLS+gpBLURKTK91OaVERRI50vSYbbEGUp9Mf9PdvDkpMTqAvGan6iayxWYMpLvI1BVlD9BpByH2oL/MgpAzF4tQ8kuaVnE47OVwKxan1EYRcjsRMgmASIiZBMAkRkyCYRMCI6cWLF9SgQQNq0qQJPX78WK/9matXr1KtWrW4Lfr8X0hPT6cVK1ZQ1apVqVy5crRs2TL9TM74/Pkz9evXj5o3b06vXr3SawObgPNMjx49ovHjx9OHDx/0mu+gbsaMGT+dO3PmDE/Cbdu26TW5j4MHD/K9FS9enPr06UO1a9fWz+SMa9euUVJSEt2/f5/Onj2r1wY2AbnMS0xMpJkzZ7K1NsAx6i5cuKDXfCcoKEg/yp1kZGTQ/v37qVSpUrRz505asGABtWrVirArsmvXLp89C8Zbv379t+cHIwNPFegEnJjCw8OpXbt2tGnTJlq1ahVPKBQco65z587cxh0sDR88eEC9e/fWa3IXdrud3r59S5UrV2bPBHDPEMS8efPI6XRynSrwRidOnKAaNWpQvXr16NSpU3Tu3Dn9bOAScGIKCQmhCRMmUJUqVWj+/PkcI2EJFB8fT82aNaPp06dzG3eOHj36U5zhcDho79691LRpUz6HAtHdunWLz6NttWrV6PLly7Ro0SKqUKEC1a9fnz0EgDijoqK4Hn1xbu3atT9YeEx4/I66detym+rVq9OkSZPo48ePegvv4yDui4yM5Ml+8eJFFgCuDfc8depUevjwIfdB3zFjxnAfbxw4cICXwgMHDqSRI0fydW7fvp09lgGusXv37jxu5lKpUiVeARhxbObfazy769ev//Bzds+yf//+PDbOjRgxgl6+fMnn/ImimCz8ZYNKsQQFa6PayGKxkdWah6yWYKXiTypWrEhLly6l4OBgGjBgAIurYMGCNHHiRAoNDdVbZQ0mz8qVK/mlvXnzhnr27MkeDbgvHcHy5ctZEB07dqT8+fNT+fLlWcDt27fnmAP1mAhFihShKVOm8AQ3xrhy5QrFxMRQiRIlaNq0aSwKeIG0tDQ+rzJOvnz5+FyxYsW4wLuWLl2ahYVrwTPo1q0b923cuDGPmx1YEu7Zs4fKlClDrVu3ZmMCkR85coRu3rypt/q6NMZ5jGsUI06DCBs2bMjHvuDpWSIG7tWrF50/f56FPXz4cDZ+o0aN8hgX/5toClBAEwc+EcKXDV7R2trCIqh8qIsaVYyhDKddP5E1VghPK/4Elg2eCQ8fQByoc7f6WQFLiMxYWFgYbdy4kcqWLcv17pYZfPr0iQoVKkSHDx/mSQvwgpEFK1q0KG3evJk9JICnW7JkCSUkJLCH7NKlC6WkpLAgWrZsSUOHDmXx4mer1crjQDAq48TGxn6z8rNmzaICBQpQjx496P3795w8gFAhMBXQHss8jAtPANHgGM8SsRO8KL6xhHePjo7WexFnUDHp4ZVwL75+h+npWcKowXBA4PCMjRo14nrcN7w1lqK4Nn+h5JmcFistqR9Nf4XHeC2LtXZJ5ZpSZWsIRQaF0u8KpZUtVLsQ/3/kCqs+duxYXjrhWJU7d+7Q69evebIYQgKYWO7JChz37dv328sHECIsOF6yIQBgs9nYQyBJgOULhBkREcETA8KFZUdfjIW2voxjFlg6QjAQAoRh3GuHDh3Yox86dMjjtgOuAUs1eBEIGysDX/H0LGFQ4L1hBOvUqaPXEhs5vJdLly7pNf5BSUwOF9GfN+00+4b38qdWTr7QXmCKFpAmzyN6GO+9JCdoZkbB65kMJgVeLkThi6VEnIGXCiubHWiTN29e/aevwIpiUuKFZwZt0QfJAiQNMEHXrFnDy6LTp0+zh9q3bx9bZF/GMYsbN27wkhK/H+I2YiBkBjGxnz9/zteXGcQ6W7ZsoTZt2rDwcoKnZ4n7h1EzYkHjeiCup0+fUmqq94+szURJTPisPDXdpVQ+ZLjIDl04v2gq1G4GX42rFMU/1fgvAKuH5RYsra8ULlyYrax7fGGAyYFxEdsYSRAsbZAc2bp1Kx8jFoA19nWcXwXeZfXq1TwuNmrdYyEUiATLT3gu91Q7RDZnzhy+ViQaMgvCE1iqqoCxEE8i8XPv3j169uzZDwVLT38ScNk8M4A3gNdAOh0JCANYbG8TAV9XIJ2MIB4ezgCTFEkRZKEQYGPynTx5kgNugAmMOAjt4HF8GScrcA7tIT6Q3fUb6XAkGxCTzZ0794eC5ECnTp1+2sTdvXs3Z+4Qm8JjuGOI4cmTJ99iVRxj70sFGBQkTTD+sWPH+PoB/oUnhxHyJyKmHFCzZk0aPXo0fwWA1C4SA7C62J86fvy43sozECE2h9+9e8fZuWHDhnE2sW3btrzPBStvxG/Y/0GGCrHCunXreNKiP2IOX8bJCsRkEB283bhx49i7YCnnCSMdPmjQICpZsqRe+x0IE9eK7OGGDRtYHMnJybRw4UJeQt++fZvi4uL4GlHwnHAPeH5I22O5jSQCEiS4LlUGDx7My228A9w77gOGB8/MPZ71ByKmHIDJAUuLxADSs/AeO3bs4D0ObIx6AxYaffDSsd+DyY9l1OLFi9maIj4ALVq04MAdCY/Jkydz9g1eAWIGquNkBZIXyCwixY6JjEmJ+8mMkQ6HV4K3ywp47K5du3KaGgLB88FeEjwFsnC4PqNgP86IWZEwwfjwqNgKUHmGBnjm8GS4j7t37/JyGCDLOmTIED72F0p/aWt3uKjw9hSyK2yUB2vyjK2Vl+KLLNIi9dl6POQFi7aub52iSVv+0lbIvYhnEgSTEDEJgkmImATBJERMgmASymJCYiFEpeCbWP6YwPY1saBSrNlnnQQhN6D2/+ZpLb441b9QgJiCLE6tIzYAFftZ8mjF/9/nCYJZKIlJEATvaAszQRDMQMQkCCYhYhIEkxAxCYJJiJgEwRSI/gFYNS8koVUkIQAAAABJRU5ErkJggg==;" parent="1" vertex="1">
          <mxGeometry x="-1230" y="-280" width="211" height="42" as="geometry" />
        </mxCell>
        <mxCell id="mDsZhQNBarCHwUdvmZXA-9" value="" style="shape=image;verticalLabelPosition=bottom;labelBackgroundColor=default;verticalAlign=top;aspect=fixed;imageAspect=0;image=data:image/png,iVBORw0KGgoAAAANSUhEUgAAAVcAAAAkCAYAAAA98HnDAAAAAXNSR0IArs4c6QAAAARnQU1BAACxjwv8YQUAAAAJcEhZcwAADsMAAA7DAcdvqGQAABZjSURBVHhe7ZwHeBVF98ZPbnpCIKGGCIQmVaQr9o4VC4qCvWEvgL0iNhDxjwoi9oYdHrD3gl0BxQoIIkUIJZRAgLSb/eZ3shOWmEBuSIDv+8+r8+Te2dnZ2SnvOeeduUR5BuLg4ODgUK0I+X8dHBwcHKoRjlwdHBwcagCOXB0cHBxqAI5cHRwcHGoAjlwdHBwcagCOXB0cHBxqAI5cHRwcHGoAjlwdHBwcagCOXB0cHBxqAI5cHRwcHGoAEf38NfTOav/TroMok+rFheShjokyICO+JNPBwcFhJyMico2ZvNL/tGsAYk2PD8ntHRLl7Mx4iY+KLrng4ODgsJMREbnGvZzlfxKJDYkkREeJ+V/Cpob8Yk8KiotFvM1KQ8hcizEpChY0KDLlikwRvuo1U9S/pKAhYXOd+rYF6mySFJLB7ZLl7JZJUpvKHBwcHHYRRMRIoYIiiS8qknaJIic1jpVLWyXIkDZJcnmrROm3W7wcmBYrGdGeRJtylG0R58kJptyAJvEmJUi3WiGJzi+51izWk+PT46S/uUY6zaR+u8XKsY1iZK86IakfVSwxhUVaVzBxL38zY0WfOyAzsVqJNSsrSy655BJp0qSJZGRkyDHHHCPfffedVGSD8vLy5PTTT5cDDzxQVq4s37Nfvny59OzZU+sLpiOOOEK++uqrCuu2eOSRR/51b9euXeWZZ56RwsJCv9T/P1x99dX/6pfyUqtWreSXX37x76oaNmzYICeffLKOI+O5o7CznrstlDcnW7duLbfffrusX7/eL7W53EcffeTnbB/mz58vffr00Tp3tT4pi4hYKaYwLPvXi5FhXWrLyB6pcuueteX6Tilya+cUGdm9jjzQs46c1ixBYgrCEmvSUYY87+paW0aYa6TBHZIltihsCDIsnWpFy0171DL5qTKiW8n1kd3T5P96psr9PWrLpYa0d08wnrEpS3mb+G44WC5snSRntEyWevHVJwX8888/csopp8ibb74pnTp1kiOPPFJ+//13Ofvss2XWrFl+qS3x888/y9dffy3z5s2Tb775xs8tH3Xr1pXTTjtNzjjjDNlvv/20zlNPPVWmTJnil9g6IHDupV2rV6+WW265RR5++OFtknMkyM7Olt69e8tFF10k+fn5fu6uiV69eml/2HTUUUeZiCZKmjZtukU+xi8tLc2/y6E6Yedkv379JCUlRZ588kk588wzZc2aNX6J6sO6devkqquukhkzZsjhhx8uJ554oiQmGk9vVwWyQGWR+dR874slG72i4mIvbNKKjYXevDX53uL1+V5eUdjbUFjkDfpsuZcydq7X6un53stzckzZsH+35y0z5TtPWOAlm+v9313iLVpXoPnFJmVtKPRWmusldYe9VXlF3vDpq/SZtUx5m5qb7/dOW6Xlqxvjx4/3Gjdu7D3xxBNesWkH2LRpkzdu3Djv119/1e9BGK/RM16u3kMaMGCAli+LZcuWeT169PD69u3r5ebm+rmeZyaJ17JlS8+Qgrd27Vo/998YO3as1v/hhx/6OZ63aNEiz5CLZ6y3Z7xtP3f7YUhb2zNw4EDPeOV+7n8HjKHT/jQL0M+pPjBujB/jyHjuKOys524L5c3JgoICb9CgQZo/adIkzSuv3LaQk5PjTZgwwf+2Gd9//71nDKc3fPhwP2fXRkSea5fUGOmVniDRxjtYkFMgD09bJUM+zpIbP10uw7/Jlkmz18mU2TkSZcL29rWjpVPdOFM2JJ6qqSJ14qLkqCYJGtqHjAdrES725K4vV8jQL5bLS7+vVd21rvFIj2qaJJkJJXIEqbZXLAM71JLzOtSWRknVv3m1ePFi/ZuZmakeEEhISFCZoH379vo9CLzVzz77TNq0aSN77rmnTJ06Vb799lv/6rbRtm1b6dKliyxcuFBWrFjh51YOeMGERqtWrYr43q0BD++9996Txx9/XOLj3ekLh8ojNjZWZTTw448/6t9IgXd67bXXyg8//ODnbIYhXSkqKtK19t+AiMg1PT5KN6hAQnTIvGix/LJ0o7w/Z508OX2VDP9ihawxpJtQHJbOdWOlZWqchqzLcouUQOOio+TIzGRJNiQZxc6WH84aH1E+mJsjk37LkWdmrJLF60p0xGYpMZJqOBSyjjeMe2mXOjKwc6qkJ8VI1BZbYdUDNBxgPFcdZAuINjr632T+zjvvaLlzzjlHLr30Un3X1157TSdAZUC5jRs3KoHXqlXLz60c7L2EYnXq1NE8q+2iRQaB7hXUHbkPbczqynvttZe2G9g60PnQ+4Ka399//y3XXHON3kM4WNaQoP+iAyOpUAZdGImFfrHgHu7lOkbsggsuKNXNMBIXX3yxXiMdcsghqklXB6h7yJAhpe980kknqX4XBFrh3XffLcb7LW0D8gj9FQTlLr/8cr1O3wXbGOw/+stEM7LbbrupTlj2edR7zz33SLt27bQu+gNiQfffFqjrrLPOKn0f+vrpp5/WPYAgcBjOP/98rdu+E4n2vfTSS/qZ+RHEG2+8oW1+/vnn/ZzKw+qtDRs21L9lQXvOPffccseB+XPXXXfJ22+/La+//nppW9FraSPrDFx44YXax3beTJs2rVSHJR1wwAE678LhzQ6cXQNICg899JA+nz7jWXbMkBysJEg9tIX+ZJzsvOfap59+6te6dURErnOXb5RCQ5KgUa1YGdKrgTzVZze5pFuaNDWe5NLVeeqRZiRES4/GiZJgmDhsFtZT07JlkyHHkPmvRWqsdKsfp+QaZdec4cni/LAU5hVKuKDY3Le5WVHmvrjiYrmyR5pc0bO+1EuM8a9UP1jM+++/vy6W/v37y59//ulf+TfYvGISpqeny2GHHSb77ruvCvom/JE//vjDL1UxGLDHHntMNVsWVySaIITOvZAli79Zs2b+lcrh0UcfVW2MCXnjjTcqOW/L42bijxgxQho0aKDEvGTJEp1wS5cu1esQKPovOrDd2GjevLlcdtll8u6772qZRYsWKSnR/ltvvVUX1k8//aSTG2MxdOhQNVjnnXeeTnQ0X/pne4H+N3DgQDUgjOt1112nxAc5obMD2gTRjxs3TokIHRFdHLIIGgf64f7771ddl/biTdFW3i0I8umLgw8+WN+Z9+S5GCvA8yAZFn3Hjh31eQcddJASHrq/bVd5oC48RLT+4447Tu9NTU3VPr3ttttKNzkhaa5RjjZSL6APGDs2VImcXnzxxdJxpF04FxDR0UcfrXmVAX3E/gR9gzMCCZWFJakvvvhC241uakJ9bRvPZQ5SBg84qJtDakSOGGXAX6u3Ml+YRwsWLFDdl3eDEIk2WSPBsQPMfQiU5yclJakRsZg0aZK88sorMmzYMJ2D9MOECRPkzjvv1HfC8NG+QYMGyV9//eXftRWYh1caGXfP9J6dvlJ11GJVSj3PeKReXmHYW7KuwLvv8yyv2b0zvROf/dNbui7fXC325mVv8vYe84f3c9YGLZ+bH/bun5rlnfXyX97itfmqbVLf0I/+8UZNXer9uGS96rlg5tJc78gn53i3f/iPty6/RJ+taZiF6BnCUp2IZBaIZxaEf3UzpkyZotfRXM1k1rxRo0Zp3s0331yq2QKrudo6g6l79+7eb7/95pcsH1a3CiYz4VTfys7O9kttfo6ZrH5OCbgfLRJNEhgPTrWrqVOn6ndg9dWy+rDV/HieMSZaBhgvSdvxySef6PdZs2Z5bdu21b5DewPoz+jQxx57rOpoZvF5u+++u2c8kFJtmr4j0cdmcXh77LGHZ4yaXqMPbV2VQUWaq23rxIkT/ZzN7WXMgCE1LWMIc4tn8pl22H4oWw/aInlWU7T9RzvQ1AH3Myd4d/oA8Fz6dPLkyVvMFRMO6712XpXVXOlH+hO93Xh8/l2eZ4yTN3r0aG0LcxPQJp5hPC39Tn3Ua8cD8C7cwxwBlOUe+70ilDcnbTLkVNqHthxt4V3QS40x1Wu2X4Jzs6I5DKjD1gUWLlzoGe/TO+GEE3TdWjC3TPTmGafDmz59uubZdrBmys4p+0zjCJSOBX1lPGTtizFjxpTmG/LVegyp6/etISLPtWBjkdzz3mIZ8fFSmZ+dL3nG+ywWE+4bTzMjJVYG7ddQhh2WIT0zkiTdeLYYjR8W5krO+nz5aFaOWpGkuCjp3jhBGiaaMNu3KuiyQ819gw9Mly6NkzXk31gQlq/mrZODmyfLVfs2lJS4WC1b08ADGD9+vHo5eF6EWlhEG4IALOOrr76q1ozd/piYEm/aTFqpXbu2apZWvw0ieFqAUO25555TK47nUhnYnVkSnjKhU7du3Uo9w8qC3VysNp4bYTDWeFv6qplksvfee/vfRMMqgAcL8NbxPsxEV88DIHfg/RH20X+GXPS6WRzqNRPO0Xck2kPYh5eJV4G8gDdr66oqqINTHEQY9JkFnhH9PnPmTB1PohVCWTyW4DP5bPV3gKdDdGOBLAPKhvx4hGjqgPvpP7xWNHJDMvLll1+qdki0FKyfUPXQQw9VL872bRA8h76mH1u0aOHnmjUUHa0eHO9AqMt7A8agXr16+pl+xiunDfYkCM+ircxnvG+8tUaNGun4VAbBOYnnTD/iPZc3bowx3ruVDAxh6ZqoKoxTIoYY9TQP69aCd+aECHwTPALG+yPTVDSnuG7Hgs9479TFO9p8PGg8ZiKfbSEiciXkz1lfIOM+XSr9n5wtt7+10JDmGlmzoVC3rCDZkzunadLGmLTJkGRm7ThZv6lksCHOZmnx0qNJEmqAgntzTbncvLCsNgT+V/YmeWXGSiks8uSM7vWlXvL2LbBIQdtZQB9//LFqU4RhhAcWhD+EWgwek4qFQ2KiQjAM+FtvveWX3gwWG2RG6MRfwjImXGVB2Mq9JIiV87eQHJO6bFi6NVgtlI04wmCMAmFVVcD7AqsToofZ/iChKbKQjTehkxody3gregwNguD5Vhsj1CUsg7AIqVk0a9eu1WtVBc/m2BpjYqKE0nZB9DYMJfTnOoRb1SNblsy2BuYLRA7JQpwQXVmt3Roa2oS0UBbIUdTRoUMHP2czIAL6mPflvU0UoMYAI849hLLMS+QH+578ZV6xOcvYMK8JremLyiA4J5GAjBdaSkRlQT5GAENL6A1RISVVFRAc70s/loXti6B+zXfyKwtrOKuKCMm1SOrHh6Sp8VJX5eTJy98ul+tena8epvGatUxKfIy0aVhy9owu7te1njw2oJVcfXBjzQONDdl2bZosMSFDtabDsWDPfJklj3yyRIa9sUAGvzJf5i3fJH06pUmT1B23Y41+ExwMJjmThwGx5MUiQq80YcMWVtsmiCoUCqknUNGPCqoLEKsJZ5QYWBwVISjsW0CsLDR0pDlz5sgVV1xRSpRVgQmV9O+zzz6r+l0w0TbrndOXPAuPAm0WI4OnBaxR4wQG0QKnL2666aZKEVdFwCPHO6Kv2MEu2zYiFLweyhBt1MT5zLKgD+rXr6+nRPBig+BdIfzgRmUQ5EHA5en6ECjzknfhvRmTF154Qb1zSA/jj86JHk4dFtZ7Zf7jlR1//PEVEuT2giiLCIi2ordef/31/pXIwfvxvvRjWdi+sPNyZyAico0zdHnGXg1k2PHN5Ky9Gyr59W5XR5qkmSuBsbA7+ZsKwxIbHSVNzfUUQ8p4pxzLSoqLlub1EiQtuWSAIeZHDbGO+eAfeXfmKmleN07O6dVIWtVPLPVudwTw3rC+waNNkCpegJ2M9vgVxDBmzJhSq20TgjkhFeW29aOC7QWbHtOnT9cFwWK1i5Z8u3HC58mTJ+tni9GjR+u7Un7w4MEaTuJN4F1WFZ07d9ZnE1YGvU08MDxrPFXCOMJ9yN56LbTBtpf+416IBY+XnXjGwoawVQHjBnngKeLtBw0NbYK8CwoKVDLgWWzuBMvwGY+zOgFBQnJsSDKXgvV/8MEHKivts88+W2y2WLD5iZzAZmowNIVIxo4dq++ArMJ70294iDgJ7JJDQvZ7EHivdieeSM3KGdUNPHHWDEROZMJzyxp+HBPajoGxRrWiMcCxQO55/vnnt5hzOAmjRo1SA0F0uLMQEbnWTwxJ/70byBEd68oNx2TKHSe2kNtOaC6dmyTrvxWQz/EqH3z+/I/V8vLXWfLG9BXy+vfL5MWvsqSIf3/AID46JHEmWUSZDowLFUvv9qly2SEZ0iZ9x//yAq9p7ty5qmPiOTHR2HVksaNTAqw7g4c2x855WTAxOJYF4THoluSqA0899ZRqViQ8ZH6hxALr27evkhV6L0dKCHfxSPHK8AyZhEFAZoSGkB5E+/7772uYXJ6nVFngGdFXhJX0H5/pI0JT5At0PxbO8OHD9ZdUkKyVDAhxWQhosHg1Dz74oJbDcEAmkUgn5YG+QvulTo7pcCSLnXAIjlARL4+xZvwhKFuG9kPMQWNbXeD0Am3CmGPcGFNkEPIJcyEfa9CDYIwJ3/GwOYnAaRHu5Vd1GAaiJ3vWlBAcz+3XX3/VUwnIW+XNR4gLomfOsidQU14r78NYYsiJ6lhrEydOVC+T+YAzwvsxlzEwrCPmEdEjZFsWnJKhL5gnzBuOIDJunN5B+73hhht0Lu4sRESuYjzRb+fkyOwlG2RjflhqxUcrSa7KLZTv5+bIx79k63GspWvy5PfF6+XVb7LkgbcWyD2T5st9U/6Wxz5YLL8szNXrwZS1tkBCxnvtvUeaXHlkE2mXgR67I33WEuB9Ea5i+SEoEoOGPolOaY9f4bVSpiJAFhwVgVTKOwxdVbD5xQIicUSJ9uIpckQKkmBRQKosVtoJUVx55ZW6MRfEHXfcoZ4KISMWnne777771IusKng2i4H24HHRZ5wHRL/jiAuLnEXDBiEeCeTBoof8kVdYdJw/ZIOHNqEToslCHNu72FmwyBUciUKPRNdFShk5cqQes2HRUwbjBdnZMrQfAoz0DHJlEHze7NmzdUyZK5zzRa6xG4blwWrm9BthNvfSp0QC9957r84FgLFi4wzPnH7HyGBEIaugweDIIfMFgi5Py60uJCcnqwwAmWLAkM7Y/MK4QewQIZ+JJpgrODKff/65jgH55QFDAkEjcxGZMG54s/QJ87GmDEVlENG/ipV58WfSsE68ZDZMkIy0eA3raXz2ukKZvwI3vliamVAerM8rklmGhFev58wdL+gJjmrP1qmSmrSlRY4y+bEx0TKoT6a0bmSIVTtkZ9Crg8P/BpCzMPB4wRgtvDwiLowWhhTjimFjrT3wwANKzEQ6wRMhDtuHiMi16QWf6F+4L8YwJXoqYFe/kB8JmAvKiwbUStVlKw+WAXzv3bWeXHNiS0PaSTJj7hod8PZNU6RO0o49JeDg8L8CwnwiGMJkPHYLNtCQuOLi4tSb5x/qgYSRX/Butyd6cdgSEckC/KJKf1VVLFJUWCyb8sKa8FjJ90xoXxwuSXyGWe09NgXLiPl8UMc0ubpPc2mVnizL1+TLrEW5Mj9ro2St3rX/RSYHh10ZnNFEf+c4IZuXODpseqFlcnrA/kIJCQINFK3XEWv1IjJyNWRYXSlkBnu/9mlyzUktpE1GLfVgE+Oj9R/KTk4Ime/mg4ODQ5WAvkmoD8mycYcOjkTAuWLy2fhiDwHdEw2XM8AO1YuIZAEHBwcHh8ohstMCDg4ODg6VgiNXBwcHhxqAI1cHBweHGoAjVwcHB4dqh8h/AManCyuUPafxAAAAAElFTkSuQmCC;" parent="1" vertex="1">
          <mxGeometry x="1236" y="-1350" width="343" height="36" as="geometry" />
        </mxCell>
        <mxCell id="mDsZhQNBarCHwUdvmZXA-10" value="" style="strokeColor=#0070F2;shadow=0;strokeWidth=2;rounded=1;absoluteArcSize=1;arcSize=20;" parent="1" vertex="1">
          <mxGeometry x="640" y="532" width="480" height="320" as="geometry" />
        </mxCell>
        <mxCell id="mDsZhQNBarCHwUdvmZXA-11" value="SAP SOLMAN" style="shape=image;editableCssRules=.*;part=1;verticalLabelPosition=bottom;labelBackgroundColor=none;verticalAlign=top;aspect=fixed;imageAspect=0;image=data:image/svg+xml,PHN2ZyB4bWxucz0iaHR0cDovL3d3dy53My5vcmcvMjAwMC9zdmciIHZpZXdCb3g9Ii0wLjUgLTAuNSAyNi4wODQgMjgiIGhlaWdodD0iMjgiIHdpZHRoPSIyNi4wODQiPiYjeGE7CSAgPHN0eWxlIHR5cGU9InRleHQvY3NzIj4uc3QwIHsgc3RvcC1jb2xvcjogcmdiKDM1LCAxNDksIDI1NSk7IH0gLnN0MSB7IHN0b3AtY29sb3I6IHJnYigwLCA4NywgMjEwKTsgfSA8L3N0eWxlPiYjeGE7CTxkZWZzPiYjeGE7CQk8bGluZWFyR3JhZGllbnQgZ3JhZGllbnRVbml0cz0idXNlclNwYWNlT25Vc2UiIHkyPSIyMy43OTIiIHgyPSIyMy4yNTYiIHkxPSIzLjQ3NCIgeDE9IjEuODY1IiBpZD0iQSI+JiN4YTsJCQk8c3RvcCBjbGFzcz0ic3QwIi8+JiN4YTsJCQk8c3RvcCBjbGFzcz0ic3QxIiBvZmZzZXQ9IjEiLz4mI3hhOwkJPC9saW5lYXJHcmFkaWVudD4mI3hhOwk8L2RlZnM+JiN4YTsJPHBhdGggZmlsbD0idXJsKCNBKSIgZD0iTTI0LjEwNCA4LjEwMmE0Ljk3IDQuOTcgMCAwIDEgMS4wNDIgMS41MzRjLjI5MS41NDkuNDM4IDEuMTUyLjQzOCAxLjgxdjExLjcyNWMwIDEuMjQxLS40MjEgMi4yNjUtMS4yNjIgMy4wNjgtLjgzOC44NDItMS44OCAxLjI2MS0zLjEyMSAxLjI2MUgzLjgyN2E0LjE4IDQuMTggMCAwIDEtMy4wNjgtMS4yNjFDLS4wODEgMjUuNDM2LS41IDI0LjQxMi0uNSAyMy4xNzFWMTEuNDQ0YzAtMS4zODcuNDkxLTIuNTAyIDEuNDc4LTMuMzQyTDkuNjM4LjU5NkE0LjUgNC41IDAgMCAxIDEyLjU5NC0uNSA0LjA5IDQuMDkgMCAwIDEgMTUuNDQ0LjU5NnptLTkuMzcgNy44MzZIMTAuMzV2OC43MTNoNC4zODR6bTcuNzgyLTQuNDk0YzAtLjQ3My0uMTQ3LS44NTktLjQzOC0xLjE1bC04LjY1OC03LjUwNmMtLjYyMS0uNDczLTEuMjYxLS40NzMtMS45MTggMGwtOC42NTUgNy41MDZjLS4yOTMuMjkzLS40MzguNjc3LS40MzggMS4xNTJ2MTEuNzI1YzAgLjQzOC4xMjguODAzLjM4NCAxLjA5NmExLjUzIDEuNTMgMCAwIDAgMS4wNC4zODRoMy42MTd2LTguNzEzYzAtLjgwMy4yNzQtMS40OC44MjEtMi4wMjcuNTg2LS41ODYgMS4yOC0uODc3IDIuMDgzLS44NzdoNC4zODRhMi42NiAyLjY2IDAgMCAxIDIuMDI3Ljg3N2MuNTQ5LjU0Ny44MjIgMS4yMjQuODIyIDIuMDI3djguNzEzaDMuNjE3Yy40MzggMCAuNzg0LS4xMjggMS4wNC0uMzg0LjE0NC0uMTQzLjI1Ny0uMzE0LjMzMy0uNTAzcy4xMTEtLjM5LjEwNi0uNTkzeiIvPiYjeGE7PC9zdmc+;labelPosition=center;align=left;fontStyle=1;spacingLeft=0;fontSize=16;fontColor=#1D2D3E;html=1;" parent="mDsZhQNBarCHwUdvmZXA-10" vertex="1">
          <mxGeometry y="0.5" width="28" height="30" relative="1" as="geometry">
            <mxPoint x="15" y="-90" as="offset" />
          </mxGeometry>
        </mxCell>
        <mxCell id="-TzDsh0TMZtZClCxq-xT-4" value="" style="group" parent="mDsZhQNBarCHwUdvmZXA-10" vertex="1" connectable="0">
          <mxGeometry x="160" y="53" width="320" height="267" as="geometry" />
        </mxCell>
        <mxCell id="-TzDsh0TMZtZClCxq-xT-1" value="" style="strokeColor=#9673a6;shadow=0;strokeWidth=2;rounded=1;absoluteArcSize=1;arcSize=20;fillColor=#e1d5e7;" parent="-TzDsh0TMZtZClCxq-xT-4" vertex="1">
          <mxGeometry width="320" height="267" as="geometry" />
        </mxCell>
        <mxCell id="bLrstx7oAV7xhixI29AM-44" value="DP Agent DEV" style="rounded=0;whiteSpace=wrap;html=1;fillColor=#b0e3e6;strokeColor=#0e8088;" parent="-TzDsh0TMZtZClCxq-xT-4" vertex="1">
          <mxGeometry x="83.47826086956522" y="99.80714285714285" width="139.1304347826087" height="25.428571428571427" as="geometry" />
        </mxCell>
        <mxCell id="bLrstx7oAV7xhixI29AM-93" value="JDBC" style="rounded=1;whiteSpace=wrap;html=1;strokeColor=#475E75;strokeWidth=1.5;arcSize=16;fillColor=#FFFFFF;perimeterSpacing=0;absoluteArcSize=1;fontColor=#475E75;fontSize=10;fontStyle=1" parent="-TzDsh0TMZtZClCxq-xT-4" vertex="1">
          <mxGeometry x="117.56521739130434" y="146.85" width="70.95652173913042" height="20.34285714285714" as="geometry" />
        </mxCell>
        <mxCell id="-TzDsh0TMZtZClCxq-xT-3" value="" style="sketch=0;outlineConnect=0;fontColor=#232F3E;gradientColor=none;fillColor=#01A88D;strokeColor=none;dashed=0;verticalLabelPosition=bottom;verticalAlign=top;align=center;html=1;fontSize=12;fontStyle=0;aspect=fixed;shape=mxgraph.aws4.application_discovery_service_aws_discovery_agent;" parent="-TzDsh0TMZtZClCxq-xT-4" vertex="1">
          <mxGeometry x="41.73913043478261" y="19.07142857142857" width="24.570202090592336" height="19.846689895470384" as="geometry" />
        </mxCell>
        <mxCell id="mDsZhQNBarCHwUdvmZXA-14" value="" style="strokeColor=#0070F2;shadow=0;strokeWidth=2;rounded=1;absoluteArcSize=1;arcSize=20;" parent="1" vertex="1">
          <mxGeometry x="1218" y="517" width="480" height="320" as="geometry" />
        </mxCell>
        <mxCell id="mDsZhQNBarCHwUdvmZXA-15" value="SAP SOLMAN" style="shape=image;editableCssRules=.*;part=1;verticalLabelPosition=bottom;labelBackgroundColor=none;verticalAlign=top;aspect=fixed;imageAspect=0;image=data:image/svg+xml,PHN2ZyB4bWxucz0iaHR0cDovL3d3dy53My5vcmcvMjAwMC9zdmciIHZpZXdCb3g9Ii0wLjUgLTAuNSAyNi4wODQgMjgiIGhlaWdodD0iMjgiIHdpZHRoPSIyNi4wODQiPiYjeGE7CSAgPHN0eWxlIHR5cGU9InRleHQvY3NzIj4uc3QwIHsgc3RvcC1jb2xvcjogcmdiKDM1LCAxNDksIDI1NSk7IH0gLnN0MSB7IHN0b3AtY29sb3I6IHJnYigwLCA4NywgMjEwKTsgfSA8L3N0eWxlPiYjeGE7CTxkZWZzPiYjeGE7CQk8bGluZWFyR3JhZGllbnQgZ3JhZGllbnRVbml0cz0idXNlclNwYWNlT25Vc2UiIHkyPSIyMy43OTIiIHgyPSIyMy4yNTYiIHkxPSIzLjQ3NCIgeDE9IjEuODY1IiBpZD0iQSI+JiN4YTsJCQk8c3RvcCBjbGFzcz0ic3QwIi8+JiN4YTsJCQk8c3RvcCBjbGFzcz0ic3QxIiBvZmZzZXQ9IjEiLz4mI3hhOwkJPC9saW5lYXJHcmFkaWVudD4mI3hhOwk8L2RlZnM+JiN4YTsJPHBhdGggZmlsbD0idXJsKCNBKSIgZD0iTTI0LjEwNCA4LjEwMmE0Ljk3IDQuOTcgMCAwIDEgMS4wNDIgMS41MzRjLjI5MS41NDkuNDM4IDEuMTUyLjQzOCAxLjgxdjExLjcyNWMwIDEuMjQxLS40MjEgMi4yNjUtMS4yNjIgMy4wNjgtLjgzOC44NDItMS44OCAxLjI2MS0zLjEyMSAxLjI2MUgzLjgyN2E0LjE4IDQuMTggMCAwIDEtMy4wNjgtMS4yNjFDLS4wODEgMjUuNDM2LS41IDI0LjQxMi0uNSAyMy4xNzFWMTEuNDQ0YzAtMS4zODcuNDkxLTIuNTAyIDEuNDc4LTMuMzQyTDkuNjM4LjU5NkE0LjUgNC41IDAgMCAxIDEyLjU5NC0uNSA0LjA5IDQuMDkgMCAwIDEgMTUuNDQ0LjU5NnptLTkuMzcgNy44MzZIMTAuMzV2OC43MTNoNC4zODR6bTcuNzgyLTQuNDk0YzAtLjQ3My0uMTQ3LS44NTktLjQzOC0xLjE1bC04LjY1OC03LjUwNmMtLjYyMS0uNDczLTEuMjYxLS40NzMtMS45MTggMGwtOC42NTUgNy41MDZjLS4yOTMuMjkzLS40MzguNjc3LS40MzggMS4xNTJ2MTEuNzI1YzAgLjQzOC4xMjguODAzLjM4NCAxLjA5NmExLjUzIDEuNTMgMCAwIDAgMS4wNC4zODRoMy42MTd2LTguNzEzYzAtLjgwMy4yNzQtMS40OC44MjEtMi4wMjcuNTg2LS41ODYgMS4yOC0uODc3IDIuMDgzLS44NzdoNC4zODRhMi42NiAyLjY2IDAgMCAxIDIuMDI3Ljg3N2MuNTQ5LjU0Ny44MjIgMS4yMjQuODIyIDIuMDI3djguNzEzaDMuNjE3Yy40MzggMCAuNzg0LS4xMjggMS4wNC0uMzg0LjE0NC0uMTQzLjI1Ny0uMzE0LjMzMy0uNTAzcy4xMTEtLjM5LjEwNi0uNTkzeiIvPiYjeGE7PC9zdmc+;labelPosition=center;align=left;fontStyle=1;spacingLeft=0;fontSize=16;fontColor=#1D2D3E;html=1;" parent="mDsZhQNBarCHwUdvmZXA-14" vertex="1">
          <mxGeometry y="0.5" width="28" height="30" relative="1" as="geometry">
            <mxPoint x="15" y="-90" as="offset" />
          </mxGeometry>
        </mxCell>
        <mxCell id="mDsZhQNBarCHwUdvmZXA-16" value="" style="group" parent="mDsZhQNBarCHwUdvmZXA-14" vertex="1" connectable="0">
          <mxGeometry x="160" y="53" width="320" height="267" as="geometry" />
        </mxCell>
        <mxCell id="mDsZhQNBarCHwUdvmZXA-18" value="DP Agent DEV" style="rounded=0;whiteSpace=wrap;html=1;fillColor=#b0e3e6;strokeColor=#0e8088;" parent="mDsZhQNBarCHwUdvmZXA-16" vertex="1">
          <mxGeometry x="83.47826086956522" y="99.80714285714285" width="139.1304347826087" height="25.428571428571427" as="geometry" />
        </mxCell>
        <mxCell id="mDsZhQNBarCHwUdvmZXA-19" value="JDBC" style="rounded=1;whiteSpace=wrap;html=1;strokeColor=#475E75;strokeWidth=1.5;arcSize=16;fillColor=#FFFFFF;perimeterSpacing=0;absoluteArcSize=1;fontColor=#475E75;fontSize=10;fontStyle=1" parent="mDsZhQNBarCHwUdvmZXA-16" vertex="1">
          <mxGeometry x="117.56521739130434" y="146.85" width="70.95652173913042" height="20.34285714285714" as="geometry" />
        </mxCell>
        <mxCell id="mDsZhQNBarCHwUdvmZXA-20" value="" style="sketch=0;outlineConnect=0;fontColor=#232F3E;gradientColor=none;fillColor=#01A88D;strokeColor=none;dashed=0;verticalLabelPosition=bottom;verticalAlign=top;align=center;html=1;fontSize=12;fontStyle=0;aspect=fixed;shape=mxgraph.aws4.application_discovery_service_aws_discovery_agent;" parent="mDsZhQNBarCHwUdvmZXA-16" vertex="1">
          <mxGeometry x="41.73913043478261" y="19.07142857142857" width="24.570202090592336" height="19.846689895470384" as="geometry" />
        </mxCell>
        <mxCell id="-TzDsh0TMZtZClCxq-xT-5" value="" style="group;fillColor=#dae8fc;strokeColor=#6c8ebf;container=0;" parent="mDsZhQNBarCHwUdvmZXA-14" vertex="1" connectable="0">
          <mxGeometry x="212" y="93" width="230" height="210" as="geometry" />
        </mxCell>
        <mxCell id="-TzDsh0TMZtZClCxq-xT-7" value="DP Agent PRD" style="rounded=0;whiteSpace=wrap;html=1;fillColor=#b0e3e6;strokeColor=#0e8088;" parent="1" vertex="1">
          <mxGeometry x="1940" y="148.5" width="100" height="20" as="geometry" />
        </mxCell>
        <mxCell id="-TzDsh0TMZtZClCxq-xT-8" value="JDBC" style="rounded=1;whiteSpace=wrap;html=1;strokeColor=#475E75;strokeWidth=1.5;arcSize=16;fillColor=#FFFFFF;perimeterSpacing=0;absoluteArcSize=1;fontColor=#475E75;fontSize=10;fontStyle=1" parent="1" vertex="1">
          <mxGeometry x="1964.5" y="185.5" width="51" height="16" as="geometry" />
        </mxCell>
        <mxCell id="-TzDsh0TMZtZClCxq-xT-9" value="" style="sketch=0;outlineConnect=0;fontColor=#232F3E;gradientColor=none;fillColor=#01A88D;strokeColor=none;dashed=0;verticalLabelPosition=bottom;verticalAlign=top;align=center;html=1;fontSize=12;fontStyle=0;aspect=fixed;shape=mxgraph.aws4.application_discovery_service_aws_discovery_agent;" parent="1" vertex="1">
          <mxGeometry x="1910" y="85" width="24.76" height="20" as="geometry" />
        </mxCell>
        <mxCell id="LvJ9tpQkyg0zfJwTrD7n-1" value="" style="ellipse;shape=cloud;whiteSpace=wrap;html=1;" parent="1" vertex="1">
          <mxGeometry x="-2230" y="-1350" width="210" height="170" as="geometry" />
        </mxCell>
        <mxCell id="LvJ9tpQkyg0zfJwTrD7n-2" value="AZURE Public" style="ellipse;shape=cloud;whiteSpace=wrap;html=1;" parent="1" vertex="1">
          <mxGeometry x="-2230" y="-1060" width="240" height="110" as="geometry" />
        </mxCell>
        <mxCell id="LvJ9tpQkyg0zfJwTrD7n-4" value="AZURE PRIVATE" style="ellipse;shape=cloud;whiteSpace=wrap;html=1;" parent="1" vertex="1">
          <mxGeometry x="-2350" y="-920" width="260" height="130" as="geometry" />
        </mxCell>
        <mxCell id="LvJ9tpQkyg0zfJwTrD7n-5" value="" style="ellipse;shape=cloud;whiteSpace=wrap;html=1;" parent="1" vertex="1">
          <mxGeometry x="-1340" y="-1389" width="290" height="220" as="geometry" />
        </mxCell>
        <mxCell id="LvJ9tpQkyg0zfJwTrD7n-6" value="" style="ellipse;shape=cloud;whiteSpace=wrap;html=1;" parent="1" vertex="1">
          <mxGeometry x="-1900" y="-1050" width="570" height="186" as="geometry" />
        </mxCell>
        <mxCell id="c060zSU2xn9-Ug7hkql3-1" value="" style="shape=image;verticalLabelPosition=bottom;labelBackgroundColor=default;verticalAlign=top;aspect=fixed;imageAspect=0;image=data:image/png,iVBORw0KGgoAAAANSUhEUgAAARMAAAC3CAMAAAAGjUrGAAAAtFBMVEX/////AAAAAAD/2tr/HBz/hIT/m5v/6en/x8f/dXX/R0f/rq7/8vL/urr/+Pj/Vlb/X1++vr55eXnW1tazs7OBgYHOzs5oaGhTU1McHBzl5eU9PT319fUqKiojIyOoqKidnZ3/0dH/bm7s7OyJiYnf39+amppiYmIUFBTJyckyMjJwcHD/aGj/PDz/qKj/2Nj/kpJGRkb/Ly//f3//lZX/Tk7/vb3/EhL/4+P/MzP/oqJYWFjv0YNeAAAFpElEQVR4nO2aa0OiTBiGYSoPWZkglkaLppVpB6212nf///96h0F0mGcMBzWSva8PuyMM8MzFnMOyAAAAAAAAAAAAAAAAAAAAAAAAAAAAAAAAAAAAO6B3mncEP4yDic15rOQdx4+hXDq0Y6q9vKP5Cby/2kmO8o4of95slbwjypNP8e+R3snJZ56h5UPl0f4tErGTw1nCSdl+ej7JM8DvplcNy14S6chJ9YBXjeeEE86sdpZnmN/HS1wzZCdRSzlUnHDO33ML9Lv4nHws+g3ZyYFIa5xwboo8bSmXEuPuuk44bwWdtjw/KeOLgRPOUTm3yHeHWkhDJ3ah1kPzsSOLkw8pe+SkEONz5caOpCwKN/nsrevkzaodJ53Mnp73fHx+ETN32cnRC09W1nVS5amT//5ITs55qr7XzSh6yZKTmUgaObGsU8WJbe9zC6qrTo5F0tBJDU5EEk7gBE7gJAmcUOCEAicUOKHACQVOKHBCgRMKnFDghAInFDihwAkFTihwQoETSn1ZSDiZEzkpiSJsxUnltSBOuIra2cZO3q1KdX67QjjhnG/qRLrXXjuZ2QobOJHZZyel3Tip7/ef0XvJ71+34KQQH/5VbrbnpEAfiJ6eb8PJa6lY32+d1Waqkxvxylc4OVWdfEyK+GX1yfOT/SRSFalr0DnpxRORhRPxKU8xKdfEf7ETzmOdOJksz0ZOekX+QDZGcjJHdmKrTv4JXtZ1Msk50G9l0WN84eS4CBMRMyqPXzn5U5yJiBmndb2Tw4JNRMw4m38TnBh3DnIOKn/EN8GRho9CT0TM+JxXjeq/MBEBAAAAAAAAAAAAAAAAsF38hyAIGv28w/gWOo6n4LRorsaURVwH+rsMBl35d3cwIPpcx9NcHHheM3nk1vHuaL6W7mrHccZ+4tqxM25oIzTBZYSmmqd/JZ/WKLNajI3k3yPGXDVPg7F7euWYPJDf65LmazLmkIMdlnxun2mfYYrGifo+RJZp0HJbwVR3PspyJf++0ju5oFc6RLOBExHaMrPPtJcaw+/6q99J4CdzhC9jGJfQ/aWrSJs6YbfSERMn4U2Xd20rtTUroZOvcwyTTwqrCu0rNnQi39HIiXXHLx5ESd5g29oSmJLqpMsfmqg53NFfzV2yOwnaiUeYORFSRWu+VAPNTKoTXR/IOvQu2Z00wn5gGYShE+GCjzX3mrAykubkgT9KOcTrqDpYbuSkad0y6XpTJ2E87NZjmkdmJM3JgLGxcqhLg97QiTAfN0hjJ/58vHxYcd4YXprhOOaemv5Lx94WrTqbOgmLHLs3diKmJbrRMCvJ+QlVfSUaa4LbHTiRxg9zJ+GLIyFtQJqTEXXS2YUTy4vHD3Mn42jZseq0MaI/8WPo+al+XksPberEuojGD3Mnoc2wmk1XnDcmrY91aCzN7fexgmk0yzd1cidcNpn29plIc9KkleKejsVqF6ObK6Q6sa7FLN/QSTBvc3yAZJ6+DKakOfGlHj1qXH1lfRLnkhpeX9flpTsRg6rvGjkJFzzRGwp7le5XRVmb1HnseFm+S9FCprqWO0p0O3dKUxKkOxEu2w0TJw9S7bjc1oCc6qQvzTF5NzEeaOfQgVxROtoNhTWciDaoX/Cv3itYTimv1W2HjKSvi8Me5bqzfKp2AyXsQdrzxW1LP1tYx0l0rdGekrQe9dVth4yEpkfXCYZKlnBlzO4bHb//cLFKSfSGxw23FYRVWLf0WMuJeAPrOumrA3Bf2XbIiGafjbzjRvK0vnq6aVnWcyLewHpOwmqh7CGJIDbeMHBZW4XWe3+wKK23unouMnnaqBp8YUWPOkO1XxywIdmfCZ0MlZHWHw3bZFutwdpD2r3viFbXG3tdN+pNV1VPN7jrNre1Yt8neLn1f9AAAAAAAAAAAAAAAAAAAAAAAAAAAAAAAAAAAADkwP/Mv3KbRMJ4aAAAAABJRU5ErkJggg==;" vertex="1" parent="1">
          <mxGeometry x="-1240" y="-1314" width="105.18" height="70" as="geometry" />
        </mxCell>
        <mxCell id="c060zSU2xn9-Ug7hkql3-5" value="" style="shape=image;verticalLabelPosition=bottom;labelBackgroundColor=default;verticalAlign=top;aspect=fixed;imageAspect=0;image=data:image/png,iVBORw0KGgoAAAANSUhEUgAABDgAAAQ4CAYAAADsEGyPAAAACXBIWXMAAA7EAAAOxAGVKw4bAAAAO3RFWHRDb21tZW50AHhyOmQ6REFGLVBfR2d6Wlk6Mzgsajo3ODQwNTAxNDExODA5Mjg0MTIsdDoyNDA0MDQxMU3OQTgAAAUDaVRYdFhNTDpjb20uYWRvYmUueG1wAAAAAAA8eDp4bXBtZXRhIHhtbG5zOng9J2Fkb2JlOm5zOm1ldGEvJz4KICAgICAgICA8cmRmOlJERiB4bWxuczpyZGY9J2h0dHA6Ly93d3cudzMub3JnLzE5OTkvMDIvMjItcmRmLXN5bnRheC1ucyMnPgoKICAgICAgICA8cmRmOkRlc2NyaXB0aW9uIHJkZjphYm91dD0nJwogICAgICAgIHhtbG5zOmRjPSdodHRwOi8vcHVybC5vcmcvZGMvZWxlbWVudHMvMS4xLyc+CiAgICAgICAgPGRjOnRpdGxlPgogICAgICAgIDxyZGY6QWx0PgogICAgICAgIDxyZGY6bGkgeG1sOmxhbmc9J3gtZGVmYXVsdCc+VHJvbklUIFNBUCBCVFAgQ3VzdG9tZXIgU3VjY2VzcyBXb3Jrc2hvcCAgIC0gMjwvcmRmOmxpPgogICAgICAgIDwvcmRmOkFsdD4KICAgICAgICA8L2RjOnRpdGxlPgogICAgICAgIDwvcmRmOkRlc2NyaXB0aW9uPgoKICAgICAgICA8cmRmOkRlc2NyaXB0aW9uIHJkZjphYm91dD0nJwogICAgICAgIHhtbG5zOkF0dHJpYj0naHR0cDovL25zLmF0dHJpYnV0aW9uLmNvbS9hZHMvMS4wLyc+CiAgICAgICAgPEF0dHJpYjpBZHM+CiAgICAgICAgPHJkZjpTZXE+CiAgICAgICAgPHJkZjpsaSByZGY6cGFyc2VUeXBlPSdSZXNvdXJjZSc+CiAgICAgICAgPEF0dHJpYjpDcmVhdGVkPjIwMjQtMDQtMDQ8L0F0dHJpYjpDcmVhdGVkPgogICAgICAgIDxBdHRyaWI6RXh0SWQ+YmQ5MTY5ODYtZGE2Ni00MTg3LWIyMmEtNTkwNjA4ZGM5NmMxPC9BdHRyaWI6RXh0SWQ+CiAgICAgICAgPEF0dHJpYjpGYklkPjUyNTI2NTkxNDE3OTU4MDwvQXR0cmliOkZiSWQ+CiAgICAgICAgPEF0dHJpYjpUb3VjaFR5cGU+MjwvQXR0cmliOlRvdWNoVHlwZT4KICAgICAgICA8L3JkZjpsaT4KICAgICAgICA8L3JkZjpTZXE+CiAgICAgICAgPC9BdHRyaWI6QWRzPgogICAgICAgIDwvcmRmOkRlc2NyaXB0aW9uPgoKICAgICAgICA8cmRmOkRlc2NyaXB0aW9uIHJkZjphYm91dD0nJwogICAgICAgIHhtbG5zOnBkZj0naHR0cDovL25zLmFkb2JlLmNvbS9wZGYvMS4zLyc+CiAgICAgICAgPHBkZjpBdXRob3I+VHJvbklUIGRvbzwvcGRmOkF1dGhvcj4KICAgICAgICA8L3JkZjpEZXNjcmlwdGlvbj4KCiAgICAgICAgPHJkZjpEZXNjcmlwdGlvbiByZGY6YWJvdXQ9JycKICAgICAgICB4bWxuczp4bXA9J2h0dHA6Ly9ucy5hZG9iZS5jb20veGFwLzEuMC8nPgogICAgICAgIDx4bXA6Q3JlYXRvclRvb2w+Q2FudmE8L3htcDpDcmVhdG9yVG9vbD4KICAgICAgICA8L3JkZjpEZXNjcmlwdGlvbj4KICAgICAgICAKICAgICAgICA8L3JkZjpSREY+CiAgICAgICAgPC94OnhtcG1ldGE+soGh+QAAkc9JREFUeJzs2DENADAMwLCWP+mC2DFFshHkzg4AAABA3P4OAAAAAHhlcAAAAAB5BgcAAACQZ3AAAAAAeQYHAAAAkGdwAAAAAHkGBwAAAJBncAAAAAB5BgcAAACQZ3AAAAAAeQYHAAAAkGdwAAAAAHkGBwAAAJBncAAAAAB5BgcAAACQZ3AAAAAAeQYHAAAAkGdwAAAAAHkGBwAAAJBncAAAAAB5BgcAAACQZ3AAAAAAeQYHAAAAkGdwAAAAAHkGBwAAAJBncAAAAAB5BgcAAACQZ3AAAAAAeQYHAAAAkGdwAAAAAHkGBwAAAJBncAAAAAB5BgcAAACQZ3AAAAAAeQYHAAAAkGdwAAAAAHkGBwAAAJBncAAAAAB5BgcAAACQZ3AAAAAAeQYHAAAAkGdwAAAAAHkGBwAAAJBncAAAAAB5BgcAAACQZ3AAAAAAeQYHAAAAkGdwAAAAAHkGBwAAAJBncAAAAAB5BgcAAACQZ3AAAAAAeQYHAAAAkGdwAAAAAHkGBwAAAJBncAAAAAB5BgcAAACQZ3AAAAAAeQYHAAAAkGdwAAAAAHkGBwAAAJBncAAAAAB5BwAA///s2AEJAAAAgKD/r9sR6AwFBwAAALAnOAAAAIA9wQEAAADsCQ4AAABgT3AAAAAAe4IDAAAA2BMcAAAAwJ7gAAAAAPYEBwAAALAnOAAAAIA9wQEAAADsCQ4AAABgT3AAAAAAe4IDAAAA2BMcAAAAwJ7gAAAAAPYEBwAAALAnOAAAAIA9wQEAAADsCQ4AAABgT3AAAAAAe4IDAAAA2BMcAAAAwJ7gAAAAAPYEBwAAALAnOAAAAIA9wQEAAADsCQ4AAABgT3AAAAAAe4IDAAAA2BMcAAAAwJ7gAAAAAPYEBwAAALAnOAAAAIA9wQEAAADsCQ4AAABgT3AAAAAAe4IDAAAA2BMcAAAAwJ7gAAAAAPYEBwAAALAnOAAAAIA9wQEAAADsCQ4AAABgT3AAAAAAe4IDAAAA2BMcAAAAwJ7gAAAAAPYEBwAAALAnOAAAAIA9wQEAAADsCQ4AAABgT3AAAAAAe4IDAAAA2BMcAAAAwJ7gAAAAAPYEBwAAALAnOAAAAIA9wQEAAADsCQ4AAABgT3AAAAAAe4IDAAAA2BMcAAAAwJ7gAAAAAPYCAAD//+zYAQkAAACAoP+v2xHoDAUHAAAAsCc4AAAAgD3BAQAAAOwJDgAAAGBPcAAAAAB7ggMAAADYExwAAADAnuAAAAAA9gQHAAAAsCc4AAAAgD3BAQAAAOwJDgAAAGBPcAAAAAB7ggMAAADYExwAAADAnuAAAAAA9gQHAAAAsCc4AAAAgD3BAQAAAOwJDgAAAGBPcAAAAAB7ggMAAADYExwAAADAnuAAAAAA9gQHAAAAsCc4AAAAgD3BAQAAAOwJDgAAAGBPcAAAAAB7ggMAAADYExwAAADAnuAAAAAA9gQHAAAAsCc4AAAAgD3BAQAAAOwJDgAAAGBPcAAAAAB7ggMAAADYExwAAADAnuAAAAAA9gQHAAAAsCc4AAAAgD3BAQAAAOwJDgAAAGBPcAAAAAB7ggMAAADYExwAAADAnuAAAAAA9gQHAAAAsCc4AAAAgD3BAQAAAOwJDgAAAGBPcAAAAAB7ggMAAADYExwAAADAnuAAAAAA9gQHAAAAsCc4AAAAgD3BAQAAAOwJDgAAAGBPcAAAAAB7ggMAAADYExwAAADAXgAAAP//7NgBCQAAAICg/6/bEegMBQcAAACwJzgAAACAPcEBAAAA7AkOAAAAYE9wAAAAAHuCAwAAANgTHAAAAMCe4AAAAAD2BAcAAACwJzgAAACAPcEBAAAA7AkOAAAAYE9wAAAAAHuCAwAAANgTHAAAAMCe4AAAAAD2BAcAAACwJzgAAACAPcEBAAAA7AkOAAAAYE9wAAAAAHuCAwAAANgTHAAAAMCe4AAAAAD2BAcAAACwJzgAAACAPcEBAAAA7AkOAAAAYE9wAAAAAHuCAwAAANgTHAAAAMCe4AAAAAD2BAcAAACwJzgAAACAPcEBAAAA7AkOAAAAYE9wAAAAAHuCAwAAANgTHAAAAMCe4AAAAAD2BAcAAACwJzgAAACAPcEBAAAA7AkOAAAAYE9wAAAAAHuCAwAAANgTHAAAAMCe4AAAAAD2BAcAAACwJzgAAACAPcEBAAAA7AkOAAAAYE9wAAAAAHuCAwAAANgTHAAAAMCe4AAAAAD2BAcAAACwJzgAAACAPcEBAAAA7AkOAAAAYE9wAAAAAHuCAwAAANgTHAAAAMCe4AAAAAD2AgAA///s3MtRVUEUheFVlin4fgVhIAIKKJhED82CVMzDTAxCBw60sIB74Z5zdnd/XwQ9/mvtFjgAAACA7gkcAAAAQPcEDgAAAKB7NQLH95/vk/zY+hkAAADAXlo+PLna+hFJ8mjrBwAAAABdKhM3kuTx1g9Ikvza+gEAAADAHlqO6sSNpErgUDgAAACgFy1HT0vFjcSJCgAAALC7knEjETgAAACA3ZSNG4nAAQAAANytdNxIqvzB4QsOAAAAqKrluHbcSCw4AAAAgJt1ETeSKgsOEw4AAACopuX4WRdxI7HgAAAAAP7XVdxIqiw4DDgAAACgipaTvuJGYsEBAAAA/NVl3EgEDgAAAOCPbuNGInAAAAAAnceNpMofHD7hAAAAgK20nDzvOm4kVQKHvgEAAABbaPnYf9xInKgAAADArIaJG4nAAQAAADMaKm4kAgcAAADMZri4kQgcAAAAMJMh40ZS5pNRv4wCAADAwlo+vRgybiQWHAAAADCDoeNGInAAAADA6IaPG4nAAQAAACObIm4kZf7g2PoBAAAAMJyW0zniRlIlcCgcAAAAcEgtpy+niRuJExUAAAAYzXRxIxE4AAAAYCRTxo1E4AAAAIBRTBs3kip/cPiCAwAAAB6i5WzeuJFYcAAAAEDvpo8bSZUFhwkHAAAA3EfL2avp40ZiwQEAAAC9Ejf+IXAAAABAf8SNa2qcqLhQAQAAgF21nIsb11lwAAAAQD/EjRsIHAAAANAHceMWNU5U3KgAAADAbVrOX4sbt6gROPQNAAAAuEnLZ3HjLk5UAAAAoC5xY0cCBwAAANQkbuxB4AAAAIB6xI09CRwAAABQi7hxD0U+GfXLKAAAACRp+fJG3LgHCw4AAACoQdx4AIEDAAAAtiduPJDAAQAAANsSNw6gyB8cWz8AAAAANtFyIW4cggUHAAAAbEPcOKAaCw4TDgAAAObScvFW3DggCw4AAABYl7ixAIEDAAAA1iNuLKTGiYoLFQAAAMbXciluLMWCAwAAAJYnbixM4AAAAIBliRsrqHGi4kYFAACAMbVcvhM3VmDBAQAAAMsQN1ZUY8FhwAEAAMBYWr6KG2uy4AAAAIDD+iZurO83AAAA///s3X9s1Pd9x/GX75fv7LvzHfiMDbbxjzMYKA0bPxVlgWzNSoCiLCSkwcGQQGhaZb+6bpombfJpWrpVijZNWiu1XZSkTaJlaFnYKrJMSpY0rKFhaTp+rPywwZCEn8E/zvadfb/2hw1xggP+cfbne3fPh3TCnI/Ty784f1/f9+fzpeAAAAAAACB7Inp4/l+bDlGIKDgAAAAAAMiOiB6e32Y6RKGyyB4cbMIBAAAAAMhpEW2vazMdopAxwQEAAAAAwNRQblgABQcAAAAAAJNHuWERFBwAAAAAAEwO5YaFUHAAAAAAADBxlBsWY5FNRk0HAAAAAABg3CJqpdywGmsUHDQcAAAAAIDcEFFrfZvpELgRS1QAAAAAABgfyg0Lo+AAAAAAAODWKDcsjoIDAAAAAICbo9zIAdbYg4MtOAAAAAAA1hTRDsqNXMAEBwAAAAAAY6PcyCHWmOBghAMAAAAAYC0R7WhoMx0C48cEBwAAAAAAn0a5kYOsMcHBAAcAAAAAwBoi2km5kYuY4AAAAAAAYBjlRg6j4AAAAAAAgHIj51FwAAAAAAAKHeVGHrDGHhxswgEAAAAAMCOinY1tpkNg6qxRcNBvAAAAAABmXkSPUG7kC5aoAAAAAAAKEeVGnqHgAAAAAAAUGsqNPETBAQAAAAAoJJQbeYo9OAAAAAAAhSKiRyk38pU1Cg4aDgAAAADA9Iro0XCb6RCYPixRAQAAAADkO8qNAmCRCQ5gmMdeJLe9SB6HTe6Rt6/dnLYixVMZxZJpxVIZDSQziqXSiiUziqWYAgIAAAAwJsqNAkHBgWkTcttV5bGrqsShuSV2VXkcKnfbFHDZFSy2KeCyKTjqbb9zagNF8dRw0RFLpkfKj4xiyYz6k2l1D6V1dTClrqG0rg4Ov311MK0rgymd7UuqPZrI0kcNAAAAwEIoNwqINQoOTr7npOpShxp8ToX9DjX6nGr0OzW/1KF5pQ7VlM78t9a1SY+ga3JFSUc0oVO9CbVHk2rvTehkb0KnR+5jQgQAAADIORHtCreZDoGZY42Cg4bD0kodNq0KFWtVyK2V5cVaHHBpUcBlOlbWNficavA5x3zfxVjqeuHRHk2ovTehU9GEDl8dUn8yPcNJAQAAANxCRLua2kyHwMyySMEBK1lZXqwV5W6tChVreblbS4P5V2ZM1ByPXXM8dt0xx33D+872JXW0e0hHu4Z0pHtQR7uG32bqAwAAADCCcqNAUXAUuOpSh9aE3FodcmtNhVvLy4vlsReZjpVTar0O1Xoduqe65FP3d0QTOjJSdlwrQN6/OmgoJQAAAFAQKDcKGAVHgSlz2bR+Xonuq/PqriqPQm676Uh569qSl821pZ+6/2RvQu99PKifXojp7Ytx/ZLSAzdxaHONlpcXm46Rdzr7kqp76YzpGHlpXZVHb9wzb1L/Np7KXF+0mslI1/6WGbkzI33m/WM8dqz3f/Y5Mp88dvTjx3zsqAyjn+9WGT7v+W6877Mf89j5NZJ7PB/f9ecd9ZibSaQz6h0a3pC7J5FWz9CoWyKtrsGUekfu7x5K60o8NY5nBQAjKDcKnDUKDib5p9WigEsba0q0qbZUays9puMUvCa/U01+px6s90qSoom0fnohrrcvxq6XHoAkLQm6KDemyXyvQ2vnePTmhZjpKPlnCq/p7hsmCJkotKqBZEbdQyn1jBQefcmMugdT6h5Kq2sore7BtLqHUtevYvZBf0rHe4ZMxwaQ3yLaTblR6KxRcCDrlgRdamn06f56r5r8Y2+cCWvwOW3aUFOiDTWfLHF560JMBy7G9ebIn30JNjItRI80+U1HyGutTT4KDmCSShxFKnE4NLfk1o8d7cOB4SuVnY4m1RH9ZPPujt6ELsSYDAEwaZQbkGSVUyM/PLFc0iHTMXJdndeplrBPW+u9+uIszvrmk/+5MqgDF2N680JMr380oO4hCo9CcKmlgWVk06gvkVbo+Q7F2RA4q9ZVefTGhmrTMZCDYqmMjncP6Uzf8NXK2qMJnexJ6N0rcfXwugfg80W0e0Gb6RCwBiY4cpzPadPOJr9awj6tDt14hQ/kh+XlxVpeXqzfWxKQJL17Oa5XPxjQax8O6O2LnIHOR5tqSyk3ppnXadPv1Hn1YnvUdBQAkjz2Ii2bXaxls288SXOqN6GDl+M6eCmun1+O6+BllnMCkES5gc+wRsHBybMJW1Ph1jcWB/RAvXeMNcvIdytDbq0MufXnvzZL/cm0/vPDAb32wYD+/Wy/zvUnTcdDFuwMszxlJrSG/XrxFAVHVvGajmkQ9jsV9jvV0ui7ft87I2XHgYsxHbwUV2cfr39AgYnoMcoNfJo1jox/wBKV8fA6bfpqg09PLCnTbSxBwec4dCWuVzr79fKZPh3tYkO3XBQstunq9kbTMQrGnOc7dIm1/1mzrsqjNzayRAUz7/xAUv99Ma53Lg1v3P3OJaY8gDxGuYExWWOCAzc1t8Shby4NaE9zmXxOm+k4sLgV5W6tKHfrL5fP1smehF7u7NPLZ/r4RS+HbGtkemMmbQ/79dThLtMx8gYDHDClqsShLfVebRm5Sln3UFqvfzQ84bj/g36dZcIDyBeUG/hcTHBY2MIyl/7ktqAeXcDBDqbu/EBSz52M6sX2qH55ddB0HNzEoXtruTzsDDrWPaQleztNx8gbTHDAqjqiCe0/16+fnBvQ/nP9puMAmBzKDdyURQqO4xQco9w+x6M/WzZLG2tKTUdBnjrSNajnT0X1/Kle9uywmCVBl45sqTMdo+As+5dOir8sWVdVQsEBy+tNpPVvnX166XSf9nX2mY4DYHwiemxhm+kQsDZrLFFhnlWStHRWsb69slwbayk2ML2+ECzWt1cOf7+9dT6mF9p79cKpqKIJLsNn2iNNZaYjFKTWJr/+6J3LpmPkB17TkQP8Tptawn61hP0aSGb0r2eGl3PuPc2mw4BFRbSHcgO3Zo0Jju8X9gRH2O/UkyvL9UCD79YPBqZJPJXRvs4+PXeyVz85y+iuKZe2N3J5WAMux1Oq+FG76Rh5YW2VR/+1qcZ0DGBS+hJp7evs1z91RJnsAKyDcgPjZo0JjgI1r9Shv/j12drTzBlbmOe2F2lrg09bG3zqGkzpmRO9eqE9qkOX2Zx0pmyqLaXcMCTktuuemlLW5WdBkUXOnQCT4XXatC3s07awT9FEWi91RPX9/+vRz3ktBEyh3MCEcEkOQ/502Swd31pHuQFLChbb9YdLg3r33lq9f998PdZcJo+Dg5bptoMNhY1qbeLznw0Z1qggT/icNu1aWKaD99bq7c01uq/OazoSUGgoNzBh1jhiKaAlKmurPHp6baUafE7TUYAJ6RlK69kTvfrusW4d7xkyHSfvBFw2de0Im45R0OKpjEI/alcfe9FMCUtUkM86ogn93eEu/ePxHg0kKfOAaUS5gUmxxiz0pt+dK2mP6RjTqbrUoafXVuo7q0MKFlvj0w5MhNtepNUVbj2xJKC1VR71JzM61kXRkS27m8u0gQ2GjXLYitTRm9AvrnA1lamo97m0k2kk5Klg8fBytm8sDsjrsOvw1UGKDiD7Ivoa5QYmxxpH2l95Iq8Ljq8vDmjf+nm6bXax6ShAVtT7nNra4NOuhWVy24t0rGtQsRRnvafiH+6Yo7mlbItkWsBl1zMnekzHyGnzvU7tXMjyS+Q3j8OmO6s8emJJQBUeu45cHVQv019ANkT0teY20yGQu9iDYxrNLXHotQ3V+u4dc1Tq4FON/FPjdejJVeX6eEdYP7izUouDLtORctLioEsrQm7TMSDpziqP6lhCOCVF1lj8CsyIEodNv/+FoM61NOrptZWq8VJUA1NAuYEp46h7muxYUKbjD9br7mpGzlEYdjeX6egD9Xprc6221HPJ44l4lLPdlrKdzUYBTMIjC8t0dlujvrM6JL+LX7GBCaLcQFbwv2+WzXbbte/L8/TMukp5nXx6UXh+o9KjvXfP1bGt9WplHf64bG+i4LCSnQv4egCYvD++bZY6tzXqm18Mmo4C5ArKDWQNR+BZdHd1qY7cX6evzOcyYsCigEvPrqtSx0MNenxxwHQcy9pU61WFxxrbIWFYg9+pNRUe0zEA5LCAy6an1lTo9EMNWl/DNC9wE5QbyCprFByZ3L89taZCr22oVmUJay+B0ep9Tn3vjjm6uD2s5jKX8Z9Vq9242oQ17VjgN/69kdM3AJKkOp9T+++p1o/vqlKF227+Z5MbN2vdKDeQddYoOHJYU5lL//tAHWOIwC1ciaf0q24uKztawGXTlgb2K7Gir4YpniYrkzGdALCelia/fvVgvXY1swQOGBHR45QbyD6LjBvk5m9DX64p1d6757HXBjAOe946r1z9WZ8uDzO9YVkBl033N3i1tyNqOkrOKSri5xwYS7DYrh+urdS2sF8Pv/6Rzg8kTUcCTIno8UVtpkMgP3FkPkmtC8r06oYayg1gHP65I6oDF2KmY1jODjaztDQ2f50cJjiAm/vNeSU6urVev82V9lCYKDcwrTg6n4QnV4X07F1VpmMAOeNbP7tkOoLlNAdcWhFym46Bm9hc51XAxQawALIvWGzXf2ys0d/eXmE6CjCTKDcw7ayxRCWHzva88KW5eoi12cC4PfnexzobTZiOYTm7m7myTC5oXeDX3x/uMh0jpxSZDgDkkD9YOkvrqkq0+dUPda6P10rktYi+TrmB6ccExwTs31hDuQFMwOVYSn/13semY1hSK8tTcsJ2vk4TlkPnLABLWFbu1i/ur9PtlVyeGnmLcgMzhoJjnF5ZX811zIEJ+tbPLmkgmTYdw3I2zvcq5GHpQy5YEXJrUdBlOgaAPDfbbdeBe+erpYkTacg7lBuYURQc4/DK+mptrvOajgHklPevxPXciR7TMSxp50KmAnIJ0zYAZsqPf2uu/mZNyHQMIFsoNzDj/h8AAP//7N17dJTlnQfwbzL3W+aSO0kISQi5CBQQqKgUcRHBG16AFoUA7u7ZUssioFB2sQvW2urZw0HXs3XX3VZXqVao27VWkVIVEOUOKjchKISE3Mk9kyvZPxAVCmFm3nfmed73/X7OeY5HjobfXDLzznee5/eToweHxBta10/OYLhBFIEfbq2CzL/bovhsJkzP9Ygug8IwZ4gXK3ayUW7o+HtPpMSyEYko8Flx98Zy0aUQKbEaC4pXiS6CjIc7OPrxXzelY3outwoSheu3x5uxs4ZjYS9nNrcfa06Gy4xJHOcYMjYZJVJu2iAPtk7LhtfKS3XSJIYbJIwcOzgk/LLn0RGJ+FtOOSCKyCMfVUv5ey2DuQV8XdGiOflebD7dJroMTejj7z6RKsanO7Hz3hzc9H+nUNXeI7ocolCtxo8YbpA4jIUv475cD54ex7nkRJFYtbsWlbwQu6xivw2jk+2iy6AIlBR44bbwLTMU3MFBpJ4CnxV7pucgL4HNjkkTGG6QcLxau8R1qQ5suDVTdBlEmlTZ3oPVe+pElyGt+YVsVqll9+Swd0oouIGDSF0ZLjPemzYQqQ45Nl4TXQHDDZICA45vyfZY8PbtWaLLINKsJdurRZcgNR5P0bYSTr8hIkEGui3YfNdAeLiTjOTEcIOkwVfJr/htJmy+cyD8NpPoUog0aWd1EK+VNosuQ1q3Z7uR7ODri5ZNynQhw8VvUIlIjKEBG7+IIxkx3CCpMOD4yptTMzHYy/ONRJH60bYq0SVIbT6bFuvCnCHcxXE17MFBFD03pjuxfnKG6DKILmC4QdKR46sowS3XfzY2BTemO4XWQKRlLx5txD6Ohb0in82E+3LZv0EPSgq8+OU+9pnpTx/HqBBF1fS8BDw+phM/3VUruhQyttV46JpVoosgupThd3DcmO7EytFJossg0qz2nnNY9jF7b/TngXx+668XRX4bruUkHCIS7LHRyZiRlyC6DDIuhhskLUMHHD6bCes5MYVIkZ/tqUNtsFd0GVKbx+kpulLCZrFEJIHXb83EmBSH6DLIeBhukNQMHXCsm5SBNKccp3SItOhkSze3619Fsd+G0bwA1ZUH2IejX3Fx7MJBFCtv3zEQA9j8mGKH4QZJz7ABx8JhAdyW7RZdBpGmLeVY2KuaX8Rv+/Um0W7CnYPYU+VK2IODKHaS7Ca8egt3I1NMMNwgTZAj8o3xtdA1ARueHZ8W27+USGe2nmnHGyc4FvZq5vI4gy6VFHjxxy9bRJchJ+YbRDH1vQFOLB+ZhKe4o5KiZzV+zHCDtMGQOzhencykm0ipBVsqRZcgvduz3Uh2mESXQVEwPS8BPhsfWyKSwy/HpWAkGyBTdDDcIE2RJODoi9l6aJgfwxJtsbphRLr0n4cacPhsB2L5u6vFVcLmorr2g/wEiH6OybjYgoNIjN9PyYTbEgfRrwFculoMN0hzJAk4YiPJbsIvxqWKLoNI01q6z2HlzhrRZUjPZzNh5mAGHHpWUsDH93LYgoNIjJwEKx4bnSy6DNKP1fjx0FWiiyAKl6ECjqevT4PHYqibTKS6VbtqUBvsEV2G9O7P54dfvRuX5kROglV0GUREX1s2KgmDvXxdIsUYbpBmGebT/ugUB6cZEClU2tSFNQfqRZehCfP4emMIfF8hItn8+4R00SWQtjHcIE2TI+CIwRGyX988IHa3h0inFm+rkuA4qPyr0GfDmBRH5Hc0acaDRT7hzzfpFhEJdUuW+/woa9GvBVxaXAw3SPPkCDiibMHQAIYlsrM0kRLvlbfhrZMcixkKfqtvHBkuC8YPcIouQyrsMUok3jPj00SXQNqzGgsZbpD2GSLgWDmGDZeIlFq4lWNhQ8WAw1jmFvLx/rY+0QUQEXISrFg4PCC6DNIOhhukG5IEHNHbZzWvyIcBLnMsbwyR7jz3aT3Hwoa4bst2I9nB1xwj+X6+F3YTIPq5J9ciItFWjU2Bi2Njua6+GG6QrkgScETPimuTRJdApGkNnb34KcfChozNRY3HbYnH3bkJossgIrpIwG7CkhG8DqZ+rcbCYatEF0GkJl0HHHfmeDDEZxNdBpGm/cvOGjR09oouQxN8NhNmDOZ4WCMq4TEVIpLQ8lFJCJzfYkZ0KYYbpEty7KPui86PXXEte28QKXHkbCf+7ROOhQ3VrHyGG0Y1NduDVIcZ1e09oksRLi5K7+lEFD6XJR7LRyVj+fYq0aWQXFbjHxlukD7pdgfHDelOjEtjZ3siJRaxsWhY5hf5RZdAAj1QwF0cQNS+syCiCC0YGoDHqttLfgofww3SNd2+2i3j7g0iRd462YI/n24VXYZmFPptGJPqEF0GCfR3xQy4iEg+Hms8X5/oAoYbpHu6DDgy3RbcleMRXQaRpi3m7o2wPMiLR8MrCtgwPMkuugwior+ydCSbjRLDDTIGXQYcPxjCc/BESqzZX4fSpi7RZWgKp6cQwGajRCSnDLcFs3h9bGQMN8gwJAk41J3n/MAQXmASRaou2IPHd9VAgrnsmllTs91IdsjRs5nEml3gg+jno+gVhz7ldyQRqe7hEYkQ/frAJWQ9xXCDjESOK3IVr4WKAzaMSOYWYaJIrfy4Gk0cCxsWNhelC1KdZkwZ6MHGUy2iSxGmj/kGkZTGpjoxLGDHZ/Udokuh2FmLRcN/IroIoliSI+BQ0Sx2sdeEmmAPvmjqQnlrN040deFMazdOt3bjdMv5f15t1GKCNR4pTjOSHWYk2k3w275adhMCdvPF//7VP9Ocunu6q+6Tug78x8GzosvQFJ/NhBkcD0vfMqfQZ+iAIy5OdAVEdCU/HBbAQx+cEV0GxcZaLBq+WHQRRLGmu098HNMnny+bu7D9TDv21gSxvzaIvTVBtHafU/Qzm7vOobmrC6WN4fWJCNhNyPNakeu1IifBihSHGX67CT6rCUkOE76T5DD0KLVFW3jRE65ZPBJHl7i/wIcF71eguUvZ6xwRkdpmF/rxyIdVCPbw9UnnGG6QYekq4Lg+3YmcBKvoMgjAprJWvHOyBRtPteBoQ6focr52tqMXZzuC2F0dvOJ/k+e1YmSyAyOT7RiR7MCIZDsGuCwxrFKMN040Y0tFm+gyNGdeMQMO+mv3DfbiN4cbRJdBRHSRBGs8vp/vxYtH+PqkYww3yNB0FXDM5DZxoV491og3Spux8VSL4h0aIp1o6sKJpi5sKG36+s8S7SaM/CrsGJZox9BEO0alOARWqb6l2zgWNlyFfhvGpjpFl0ESmlvkZ8BBqvinj6rwcVV7TP6uOABJDjPSnGakOs0Y4LIgzWVGutOCAW4zUthMWRdKivwMOPSL4QYZnhzvVCo1JLtloEedH0Qhq2zrwbMH6vDCwbOo79BvY8r6YC82l7Vic1nrRX8+eaAbUwd5cHuOB/k+m6DqlPvF7lqc5FjYsM0vZnNRurwJGS5kuy041dItupTYY5NRVR2s78QHp+XZXZfhtmCAy4xCvw2jUhz4bpoTI1McsJvYfEUrJma6kGgz6fq6zaDW4mGGG0RyBBwqXA2lOM0oDmj3A6bWHGvoxBO7avDyUWN/A7CprAWbylqweCuQ67XijpwETMpyY2KWG26LNnp5VLf34Mnd1eCnkvCVcHoK9WNOkQ9P7KoRXQZp3oVRj3KoaO1CRWsXdle3X3QNcG2KAxMy3ZiU5caETBecZm28BxrVHTkevMRdHHqyFg9/h+EGEaQJOJSbkOESXYIh1Hf0YtGWCqw72ii6FOl80dSFZw/U4dkDdQDOPyenDPJgWq4XRRKHbyu2V2r6SJEoUwd5OJmH+jWvOMCAgwxjb835JuJr9tUCACZmunFbjgcz830Y6NF/HyutuTvPy4BDPxhuEH2Lbq7Ob85yiy5B99Yfb8KC98q5pTFEWyrasKWiDSu2V2Gwz4r7BntxV64X16fL07NhX02QfQIiNI/HU+gq8rxWXJfmxI4Y9U8gksn75a14v7wVj26rxPXpTswq8GNGvhepDIalMGWQB3ZTHDp65dkdRBFhuEF0Cd3sH5yYyYAjmlZ+XIWZb59iuBGh0sYuPLWnFje8XorM/z6CpdsqsUuCDz0LP6gQXYIm+WwmzMzn9BS6Oh5jIgI+qmzHwg8qkPbCYcx4+xQ+qhT//md0dlMcbs1m7zqNY7hBdBm6CDjSnGYU+OU9AqB1s98tw8+5zVo1Fa3dWLOvFt/9XSlyf3MUj31cheONsR+l+9qxRl5kRmhWAcMNCg2fK0QX23C8CTe8Xorh647hFYP38RKNzfk1jeEG0RXIEXD0KVs3cfdG1Mz40ymsO9Ko+DHiuvz6sqkLT+yswZAXP8fkN77Am180h/X4KLFkS6Xw26/VxekpFCqfzYR787zCn7OxXH19fWrdfQQIfzyjtT6r7cCcjadR8NLn+MOJ2L330TcmZrmEPw+4IloMN4j6IUfAodA4iXoa6MnC9yuw4XiT6DIM489lrZj25kkM+vVRPLO/Dk2d0TsO9PjOalS2GXB8pQqKAjaMSeVrDoXOaMdU4sBxoRS6Yw2duOePJzHud6XYKcHRTSMpDtiRwp4oWrMWixluEPVHkoBDWYwp84QKrXrp8Fk890kdREfURlynmjvx8JYK+H51ELM3lmFbRVtIj1moKtu68dTuGuG3U6tr/jXG+rBKyk3LS4DPFg/Rz91YrT70qXXXEQDRj2es1o7KNlz32nGs3lGt2j1HVzcx0wXRjz1XyIvhBlEIJAk4lGH/DXWdbO7CvE2nRZdBANYdbcD31pci/8WjWLOvFvUdPYp/5qPbKtHew7GwkZpXHBBdAmnQ7EIGY0ShWLWjCuNfL0V1u/L3O7o6HvPWjLVYPILhBlEINB9wOM3xGOixii5DV/5+c7noEugSpY2dWLr1DJKeP4SSd8twsL4jop+zo7Id69jULWJTBnmQ7OB2XgrfHAMdU+EBFXUZsaXJh2faMOzlz3GgNii6FN1jwKEJDDeIwqD5gGMId2+o6lB9BzaXtYgug/rx8pEGDHv5c0z53y/wl9OtYf2/C95jeKXEg9dw9wZFZmyaE0UBu+gyYsKAn8ejKs6giVFtsAd/8/sT+KwuskCfQlMYsMFrM4kug66M4QZRmOQIOBQcRytkwKGq5w7USXDEkCuU9e7JFkzacAIjXzmG9ccar/iYXvDykQYcqAkKr1ury2c1YUY+R35S5OYU+oU/j2Ox4vrUu88Iwh9PketssBc3rS/Fpww5ompUskP4Y8112cVwgygCcgQcCrD/hrpiOaaU1HGgNoiZfzqFrBcO48ldNZft0xHsOYfl2yoFVKcfswoZbpAyczhemChsZzt6MXF9KU40dokuRbfGpnEymITWYgnDDaJIaD7gKDTIlt9YONnchTOtHB2qVeWt3fjn7ZVI+tUhzH23DHurvzm7/OSuGo6FVYjNRUmpTLcFN2fxvDtRuM529OKuN79EWzcbZEcDR59Lh+EGkQKaDziyEyyiS9ANhhv68T+HGzD6t8cw7rXjeP7Tevzr3hrRJWlaYcDGb7hIFSXcxUFh6hNdgCQO13dg9jtlosvQpdGpDtEl0DcYbhApJMk4gMjfvn1sjKSa86NDeSmlJzsq27Cjsk10GZrH3Ruklun5Piz4SzmCuh7VzPcRdV04kE9/ONGIp/fUYNnoFNGl6Ep2ghU+WzwaO3tFl2J0a7FkJMMNIoXkCDgUvG8nWBlwqMVvM/EaiugyHhzKgIPU4bLE477BXrxyRL/jmo041jSa4phvXGT51jOYke9DjtcquhRdKfDbsLOyXXQZRrYWSxluEKlB80dUGHCoJ8PN4z5El7otJwHJDjmyYNKHEu4IIlLkwU08qqK2IX72tBOI4QaRijQfcHismr8J0khzWZDED3JEF5l7DT+MkrpuyfboOlCOixNdAendB6dbsU7Hu6BEyPdxR4wgDDeIVKbpdIC7N9R3z2Cv6BKIpOGzmTBzCMfDkvoeKNJvs1EeUaFY+MmHZ0SXoCsFnEooAsMNoijQdsBh03T5UprOD3NEX7u/UL8fQkmsedwZRKRIeUs3NhxrFF2GbuT7bKJLMBqGG0RRoumEwMsdHKqbnO3BqBSOCyMC+CGUoqcoYMe1qfocPcwjKuqK4x16Rc/srxVdgm4UBBhwxBDDDaIokqPhQoT7Wd0WTecz0np+UhbGrvtcdBlEQhUF7BiTps8PoCSHkiI/9lbpcIwzz6ioq6+P9+kVfFjeiv01QYzkFzOKOc3x8Frj0cRRsdG2Fo+MYrhBFEWaTgj6+IYfFWPSnPiH4UmiyyASav7QRNElkM7dr+M+HESx8tKhetEl6EamjpsfS4LhBlEMaDvgEF2Ajj1/SxbG8ttrMrB5Q3k8haIryWHGHbn6a+zM7x7Uxbuzf+982Sy6BN0YwIAjmhhuEMWIpgOOc3zXj6q37s1DuotvdmQ8U3MSkMyRyRQDHENMpMyxhk6Ut3SLLkMX9Dy+WjCGG0Qx9P8AAAD//+zdd3hUZb4H8K9MyiSZZCaZFJIQIJVMSEVEirroqhQrKk0hCfIgKtb1sayu7t2m7rOum71FV+9dvdfdu64FEqQo4q4FV8HGVVBTCTUJJJlJI73cP1wLEkgy551533PO9/M85x+ekPllzrTznd/7e3UdcDDf8K2YkAD8fUkaL/TIdDhclPzlmgwHHMEcmE2kxcYa7qYiAjs4fILhBpGf6TvgYB+sz2VGWfHW0nSGHGQajmALlkzhbATyH6M93rjpB/nb9gPtskswhERbkOwSjIbhBpEEaly1eplT9A4w4PCHLKcVby9Nx/z1NTjY1iu7HCKfWp5prItNUl9hVhSe/rRJdhni8K1ZrCHwPh3B3sZu2SUYQpTVwseaOCW4m+EGkQxqBBxevpq2cSsrv3E5rfisKBPLN9dyoBcZGpenkL/NSQxDsj0Qta3GCJCHeIUkGBOOkdS0MOAQwR5sAR9rQpTg7jMZbhBJouslKm29DDj8yR5swdar0/DY3ETZpRD5hMtpxYz4MNll6JK7ux8Nxznoz1vFBtqW+AxwjQr5396mLtkl6J6d84BEYLhBJJmuA45WdnBIcdf0OHy0MhNJ4VyrScZSPNU4F5n+9h+7G/GL9xtkl6Fbq3OiZZcgDDs4SIZyd4/sEnTPHsSAQyOGG0QK0HXAAQDt7OKQ4sy4UOxd5cKidIfsUoiEKcrm8hRvlVa1oqyaOxl4K9EWiHMn2GSXIQQ7OMTivTk6VR4uU9GKHRyaMNwgUoQaMzg0fNnj6R5AOBNnKSKCLNhwRQr+uKcZ9759BM1d/bJLIvLaguQIxIVyizxvHGjrxe6jnQCAjxo6MX18qOSK9KkwKwo7DnXILkM7NnAINcQRHKPS2MnPIFrZg8fxseadEtzDcINIFbrv4Kjr4Jpv2VbnOFGzZirWFcTILoXIa6tyuDzFWxsqv+3c2MguDq8tyYyENUD3b8skGLfdHR13Nzt6teIXhl5huEGkGN1/kjrczoBDBfZgC/79wiR8UpSJcwzSZk3mEWm1YPEUbg/rrdKqb0ONsqpWiZXoW0SQBVek2WWXQaRLbnaRCsGQY0wYbhApSP8BR4cxttUzioLYUOxYnoH1V6Qg1REsuxyiUVmWydkb3mru6seOw98uq9jb1IX9BtnuVIZCA2xTzCGjYg3x7hyV5m4GHCKEB+n+0sBfGG4QKUqNGRwaPgwdbucHaRVdleHAVRkOPLG7ET97rw7HuDaWFFbM4aJe21DVgu+/hpdWeXDn9Dg5BencwhQ7YkItup4nwBUVonEIx2iwg0OMrwIOPt5GUIJ7pjPcIFKU7mPaQ20MOFR2c0EMjq7Lwx/nT2JHBynJ5bRiRnyY7DJ0q7Ty5JkbZVWcw6HFiizOgyEaq75BXpSLwA6OETHcIFKcGh0cGt6TKtzcFkwPrs+JxvU50dhQ2YKHd9bj44ZO2SURAQCKp/Ji0lsdvYN4dd/JMzfeOdQBT/cAIq1cy+2NwqlR+N2HR2WXQSrhtfuIwgP5eiNCeKCFj7dTK8G9DDeIVKf7mPbTY12yS6AxuCrDgY8KXdhyTRq3kiQlrMqJll2Cbm2qOXWnBndT8V5+bChcTqvsMrzGmREkAzsPxOCQ0VNiuEGkE4Z4NyhvZheH3ixMsePDQhdeW5yOmQlcHkByLEixIyZUjUY2PRpuecrXuExFm+t1HLxxW1OSgRfmYoQE8Ak8DIYbRDpiiIBjbxO7OPRqXnIE3l+RifdXZOK6LA56JP8qzubyFC0215x6S9jt+9v8WInxFOn4sckODpKBHRxi9A/KrkA5DDeIdMYQ7wZ7Ghlw6N3MhDD8+dJkNN2ah1+dl4hEW6DsksjgHMEWLMmMlF2Gbm2qbkXXaT4Jd/YNYlP1qQMQOr2Y0ADMS46QXYZX2MFBMkRa2Y0nAoe1noDhBpEOKfJuoO3F9IP644LqINmcIQG4f+Z43D9zPLbVtuHPXzSjtNKD4338SoHEWp7FcEOL0ioPRnrtLq3y4LI0u38KMqDCqU5sq9VfSDTEFg4f4H06klRHkOwSDKF3YBB8vAEASnDvWQw3iHRIjYBD4+voziMdYuogpcxLjsC85Ah0z5uEsqoWPLe3edgdG4i8UZyt3xkHKiir9Iz42r2xsgVY4J96jOiqDAdsgePQ0auvgJcNHIINgdebozAlSr+DeVXSOzDIxxtQgvsYbhDplSGWqLT0DGAvl6kYljVgHJa5orB1cToO3JSLB2fHY3wYl7CQ9zKdVsyI53Bbb715sB2e7oERf87d3Y8dhxlAe8saMA6Lp+hvNhEbOEgGBhxi9A6Y/gnMcINI5wwRcADAe+ziMIWJEUH4+bmJqL8lD+sXpWJhKtvfaey4Naw2pZWeUf/sxqrR/yydrFCHw0Y5g4NkyGDAIUSPuQMOhhtEBmCYgONdfktoOldlRGLLNelw316Ap+dPwnlJ4bJLIp0oZsChyem2h/2+sjH8LJ1s7sRwTIrgbAGi08l0MtwQpbVn5O48g2K4QWQQhgk49DiIjcSItFqwJi8Gb187BXXr8vDY+UmYO5FhBw1vYaodsaFqjB/So48ajuNwe++of76mpQefcytvTVbqsIuDxGFDzMj4ni+Ou6tfdgkyMNwgMhDDBBzHOvu5mwoh3haIu2bE4c3lU9ByRwFevCIVRdlOxPCClv6piBeLmmyoGHtHxsYqdnFocX2uvjqOOINDLN6dI1uYwuWqojSZL+BguEFkMGpc9Qn6NLS5uoWDA+kb9mALFmdGYnHmV9uBvnekAy+Xu/FSuWdM30CTcTisFizJ1N/QRpWUVrrH/JpdVunB/bPifVSR8SXbg3F2fCh21eklxOcluVBDQ0yNRnBZmkN2CYbQ1jNgtsdaCX48g+EGkcEYpoMDADZV81tCOrXZiTY8/sOJOLQuDx8UZeHemfFIdQTLLov8aLmL3RtaVLi7Ud7cPeb/92H9cdR19PmgIvMo1NG2xlxSQf500eQI2SUYhrvbVN0bDDeIDMpQAcf/He3EwTZ+M08jOys+DI/OnYDqG3Px2eps/OzcROTHhcoui3ysWGet/qrZUOH9jijcTUWb5VnsPCIaztXsyhPG3WWaAaMMN4gMzFABBwA8t7dJdgmkMzkxIXhoTgJ2r5qKfTfm4vEfTsQ5E2yyyyLBXM4QLmHTaL2WgIO7qWgSaQ3AooxI2WUQKcUWNA4rp7IzTxSTLN9luEFkcIYLOJ75jAEHeS/ZEYw7z4rDjhUuHL0tH0/Pn4yFqRxeZgTFOfwQrEV9Rx8+bvB+BsS22lZ09g0KrMh8CnUyINdUK/hJquKcaIQGGu6jrDQm6IJmuEFkAooMGRX3q2o9PXjnUDvOS+KWYaRNbGgg1uTHYE1+DFq6B/DCl248+1mjjgb90Xetyo2RXYKuvVTu1vxavam6BUtdbCf31pUZkXAEW9DSrXgbORMO8XifDuuO6eNll2AoB9t6jPxYK8H9DDeIzMCQsfez7OIgwRxWC9YWxGBnURYq1ubgvlnxSAwPkl0WjdLCVDu3CtaoVMPylK9trOQcDq1W6KAdn0NGxeL9ObyLk+1IjeSgcJEOthq2g4PhBpGJGDLgeOELNzzmmgRNfpQRZcUjcyfg8C15eG1pBr+R1oGiHA4X1aK5qx9vHWzX/Hu21LQKqMbcVupgNxXjfgEsB+/P4f3+oomySzAcgy5RYbhBZDKKBBxDQo+u/gE8/kGDn/8GMqN5KXb89cpUtN81DU8tmITZE8Ig+vHMQ9sRabVgCUMoTV6p8kDEuWjr6cf2WoYcWsxICEOmMxiyn1enO9hxIJr8c6raccdZcch0WrXdrXSSfS3dkH1uBR8MN4hMSJGAQ7wnPjmG7n4OtCP/sAVZcEN+LP6xMgu1N+dxCYtCuL2mdlq2h/2+Mi5T0ayQHUmmcgYjoxPEhQXiF+clyi7DcFp7BnD0eJ/sMkQqwf1nM9wgMiHDBhzurn488ckx2WWQCU22B+ORuUk4fEs+Xls6BSt0svOBURXlcLioFsf7BrG5WtwWr2XcLlYzPSxTIXGGMCS7BKU8OX8ybEEW2WUYzt7GLtkliMRwg8jE1Ag4fNSZ9tudXKZCcs1LseNPl6Wi9Udn4qn5kzE70aZAx6Z5DpczBDMSwkZ7umgYW6tbhJ6TuvZefFTPnYi0mBAehPMnRkh/fp3yILFkn0+FjgdmJ2BRRqTWe5SG8UVTl/TzK+hguEFkcmoEHD5S19GL3+ysl10GESKCLbihIBb/KMxCxY25uGdmPOzB/AbK11bl8pturUp9sKSEu6loV8THtmlwicpXLklz4Jc/mCC7DMMqbzZEB0cJHmC4QWR2hg44AODR9+vR1jMguwyib2REWfHrC5JQf3sBnpg/GWmRHJTmK5xVoN0WgctTvraxistUtLp6SiSsAYZ/CycCAOTGhuKFRWmyyzC0L/S/RIXhBhEBMEHA4e7qxyPv1ckug+gkIQHjcNO0WFTdlIuNi9NxweQI2SUZyoJUO+LCAmWXoWuv1rT6JCDec6wT+1t7hP9eM7EFWXBNJlv1zcDsMzjyYkPx5nWZCAs0/EdWqXYf7ZRdghYMN4joG4q8W/h4Md6HDTjSbsi9vckgLk+PxN+uzcSeNTkoynFC9gJWIxyrcjlcVKvSCjd8dX5KBe7MYlZfdSjJf64Nf5AoXy1QkX0+5RwFcaF4a4ULUSEB2u9IOqUDrT04erwXss+3lwfDDSI6gSIBh2919w9i7au1sssgGlF2TAj++7JU1N02DffNSuCcDi9FWgOw2MXtYbXy5ZauZZVun/1us7go2c7tqMmwzk0Kx9srXXBY+T7oazuPdMguwVsleGAmww0iOoEaAYcfAt4tVS146Ut+oCZ9iLcF4pHzk1B/+zT828WTkRQepMCXJPo5lmVxa16tdhxqR+PxPp+do3cOtMPT3e/Xv8mIrs1ySn++DXuQMEOyz6WE48E5iXhnZRbCuR2sX+yq65B+zr04GG4Q0bDUCDj85LbX96OlmwNHST9CAsbhlulxOHhrAf714kmI5UyJUSnmDhOafbU8xbe4m4p2q/LUW4o1xICDvBQXFogdhVn4OXdL8atdR3S3dXcJfsJwg4iGZ6qAo6GjDz9644DsMoi8cutZ43Hglnw8fH4SIq1cj3wqmc4QzEiwyS5D9zaU+z58KOMcDs1c0SEoGB8mu4wTnMFdTckLN06LRcVNeTgnKVx2KabzSYOuAg6GG0R0WqYKOADg2U8bsamKH6pJn6wB4/Dj2QnYty4f985KQAi3iTxJcR67N7Ta3XAcB/ywy8n22laf34YZFCm2HTI7OGgspo0Pw8ers/HkgmTOnZLgb/vb0N0/KLuM0WK4QUQjMuXV0apN+9DQ0Se7DCKvOawWPHpBEmrW5WPttFjZ5SiFu6do568dTjr7Bhk4C3BttlozZ9jBQaNxVkIYXrwqHR+vzsY0xbqQzGRbTYvsEkaL4QYRjYoafe5+/rqnubMPRa9UY9u1Lr/eLpFo8bZA/GFBMm4+Mw5rNu/DB3W6nYQuxPxUB+eUCLChvNlvr8tlFR5clh7pl9syqpjQQFya5sBmRcKiIbZwiDU0ZKi2mOVTo3HbjPGYmcilhCrYVtOih8dXCR6cxXCDiEbFlB0cAPD6vlY8vqtedhlEQuTGhmLX9dl4amEKHCaez1Gs4MBFvdnn6cHnjV1+u71XuF2sEIUKDdZlA4dYRuiI+cGkCDyxIBlNd03HXxalMdxQRGNnHz471im7jJEw3CCiMTHvlRCAu7YfQE5MKC5KscsuhUiIG6bF4mpXFO58fT/+tKdJdjl+5bAGYCm3h9Xs5fJmv95eU2c/3j3UzsGCGi12OeGw1qKFW+8ajvpfrg/vohQ7FqQ6sGxqNOJt7KxT0dZq5ZenMNwgojEzdcABAIvXV+LD1TlIj7LKLoVICGdIAJ67Ig3FebG4Ycs+1Hi6ZZfkF8umMtwQYUO5/zsqyircDDgEWOyKwn/uPia7DDIhW5AFubGhmJMUjouS7fziSCfWf6l0Bx3DDSLyiukDjtaeASx4vhy71+QgPIjTu8k4Lpgcgep1+fjJW4fwq3ePyC7H54o5XFSzuvZe7Dri/zkuG8rdeOzCSX6/XaMpyo1hwEE+lRFlRYYzBBlRVkxxhiDDaYUrOgRxnH2kO609AyoPeWa4QUReM33AAQA1nm4sfL4cr1/n4rabZDi/nJuEZVOdKH6lBh/X62qv+1HLdIbgbK7p1qzMT7unfF9tSw/2NnYiOyZUyu0bxZykcCQ7glHb4vstfsl/smND0d47IPz3jjsDiAgOgC1oHGxBFtgCxyEsyILwIMu3//bPf59oD2anq8HI6NYbJYYbRKSJGgGHAutL3z3Yjsv/WoHtK7izChlPdkwoPlqdg9+8X4d73jgouxzhOFxUjNJyt7TX402VHgYcAhTlxuBf3j4stwgF3tON5OHzk2SXQAb04ufNKj5XS/AQww0i0obtCt/xRm0rLnm+XHYZRD5z96wE7F6Tg2RHsOxShFrFgEOzlu5+vFHbKu32y8qVbZXWlZU5fC4Q0el5uvvxWo1yA0YZbhCREIoEHEPKHFurPbjyxQpf/8FE0uSPD8Ona3OxJCsKsp9vIo75qXbEcv23ZpsqPZB5Hj+oa0dde68f/lJjS4kMxjlJNsh+XhKRuv7n00bIf4044WC4QUTCKBJwqGVjhRuLGHKQgYUHWfDC1Rn4wyUpskvRrDgvVnYJhqDCeuxXKtnFIUKh5IG7jDeI1Pbkxw2yS/iuEjw0m+EGEQnDgOMUyircWLahUnYZRD61dlocPlmTi4l2fS5ZcVgDsJTbw2rW1T+IbQq0K5dVyA9ZjGB5djSsHJhNRMPYeaQdlc3KbB/PcIOIhOMnoNN44fNmXFdaJbsMIp8qGB+GPWvzMD/VIbuUMVvGcEOI16pb0NU/KLsMbKtp8cluEWZjC7Lg8oxIabd/hrRbJqKR/Jc6W0kz3CAin1Aj4JC+9O/Ux1/2NGEFQw4yuIhgC1691oU1BXHSn3NjObg8RYz1XzZLP5dfH1ur5HeSGEFhboy880hESjreN4gX9irxes9wg4h8Ro2AQ3H/u6cJc57di+auftmlEPnU05em4NcXTpJdxqhkRofg7ESb7DIMYZNCsy82cpmKEJekRyImVM7w3SGGHERKemb3MXTI75IrwU8ZbhCR7zDgGKX3DrUj/6lPsbvhuOxSiHzqntkJeP7qdNlljKiYW8MKsX1fK9p6pH/g/cbWKnXCFr27Lidayu2ewTUqREr6/a562SUw3CAin1Mk4JDfKzea43BbD855dg9e+qLZZ/cEkQqWTY3G3wuzYAsaB9nPu1Mdq/K5PEWE9V82Qfa5/O7R2tOP7fu4TEWEwrwYyDmPRKSajRVu1Hi6IPH1neEGEfmFIgGHfnT2DWLJyxVYt3Wf7FKIfOr8yXa8U5wNZ0iA7FJOMj/NgdgwOe33RvNKhXodE1ymIkbB+DC4okP8frtDXKNCpJzf7ayTefPP4KdzGG4QkV/8PwAAAP//7N15eFTlvQfwLzAhE0I2kpAAgUAAgQCSYC0IeittFa9ca4EqVGWrYr3Sa2vt097a21ZFRatULlhcaBEXRAFZwqKIsigQEkIIJGSBhOxM1klmJpmZTLb+EfBBJCHLe857zpnv53nOY4TJnF+YzMnMN7/3/Wkj4JD/S8MuH2tPlGHSm2nItWpm1BaRcPGR/vh6yUQMMJukP+euPLi5qBiJJQ5YHB7pj+fVx85sBhyiLIkbqPrj14tzVIg0Ja2sHocL7LKu6evRiqWqfKFERNBKwKFTZ8qdmPRmGjafrZJdCpFixoX54eCiCejft4/sUgAAwWYT5o2Xs7eA0WzL0uZyuxK7ByctdbLLMITFEpZysYODSFv+dKBI1qnXA1iKZ6bLn0NORF6DAUcPORtbMG/rOczbeg5WTlkhg7oxoh/2L4hFPx/5l4z5ExhuiLLlrDYDDgDYwS4OIcL7+eDOkcGyyyAiSY4VO2Rt3sxwg4ikkP9uxSA2n63C+LWn8FkuN8cjY5oaFYBt88bKLgOL4zg9RYT0CicKbQ2yy2gXl6mIs5ATh4i81v98KmXPOIYbRCQNAw6Byuoa8Z8bM/FwQi4c8ueMEwk3c2QwXr1zuLTzjw3zw5QhAdLObyRaXZ5yWXqFEwW12g1g9GTuuFDNLDEjIvV8lFGFVEu92qdluEFEUmkk4NDArnYid1M6VY6Ja0/hUIFN8L8TkXxP3TIYS+LkjJ9k94Y427OqIftaeb1je7a2Qxi9MJt642exA6DW49aLe4wSacIfvyyAytft9UArww0ikkobAYf819HCj8LaBszYkIEn5LQGEilq/b2jMX1ooOrPq0WcniJEQW0DTpfVS79OXu/gMhVxFt6o8jQVIpLqrweLUFDToObzvm1ayjO3MtwgIqm0EXAY2JokC0avPonP87g3BxnL5vvGYKC/j2rnu2tUCCL791XtfEam9eUplx0usKGGmzcLMWNEEIYF+coug4hUkF/jxnOHi9U8ZduylGcZbhCRfAw4VJBrdWPm+2dx76Ys5FndssshEmJwQF/s/Pk41c4nY9ylUekl4ACAhBx2cYjy0I3qLPFiAweRXMv2qto9zHCDiDSFAYeKEnKsGLX6JP58oAiuRv4cIP2bGhWgyqajwWYT5nE8rBCV9Y04WmSXXUancR8OcdQKCbkFB5E8O7Ot+FS9sbAMN4hIcxhwSPD8V8UYufokNqVXyi6FqMeemjYEs24IUfQc8xluCKO3wGA/l/cJMzrUD98f0l/x87CDg0iOGlcTlu7KVet0DDeISJMYcEhicXjwwCfnMPWfZ3C2wim7HKIeeX/2DYruj8HlKeLoaXkKADgbW7hMRaCF3KiXyLAW7TiPyvpGNU7FcIOINIsBh2RJJQ5MWHsKi3ecR5GtQXY5RN0S4mfCh3NvUOS+x4b5YUpUgCL37W3qPM3Yl6u/jghOUxHnQRX24eASFSL1fXCmErvUCYMZbhCRpmkj4NDAOELZx7unKhD99xQ8+Vk+qpyqpO9EQs0YEYRHb4oU/txg94Y4CdlW6de67hw7dbasRsuCzSb8dEyooo9Xa6uaXxERWRweLNudp8b1uG0ULMMNItIwbQQc9I1ViRcRs+oknjtUjDpPs+xyiLrk5TuiEdrPJPQ+fxEfIfT+vJnelqdcVu1swhEdbYyqdQvj1JmmQkTqmPNRNuwNir9mbOvceI7hBhFpm0YCDg38ilBDh6OhCX89WIiYVSlYk3Sxh/+2ROoJNpuw5u4YiHou3DUqGOH+Pmp/GYa197wVsq9v3T3YxSHO7HGhCDb3gbKPGRGpYdmePBwvsUPha/B6oJXhBhHpgkYCDrqWyvpGPLH3Aka8loJ1J8tkl0PUKT+fGI4fDA8Scl+L2b0hTEKOVdfjqT/JZMAhkpJ7cXAPDiJ1vJdWgbXJFqVPc6lz4zb9/gAhIq/CgEMHCmrdeDQhF6EvHcfTXxSg1O6RXRJRh16dOaLH9xFsNmEex8MKs12ny1Muy69xI7OSE6dEWaDgNBX2bxApL9VSh0Xbzyl9GoYbRKQ7DDh0xOpqwoqvSxC1Mhnzt2QjsdghuySia/re4P6YMy60R/cxfyLDDZF25eg74ACAHToPabRkSlQARoSYZZdBRN1QVufBrA8ylT4Nww0i0iUGHDr1cUYVpv3zNOLfOIWNZypll0P0HS/+eHiPPn9xHJeniHIgvxbVzibZZfQYx8WK9fBkPseI9MbV2IKZ751FWZ2i3bwMN4hItxhw6FxaWT0e+iQHg15JxvLDxYZ4E0PGMCbMr9tLTMaG+WFKVIDgirzXNoPsX5Fc6oDFwSV6oixSaAQz9+AgUs68Ldk4U16v5CkYbhCRrmkj4JC/Qb/ujzKHB3/5shBhLx3Hgk/O4URpXdcfByLB/ve2od36fmb3hljbMqulX6NEHeziECcq0Be3Dw8S/hi1tqr8hRB5id/ty8eubKuS19j1aGW4QUT6po2Ag4T64HQFvv9WGqa+fRofcvkKSRQX6Y/pwwK7/Hm/YOu8MMklxup64D4cYi1UqIuDiMRalXgRK4+WKnmKts6N5Qw3iEjfGHAYWFKJAw9uzUHEy0l49mCR0us1ia7pt9OGdOn2d40OQbi/j0LVeB+9T0+52r7cGjh1PO5Wa+4bHwaziS8FiLTsjWQLnvz0gpKnYLhBRIbBVzVeoKK+Ec8cLMKgvyXj3g8zDbMen/RhTmwoBgX07fTtF8eze0MkowUcALA7h8tUROnftw/mxPZs4hERKWd9ajke352n6CnAcIOIDIQBh5dJyLZi7kdZGLDiOH6ZkIvkEo6aJeV1dlpDsNnU7Y1J6buyKp3IqXLJLkO4ndnGC21kEr1MpRd3GSUS4t20Cjy847ySp2C4QUSGo5GAQwM713nZUeNqxNspFkx5Ow2jV6VgxVfFKLY1dO7hIuqiR26KRGe+L+dPZLghUlu3lvzrjehjdw4DDpFmjgpBuL8Joh6fVu4yStRjbyRbsHhbDhS8lq4HWhluEJHhaCTgIJlyrS48/UUBhq1Mxh3vpuNfqWWodXPcLIkTHeyLO0aGXPd2XJ4i1rbMKtklKMLe0Iz9eTWyyzCURQInF7GDg6hnfrcvH4/vzlXyFJc6N/6D4QYRGQ4DDvqWL/Jq8ciO8wh5MRH/9cFZbDxTgTpPs+yyyAAeuDG8w78fG9YPU6ICVKrG+CwOD1Itxh0XzXGxYomcXMQGDqLuu//jLKw8WqLkKRhuEJGhmWQXAKCtU440Z0+OFXtyrDCbeuOesQMwf2I45sRyCQF1z0/Ghnb4XGf3hlibMyoNfW3dfrYKr88aKbsMwxgX3g9xkf5Is9T3+L7YwEHUdTZ3E+ZsysKBC7VKnqYt3Hie4QYRGRc7OOi63E0t2JJRhbmbshCw/Bge2pqD7ZnVcHFUI3XBAD8TZowIbvfvF8WL3ejQ2xl9WtJFhwcppcbtUJFB5DIVIuq8NEs94v5xiuEGEZEADDioS+o8zdh4ugJzNmViwIuJmLMpEx+croCNe3ZQJ8xuZxzlzFEhiOzf+VGy1LFqZyO+KrDJLkNxCZymItSDk8SEjFyiQtR5H6dXIn5tKgpq3UqehuEGEXkNBhzUbe6mFmzPrMaCrTkIfiERd7+fgXUpZah2NsoujTSqvYBjicD1/wTsyPKON/4cFytWuL8PZo0Z0OP74SajRJ2zbFcu5m/OVvo0DDeIyKsw4CBhPj1Xg0d3nkfYiuO45e00PH+oCKcMvMkhdV1UoC9iQszf+rNgswnzJna8ASl1zXYvCTjOlNUr/VtPr7MwruddHOzgIOpYsa0Bcf9Ixdpki9KnYrhBRF6HAQcp4nixA3/+shCT155C5MtJeCwhl2MdCQDwo5Hf3odjPsMNoeo8zdiT4z0TRrYbfK8Rtd0/IRxB5p7tP84ODqL27ciqxsTXU3G6rOcb+l4Hww0i8koMOEhx5XUevHXCgjs3ZCDy5ST8em8eEovtsssiSX4Y8+2AYzGXpwjlTeEGAOz0km4VNd0/gdOyiJTwm70XMPvDTDX2LWO4QUReSxtjYslrlNd5sDrxIlYnXsSIEDN+Nj4Ms2NDccvQQNmlkUp+dEXAMTa8H6ZEBUisxni8ZXnKZYcLbKhxNSHEjz/ORFkYF4F1KWWyyyAyjL3nrPjV7jzk16iypI7hBhF5NW28IuSCXa+Ub3Xhla+L8crXxRjo74N7x4Xhp7GhuPuGnm9yR9oV7u+DMaFm5FS5sFjAen/6tj3Z1V53Td2ZVc1OIIFujQ5ETIgvLli7+WbMu779iNpVVNuAX+/JVXPj57Zw44UfMNwgIq/FJSqkCRX1jViXYsGs9zIQtPwolmzLwY6sarib+DPaiG4bHgQAWMQ3pULtPWdFnadZdhmq47hY8RbE8blJ1BPLDxZhzKoTDDeIiFSmjQ4OoivYG5qxIbUcG1LL0c+nN2bHhuGXNw/65k0x6d+t0UEosXkQ2b+v7FIMZdvZKtklSPF5LjcwFm1hXASePVAouwwi3dmcXonf78tHoboTnhhuEBFdwoCDNM3Z2IKNpyuw8XQFxoT54VdTh2BB3MAe7/JPct0WHQSziQ1kos0ZHwabuwmfna/xqk6Oek8zkkoc3M9FoJgBZkyPDsTRQm4ITdQZ6eX1eDwhF0cKbWqfmuEGEdEVtDHM7U+HbwKQIrsM0o/FkyPwm2lRmBTpL7sUIk3an1uDXdlWbD1bCYvDI7sc4QJ9+2B2bBh+Mi4Ud40egH4+DMxEe+uEBY/tPN/lz7t9RDAOPnyjAhURaU9BjRvLDxVh/UkpG/My3CAiugoDDtK1acMCsWzKYDwwiZtVErUn9WIddmVX40ihHUkldjga9NndMTTIF3PHh+GesaHfGTdM4tncTQh+/liXP48BB3mD/Bo3XjhUhH/JCTYAhhtERNfEPn/StWNFdhwrsuMP+/Lx1K1RWPq9SPj37SO7LCJNmTy4PyYP7v/N/6eX1yOxyI7EYjuOFzuQXemUWF37Jkb4Y9qwQEwbFogpQwMxJsxPdkleJchswn0TwrElo1J2KUSakWd14YVDxXgnVeooZYYbRETtYAcHGUqgbx8svXkQfn/bUAz095FdDpEu1LiacKLUgYzyeuRZ3ciqdOJ8lQsl9gbVaogZYEZMiB+mDQvE1KEBmB4dhEBfhpWy7c6x4p73M7r0OezgICP6Iq8GaxIvamFqE8MNIqIOaCPgeJoBB4llNvXGsqmD8btboxAZwEkdRN1R72nGuSoXcqpcOF/tQo2rEfaGZtjcTbA6m1DnafvYdunPXI0t8O/bB2ZTb5hNveFr6nXFx73Rz6c3hoeYMSzIFzED/BAd7IvhIWYMDfKV/aVSBwa+mIjK+sZO3/72EcE4+AgDDjKGt09Y8PcjJcipcskuBbgcbrzIcIOIqD1cokKG5G5qwcojJVh5pARPTh+Cv/wwGsGcvELUJf59+yB+cH/EX7G8hbzPA5MG4v+Plcoug0g1+TVurEksxTsny1HrbpJdzmUMN4iIOoHbzpPhvXa0FNF/S8JLh4vhauTrAiKirlgYH9Gl27eiVaFKiJSVkFWNuzakI+bVZLx2tJThBhGRDvFX2uQV7A3N+OPn+ViXYsHG+8di6tBA2SUREenC5MH9ETuwHzIrOrcZbS+NrH4l6oyjhXYkZFdj0+kKFNvU23eoCxhuEBF1gUYCDv62h9RxwerCLW+ewv/NiMbyHw+XXQ4RkS4sio/AH/Zd6NRt2cFBWuZuasH+3BrszKrC9rNVsLo006VxLZfCjdsZbhARdZJGAg4idT1/sBBfF9iwa8EEBHBSAxFRh5bcFNnpgINIa8ocHuzJsWJXdjU+z7XqZbkqww0iom5gwEFe63B+Laa/dQpfPDyJI2WJiDoQ7u+DO0aFYH9uzXVvywUqpAUnShzYd74t1Eguccgup6sYbhARdRMDDvJq6eX1uOXNVBx/bDLCGXIQEbVr0eTITgUcRDKcLHXgwIVaHM634auCWjgammWX1F0MN4iIekAbAQeX65JEF6rduH1dGo49Fo8gjpIlIrqmObFhCOjbR89vHMkgSmwNOFnqQEppHVJKHThSYEOdxxDfl23hxgqGG0RE3cV3c0QAMiucmPlOOo7/d7zsUoiINMnPpzfmjg/HhtQy2aWQl6j3NONclQvZlU5klNcjzVKHpGIHqp2NsktTAsMNIiIBGHAQXZJUbMcTu3Kx+p5RskshItKkhZMjGHCQUBaHB8W2BhTXupFf40ZRbQOyK53IrnRqdWyrEhhuEBEJwoCD6AprEksx84YQzBoTKrsUIiLNmRETjKFBvt70xpN64KLdgyKbGxftHpTYGtoOewOKL31cUOOWXaIWMNwgIhKIAQfRVX67J48BBxFROx6Kj8CKQ0Wyy/AaT3+ej8Qiu+wyrqm1FWhoaoGzsRmuxha4mlra/tvYDKc+RrHKxnCDiEgwBhxEVzlX5cKW9ErcNzFcdilERJqz9OZBHQYcrdw4XKj0snoculAruwwSj+EGEZECessugEiLXj9eKrsEIiJNGhFixs1RAe3+fa9eKhZDpE8MN4iIFKKRDg7+uoe05av8WribWmA2MQMkIrrawvgInCi59rKJVrZwCNYKvk4ylEvhxgyGG0RECtDGu7dWHjy0d7AlmIjo2h6Kj+j4GkriaODnIQ9hx3q0MtwgIlKSNgIOIg06bamTXQIRkSYFm024NzZMdhlEetLWufESww0iIiX9GwAA///s3Xls1Oedx/GPzzl8zBh7bHxgG2MbbHPY0MYBcrAQMISQLDRJQ6SmSrfbXWWFKnV3ibabrgo5ut1mu1HVfyq1aKVqUzXLmjZLiDZKs9EebdpFObAxlJCDYAfwhQ98jA+8f9hxQ/DtmXme+c37Jf2EGR/zsWz9Zubj7+95KDiAaTSzDSIATOuR9TmmIwDRgnIDACKEggOYBgUHAExvX1VAfrclS3kB9qLcAIAIouAAphHPVgAAMKP91dmmIwA2o9wAgAij4ACmUZzhNh0BAKz2SM1S0xEAW1FuAIABFBwL9PxDlTp4R6HpGAgjCg4AmNmthelazrkS+CzKDQAwhIJjAapzU7V/Xba+u6tE7x+8VQ+sCZiOhDCg4ACA2X3lc7mmIwA2odwAAIPsKDjM70s+r+OpHcsnoy/PcOuFh6v0P39eow15acazcYTuWLs0RQCAmT2yPueGcyerF4WBBY+JHHM6jmiMcgMATLKj4IgiG/LTtHtV5k23by7y6eSBDXp+fyV/+XeA6rxUFfFzBIBZFfrd2lLiNx0DMG18cuO7lBsAYBIFxzwd2l484/v3r8vWB4/fquf2lCrTmxSZUAi5fVVcdgQAc/Wl9TmTb48ZzAEYQrkBAJawpOAwP1M4l6M6L2XK6Y2pfH1zgd5/vFZ/u7VQnqQ449k55nfsW5019Q8WAHCTB9dmy5346cc6hI75x0SOGY8j0hjlBgBYwpKCIzo8XVcyr49PdyXqqR0leu/gRv3FxvwwpUKofb4gXVU5rL8BAHOVmpygvROTb6zBgRgyMbmxlXIDACxBwTFHtcvSdffKuU1vfFZuWrJ+eF+5Pnh8ox5ltXnrPben1HQEAIg6X96wVBLzG4gZlBsAYCEKjjn69vbls3/QLIoz3Dpy/yr9/q9qtX9dzuyfgIirK1+iTUU+0zEAIOrUlS9RIIW1pxATKDcAwFIUHHNQuyxdO8uXhOzrlWd59fz+Sp3+xi16uJqiwybP7mZ6AwAW6ssbmFKE41FuAIDF7Cg4jK8PNfNxKATTG1OpzE7RvzxUqXf/+lY9uiHX+PcZ68ffbCnSatbeAIAF+8rnJh7LEDoWPD5yTB5HNEa5AQA2s6PgsNjGIp/qQji9MZXSTI+OPLBKzd/cpAObC+RJ4scSaXeVZeiZnfNbRBYAcKOKbK9q8tJMxwDCYXxy4x8oNwDAZrySnsWh7cURu698n0s/uLdMF7+5SYd3LOda5gjJS3fp5w9XmY4BAI7wpfVcegnHodwAgChBwTGDjUU+bS8L7/TGVDK9SfrWtmK1/t1t+tG+larI9kY8Q6zwuRN1/NG1WuKlTAKAUFifzwQHHIVyAwCiCAXHDA6Hae2N+fhabZ6a/rJW//lnNXpgbbbpOI6yNC1Z//vYetXkpZqOAgAA7EO5AQBRJtF0AFttLvbprrIM0zEmbSnxa0uJX5fvLdOPf/exjpy8pA86B03HilqlmR699rUaLfO7TEcBAAD2odwAgChkScFh35Lr4do5ZbGWpiXriW3FemJbsd65dE31jW061timhsvXTEeLGo9tzNd3dq5QutuSX38AAGZk3/Mkh5soN7ZRbgBAlOEV3hRuK/ZrW6k90xvTWZebqnW5qTq0fbne7xzQ0YZWHWts0xsf9ZiOZqWyLK/++cEKbSrymY4CAADsRLkBAFHMjoLDsj9M2Dq9MZOSJR4dvLNIB+8sUnN3UMca21Tf2KbX37tqOppxhX63vnVXsb56S57pKAAAzM+YrHue5GDj5cb3KDcAIFrZUXBY5Pblfm2NgumNmRT4XDqwuUAHNheof3hUr52/qlfOdepX56+q6Uqf6XgRU5bl1cEthRQbAABgNpQbAOAAFByf8b3dpaYjhJQ3KUH3VGTpnoosSdKlniG98VG3fnOhW2981KP/u9ijwRHnPJZX5qTo/jXZ+sKagNbmsjsKAACYFeUGADgEBcenbFmRodrCdNMxwio3PVl7Vwe0d3Vg8rZzbf1qau3T6ct9amrt05nWfr3V0msw5fxsLc3Qnoos3VOZpdJMj+k4AAAgelBuAICDUHB8yuEd0bf2RiiUB7wqD3j1x1WBG25/t71fZ1r71Xj5mi52BXWha1AfdwfV3B1UR/9wxPJlepOUl+5SbnqyCv1u5ftcWuZzqcDv1qYin9JcCRHLAgAAHINyAwAchoJjwh+tyNDty/2mY1ilLMursiyv7q3MmvL9VwdG1DM4op7giLoGRtQ3NKqewVH1BEfUGxxVz+DInO4nIT5OPneiUl0JSnMlKDU5QenuROWlu1Sc4Q7ltwQAACBRbgCAI1FwTPjOrhWmI0SdDE+iMjz8CgEAgKhCuQEADhVvOoANtpY6f+0NAAAAUG4AgJPZ8ed3w/u7P7OT6Q0AAGChMRl/nuQg4+XGs5QbAOBUdhQcBh+5t5UtYXoDAABYioYjRI5K+lM9exflBgA4WMxfovI00xsAAABOdlTSfsoNAHC+mC44tpczvQEAAOBgn5Qbc9vaDQAQ1WK64HiyjukNAAAAh6LcAIAYE7MFxw6mNwAAAJyKcgMAYlDMFhyHmd4AAABwIsoNAIhRMVlw1K3MZHoDAADAeSg3ACCG2bFNbIR3P/v7u5neAAAAUYJdYudqvNz4R8oNAIhVMTfBsWtVpqrz0kzHAAAAQOhQbgAAYq/geIbpDQAAACeh3AAASIqxguPuCqY3AAAAHIRyAwAwKaYKjqd3Mb0BAADgEJQbAIAb2LHIaARWz7qnMovpDQBW6B8e1cjomNLdlpyCAVhsTKwyOqWJcmM75QYAYFLMTHAcrmN6A4AdXnj7inxPvK67f/yWfvK7j9U1wPNzWwwMX9fxpnY9Vn9Wzd1B03EATI1yAwAwpZj48+GeyoBq8pneAGCHf2tolSS9fLZDL5/t0FdfaNKO8kx9sTpHu1ZlKjfdZThhbPmwc0AnznboxdNt+o/fd0zeXpGdogO3LTOYDMAUKDcAANOKiYLj8M4S0xEAQJLUGxzV8ab2m25/5VyHXjk3/uK6KMOtO0oydHuJX3eUZGhlwBvpmI73q3c7deJsu14+26EzV/qm/Jj6hlYKDsAulBsAgBnZUXCE8dLSPVUB1t4AYI1fNrbOes670Dmon3Ze0k9PXpIkZaYk6c6JwmNTsV+3FKZHIKmzNF3p03+/36WXz7br1XOd6hsanfVzXj9/VVcHhpXhSYpAQmAaLMHxifFy4/uUGwCA6dlRcITR4TqmNwDY4+ip1nl/TkffsOobWlU/cWmLJyleG4v8uq3Er03FPn1+WbqWeHkR/onGy9f0Vkuv3mzu1cmLPXqzpVf9cyg0plJ/qk1/UpsX4oQA5olyAwAwJ44uOO5bHVA1a28AsMTA8HX9srEtJF/ntfOdeu185+Rt+T6XqvPSVFOQppr8NFXnpakk07Po+7Ldm82942VGS4/eaunV2y29Ghi+HrKvX9/QSsEBmEW5AQCYM0cXHE/uZOcUAPb4ReP8pzfmqqU7qJbuoF4684f1PTxJ8apamqrSLI9Ks7xaGfCqPJCi8oBXfk90nP4v9QR1sSuoi12D+qBzYPL/73X0683m3rDf/4kz7eoNjirNlRD2+wJwE8oNAMC8RMcz3AXYuyZba3JTTccAgElH3wlfwTGVgeHrOnmxRycv9tz0Pr8nUQU+t/J8Li3zu1Tgc6tg4l+fO1He5Hh5khLkSfrDvynJi3uRfy04qv7hUQ0MX9fA8Kj6h66rb2hU7X1Dau4eLzGaJ8qM5u6gPuwcWNT9hcpLTe16qCbHdAwg1lBuAADmzbEFxyHW3gBgkf6hUZ04c/PuKaZ0DYyoa+CaGi9fm/fn+tyJNxQf7om34+Ok/qHx8mKyxBi+rp7B6H59Ut/QSsEBRBblBgBgQRxZcOxjegOAZV46067BkdCtDWFS9+CIugdNp4ic402LXzcFwJxRbgAAFsySgiO0+589tYu1NwDY5eipK2Kvx+g0MDyqF0+36d6qgOkoiFkxc+6YKDd2UG4AABbEjoIjhI/bX1ibrYqclNB9QQAIgX9vbIuh1yjOU3+qlYIDZowpVs4d4+XGP1FuAAAWLt50gFB7clep6QgAcINjDa0h3boUkVd/KrILxAIxhnIDABASjio47l+Xw/QGAOv86ztXTEfAIvUGR/TquU7TMQAnotwAAISMowqOwztZewOAfY6ftmf3FCxc/SmKKiDEKDcAACHlmILjwWqmNwDY58XTbeoN8tzdCY41cJkKEEKUGwCAkHNMwfHtOqY3ANjnKJenOMbl3iH9+sMu0zEAJ6DcAACEhSMKji9WL2V6A4CVftHQZjoCQojFRoFFo9wAAISNIwqOp3ezcwoA+5w4087lKQ7DRA6wKJQbAICwSjQdQNKi9nffv36pVmR6QpcFiAG/vdCt2iKf6RiOd/TtK4s6v8E+FzoH9XZLr6rz00xHQSyZ4Txy3+pA5HIsQk6a69fP7V35M09S/G59/6Zv6GpcXNx/mcgVDmNjY6skrTKdA9O6FhcX96okjY2N3SEpw3CeSHkvLi6u0XQIINz+HwAA///s3Xl4VOWhBvD3JJnsmQAJWdlFSNhLlU2harFoFUsttlprBfXeam/dq13UCi21tVrE3Wu1pq5QCNCiuUKh7AESDFkhQMgG2ReSTCbJbPnuH0koy5xszHxn5sz7e555EuY7ybwiA5l3vsUzCo7L8JtF47SOQORVPsyswj8LarFh2XSto+je5nwuT9GjTXm1LDjIY2y+f4bWEfprXvfNKSEuKT2OAWjp/jwdQA6AEi8pQu4E8LzWIUjVSQATuj9/CcAsDbNIdd7z7FD3xwIA5QCyAWQoilKlRS4iV/LqgiMiKACHy1uQFMP9N4j647FNx/HqnnKkLme54W7bjjfgbJtN6xjkBqk5tVjJY8mJ3C35vM9n93zS/QLtELpemOUCOOIlpQeRJ5l90UcAgBCiAsBRAPsB7ORzi7yRhxQcg5vDbbLYcM8neXh1TxleWZKEa8cNcXEuIn2oN9twR0oOdhU1IirMgNunxWgdSfe69mrg+hQ9Kqg2oai+DeOjQ7WOQj5BgH+XXGI2Liw9WgBsA/A6X5ARXZbE7tuNAFZ0Fx4HAOxTFOVVTZMR9ZMuNhk9fLoF81/PwO1/zcbJujat4xB5lPSSJkx9MR27ihoBAD+cGa9xIt+Qys0odY3/f4k8ihHAUgC7hRBnhBCrhRBTtA5FpAOJ6HpurRFCNAsh1nfvW0LksXRRcPTYlFeLCS/sw89Sj6HezKnhRC9sL8E1r2Wg2mQ5d9+yWQkaJvINO040opHLU3SNx8USeaxEAI8DyBNCHBVCPCqEYLNPdPkuLhIf1ToQkTMeskTFtd7cdxofZFTisQWj8PPrx2BoqEHrSERSNZhtuPvjXGwtbLjg/slx4Zg5wqhRKt+Rmst39/Uuo7wZlc0WJEQGaR2FyKnU7GrYHZ67tEVRAIO/gqAAfwQF+CHY4IewQH/ERAQiJiIIAX6KKx4mGcAaAE8JIZ5VFCXFFd90sI5VtyK3wqRlBJ8SHuSPW6YMbknu3qJGVDZb+r7QQ/n7KQgx+CHY4I/QQD+EGPwxJMSAhMggBAa45P3tRHTN6ngKwEtcvkKeRJcFBwC0WR14YXsJXttbjofndxUdw1h0kA/YV9yEpSnZqDFZLxlbPpuzN2RYd6Ra6wgkQWpuDR6eP0rrGERO3fu3HJitDq1jDIqiAENDDYiNCML44aGYGBuOibFhmBQXjpkjIxFsGPALtEQAHwghHgTwtFb7dGzMrsazW05o8dA+aVx06KALjhe2nsKXR/V3EpqiAFFhgUiIDEJCZDCS48IxPTECM0YaMSkuAgb/AReLLDrI43hGweHGNxhaOxz4w79K8Obe03hkwSg8cd1ozugg3XourQirthWrjv/4KhYc7rarqBGNXCLnEzbm1LLgIPfzwT1GhQAazTY0mm04Vt2KLXn/WRIWGOCH6YkRmDt2KBZcOQyLkocjPMi/v996Nrqm1/8VwLM8EpN8jRBAfasV9a1W5FaYLihxep5bC5OicWNSNK69YthACo+eouMuaFgiEgGeUnBI0NJhx6ptxVizuwz/NXcEnrx+DBI5tZh0orSxHXd9mIuDpc2q19w6eTiGhwdKTOWbUnO4N4Ov2FXUiLNtNpbmRBJZ7Z3ILGtGZlkzXttVimCDH26YEIUl0+Nwx8w4DAnp1/PxPgBLhRCrFUVZ6ebIRF7h/OfWH7aeQligP26YGIV7ZiXiO9Ni+7u0padEfEVRlCfcHJnIKV1tMtofrRYHXtlVhhHP78aPP8lHXlWr1pGILsuqbcVI/sP+XssNALiXm4tKsYGna/gUbjZKpK0OWyfSCurw35/mIfHX/8ayj3JxqLSpP19qRNcxmOu5CSnRpcxWB7bk1eL77x9B3K924KG1+cg63fvPmud5vHuTX55mRNL5XMFxvo8yKzHtxXTc9M5X2HGiUes4RAOytbAB41ftw3NpReiwdfZ67ZCQACydHispme/aV9yE6hbv3ZSMBm4jN5Ql8hhtVgf+dvAM5ryUjrkvp+NfhfX9+bKlAHaw5CBSd7bNhnf2luPrf9yPm97IxL5TZ/vzZckA9gshlrk3HdGFfLrg6LG1sAEL3zqMaS+m48PMSq3jEPWq/GwH7vggBze98xVO1bf162t+xL03pNiQw81FfU3a0XqYLHatYxDRRQ6WNOFbr2fgujUHcbCkzxkdyQAKhRALJEQj8mpbj9Vh/uoD+MYr/XpuGdG1we/7EqIRAWDBcYG8qlbc+0k+Ep/fjRd3lKCpnT+0kudoszrwXFoRRq/cM+BlEFyeIse6I3w33xd9UdCvd4mJSAO7Tzbimj8fwMN/L0CrpddTZYwAtnAmB1H/7Cnqem498EkeGsyXntx3kfuEEOtl5CLykIJDeNStsrkDv9xyAonP78KjGwtR0tDu5v9+ot59llWF8av2YtW2Uxjon+ek2FBcNdKoTXAfcqC0CdUtHdD67y/e5N+4TIXcq68/g9SXTiHwxu4yTFm1BztPNPR2qRFcrkLUb51C4P3005i4cg9SDp7p6/KlLDlIBg8pODxTm9WB1/aUYdzv9uDGtw7jw8zKPvc6IHKl3UWNmLfmEH74YS6qBrm3w/JZiS5ORc5syOaLXF+Vdt4xe0Tkucoa27HojQy8taest8uSAeyQFIlIFxrMViz/KBf3/C0HZmuvM6WWdm8+yhKR3MYzCg7t34Dr87b9eAPu/TgP0b/+N5Z/mo+dJ7kpKbnPobJm3PjWYVz3eiYOlDRd1p/d5bNZcMiwIbta87+neNPmZrY48M98nqZCbtLXn0EaEJtD4H/WFeCna/Mh1H//koUQr0iMRaQLH2dU4Ko/7kd+pam3y5IBvCYpEvkgzyg4vIjZ6kDKoQrc8EYmEn+zC8+lFeF4rVnrWKQTuZUmLHnvCOasPojtx3udRtsvN0+KxvDwQBcko95kljej/GyH1jFIQxt5PDCRV3l7bzkeXl/Q2yWPCSGWyMpDpBeFNa2Y+3I6dvT+c+xSlojkLiw4LkNlswWrtp5C0u/34aqXD+DV3WWoNfW5yQ7RJXIqTLj9/WxMfzEd/8hz3TvBy7g8RQouT6GNOZzBQeRt3txdhhVfnOztkjc4lZ5o4FotDtz6dib+0fseVY8JIR6TlYl8BwsOF/nqdAse21iI2Gd34pb/zcLarCq023pdg0aEnAoTvvfXbMz4Uzo2uXijwiEhAfj+1+Jc+j3JubVZVVpHII2ZLHaXzLoiIrlWpp3EhiOqR3wnAnhaYhwi3eiwdWLpX7LwaWZlb5etFEJMkZWJfEOA1gH0KO1oHdKO1iEs0B/fnjQcS6bFYMnUGIQG+msdjTzE5wV1eDf9NLbku29zwjtn8k0nGbLOtHB5CgEANuXWYuHEKK1jENEAPfhZPq69YijijEHOhu8TQvxJURQ22UQDZO8UWPZRDuIjg3D9BKf/PhoBvAdgjtxkpGecweFGZqsD67OrcfeHuQh7ajtu+0sWUg5VoLHNpnU00kBRfRt+/flJxD67E4vfzXJruQEAy7i5qBRcnkI9eFwskXdqMFtx/8e5asNGcBYH0aDZHAJ3vHcERXVtapfMFkKskBiJdI4zOCTakl937kXtNydE4eZJ0bg5ORqT4sI1Tkbu0m5zYEN2DVIyKvDvE/JO3kmKDcPs0ZHSHs+X/V19ajP5mOoWCw6UNmHumCFaRyGiAUorqMOXR+tw06ThzobvA/C45EhEutFgtmLx24dx6Ol5MAY7ffn5uBBig6Io+bKzkf6w4NDIjhMN2HGiAT/ffByJkcHnyo6FE6PUnvjkRfYXN+GDQxVYd6QKrRb5e7Fwc1E5citNOFWv+o4E+aDU7BoWHERe6vkvTqoVHEYhxGOKoqyRnYlILwprWvH0pkK8c5fTLTeMAFYAWCo1FOkSX0l7gIrmDrx34AzeO3AGALDgiqFYlByNm5KjMXOEUeN01F/ZFSak5tRg7VdVKNL4Re+9sxI0fXxfweUpdLGNuTV4eclErWMQ0SBklDZhS14tFk+NcTZ8CwAWHESX4d395bj76gTMHz/M2fD3hBBTOIuDLhcLDg+059RZ7Dl1Fs98fhJRYQbclByNRUnR+FZSNGIjArWOR+c5UNqEjTk1+PuRao/ZaHJRUrTaRmnkYhuyuTyFLlTS0I7sChNmJEZoHYWIBuHN3WVqBcdCIUQ8NxslGjwhgAc+yUPuM/MRFOB0K8gV4CwOukwsODxcg9mGTw5X4ZPDXf+ezhxhxLVXDMXMEUZcPcrI/Tskq2qxIO1oHbYVdi0xajB73oaxy+dweYoMhTVmHKsxax2DPNCm3BoWHEReasfxetSarIhx/obSD8BZHESX5UStGa/tKsVTC8c5G+YsDrpsLDi8TNaZFmSdaTn369BAf1w9KhJXjTRi3tghmBIfjgkxYRom1Jfysx04XN6MXUWN2H68wSte0N6ZkoM7U3K0jkHks3775Sn89stTWscgokGwdwp8drgSj14/xtnwtWDBQXTZVu8owSPXjVGbxfEEujb2JRoUFhxers3qwO6iRuwuasSfd/7n/pkjjJgcH44p8eGYFBeOqfHhGD0sRLugXqCp3Y7sihZklDVjf3ET9pec9cgZGkREROQ+G7Or1QqOOXKTEOlTdYsF7+4rx8PXjXE2/C3JcUhnWHDo1MUzPQAgLNAfUxMiMDnuvOIjIRzxPrZfg8liR15lK45WtyK/qhV5VSYcrTajusWidTQiIiKv1rN5oBACVoeA1d4JU4cdjW02NLXbIITGAfshs6wZNoeAwV+5eCiR0+eJXOOl7cX46YLR8Pdz+jxbpihKigaxSAc8o+Dwgn/s9MBsceBgSRMOljRdcH9kSACmxIdj5JAQJEQGnbvFG4OQOCQYCZFBCAv01yj14DSYbag3W1HVbEFRfRsKqrrKjGPVZlQ0e8ZmoERERHri76dgz+Pqkxws9k6UNLThRI0Z2WdacLC0CXuLGjU5Tr037TYHMsuaMG/cUGfDCwGw4CC3uGNmPBIjg3u9xurohMXeiVaLHfWtVtSarCiub4PZ6lnPo76cPtuBbcfqcfNkp0cz3wogRW4i0gvPKDhIU83tduwvbgLQpHpNRFDABeVHQmQw4o1dn8cZAzEs1IBhYQYMDTEg1EVlSFO7HW1WR9fN1vWxpcOBulYr6lutqO8uMXr+cm9os6Gu+3MiIiLyLEEBfkiKDUdSbDhumxYLoGvPi/8rqMNHGRXYlF0Ne6dnvOu1t6hRreAYLTsL+Y6ffWM0Fjg/QrVPlc0dOFzWjMyyZuw43oCMsiY4POT5pOazw5VqBceNsrOQfrDgoH4xWew4XmvH8dr+bbIZGxGIoaEGDA01qG0gBKDruKg2qwOtFjtMlq6PTe12V8UmIiIiDxbgp2Dx1BgsnhqDssZ2PPPP4/j0cKXmS1nyq1rVhkYO9nsGG/xhDNbmR29Hp9DkHX6Dv4IQgzazgCOCfOtlTkJkMG6bFozbpsXid4uBRrMN67Kq8NGhChwoOat1PKf+kVsDi73T2WsFoxBiiaIom7XIRd7NQ575nt0u0sDVmCyoMXFPCyIiIuqf0cNC8PGyGbhndiJ+lJKD+lbtZmSWNrSpDQ264Hjym2Px5DfHDvbLL8sX+bW49e3D0h/3O9Nisf6BmdIfl4BhYQY8NH8UHpo/CgdLmvD7L4vweX6t1rEu0NJhR1pBLb47Pc7Z8AwALDhowNTfWiciIiIikmxR8nCkPzkXI4b0vheBO5U0tKsNJcnMQeQKc8YOwZaHrsKOR2YjKTZc6zgX2HmiUW3oGpk5SD9YcBARERGRR7kyJgxf/PRqzTY5r2q2wGrvdDZklJ2FyFVumBiFrF9dg3vnjNA6yjnpxarLZ2bJzEH64SFLVIiIiIhIrxRFUQBACLEEXVPPrwEwG0CE2tdMS4zA7xZPwBOpx+SEPE+nEDjbbkNsRJD0xyZyIhXA6Yvum9f9cQSAhP5+oxCDP1LumYbh4YF4eXuxq/INWs6ZFpitDmdlplEIsUBRlD1a5CLvxYKDiIiIiKTo3jRwMwAIIeIB/ATAE1ApOh6+bgzW7CxFeaPqkhG3abU4EKtavxBJ9XFfG25eVB4u7OsbvvTdJFQ2d+DTzEoXRRwce6fAgeKzWJgU7Wx4cEfKkE/jEhUiIiIikk5RlCpFUVag653oQmfXBPgpuH+uNtPp21ROHRFCLJAchahPiqJsVhRlhaIoN6JrRsfjAHptL967eyrGDw+Vkq83x6pVTy36hswcpA8sOIiIiIhIM4qi5AO4ASolx+KpsXIDdVMrONDHu8rdLzI1AeB2l/9GuEeqVr9HiqJM0Po/3t2UrvJwjaIoiegqOkzOrgsx+OPFJdrvm1tcL3+GFukXCw4iIiIi0pSiKFUAXnQ2NmOEESEG+ZuNOjqF9MckcjVFUdYAuBUqJcftM+IwOV7bk1VK1I9lnqc2QKSGBQcRERERaU5RlBQ4eRGmKMDY6BDpeYICVH9MLpKZg+hyKV0bdd6qNv7ANSMlprlUqfqxzEQDxoKDiIiIiDyF0yNTIoMNsnMgWGXWiNK1pIbIq3SXHB84G7tNo2VgPSqaO9SGtF8/Q16HBQcRERGRd9qgdQBZAvwV6Y85PDxQ+mMSudlqZ3eOiw7FmCj5s6R6mC2q+90YZeYgfWDBQUREROR9NgC4S+sQsvTyAsgt/BQFUWHyZ40QuVP37COnm/lOitNuH44OuwOCW96Qi7DgICIiIvIuXeXG6zfbtQ7iBonO7mwwW6WGSIgMgr+f01kjTjdqJPIiB5zdeWVMmOwc5wgBtNnklpikXyw4iIiIiLyHbssNIcQUOCk47J0CZ5pU1+i7xfjhqi/2nO4RQuRFmp3dGRWm7ZIs2bO0SL9YcBARERF5B92WG93ud3ZnVnmz9CNbJ6kfm1kgMweRLGGB8o9iPl8n16iQi7DgICIiIvJ8ui43hBDxAO5zNrbzRIPkNMDVoyPVhspl5iCSxU/jV4VaFyykHyw4iIiIiDyb3suNKQB2QOXEhHVZVXIDAbhm3FC1oWyZOYhkadV4iUhYEAsOcg0WHERERESeS7flhhBiihBiNYA8AMnOrtl9shFHTrdIzTUuOlR1w0VFUTZLDUPkek6nJzWabbJznBNs8IOfIv8oaNKnAK0DAAC45IqIiIjoYl3lxhveX250L0GZBWAMgGkA5kKl1OjRKQR+sdnpiZZudfPk4WpD8sMQud4cZ3eerDXLznFOqPryFJ5aRAPmGQUHEREREZ1PN+VGt8qBfsHKtCIcKm1yR5Ze3X11gtrQOpk5iFytezmY02LxWHWr5DT/ERMepDbEU4towLhEhYiIiMiz6K3cGLC395bjt2knpT/uxNgwzB2ruv/GBplZiNzgCWd3lje241R9m+ws54yNDtHssUl/OIODiIiIyHP4dLnRYevELzYX4rVdpZo8/iPXjVEbqlQUJV9iFCKXEkIsALDc2djm3BrJaS40NipUbYjHMtOAseAgIiIi8gw+W250CoF1X1XhuS0nNHsnOc4YhOVzR6gNb5WZhciVusuNLWrjf9l/WmKaS42NUp3B0SwzB+kDCw4iIiIi7flkuVFQ1Yr1WVX4KKMCxRpOkQeAZ28ajxCD6maHq2VmIXKF7s19nwJwP1SOYd6UU438Sm338pygcmoRgN0yc5A+sOAgIiIi0pauyw17p0Cj2YbK5g4U17fheI0ZWaebcbCkCWeaOrSOBwCYmhCBn8wfpTacyuUp5E26NxO9D70UGwBgtjrw1EbtDweaO0513xuiAWPBQURERKQd3ZQbjk6B2F9uP/drq13A5uhEm80BITQM1gd/PwXv3T0VAX6K2iUrJMYhGrDzjmGeAeAH6OMI5h4PfJyn6eaiAHBlTBiGhwc6HVMUZbPkOKQDHlJwePC/ekRERETu0V1ufNvry40etSar1hEGbMUtV2LWmCFqw5y9QZ7g7u59NAAgEsDk88aS0cssDTWPbziGtV8N+PRml5s7VvW5lyEzB+mHhxQcRERERD5Fd+WGN7plSgyeWTRebdgEzt4gz7DUVd/I1GHHg2vz8Wmm9uUGAFx7xTC1oXSZOUg/WHAQERERycVywwPMHBmJtfd9DYrqyhQ8wtkbpCcbs6vxi82FKKrTdllKD38/Bd+ZFqs2zA1GaVBYcBARERHJw3LDA0xPNGLrz65GeJDqqSnbFUVJkRiJyG2+yK/Fbz4/iazTnnXq6vUTohAT4Xz/DQCHZGYh/WDBQURERCTHl2C5obl544Ziy4NXYViYQe0SE4AfS4xE5HJHq1qRml2N9VlVyNP4GFg1P/h6vNrQdkVRqmRmIf34fwAAAP//7N17cFTnfcbx59XqwqIblkBcxM1FSMgIUpJgwHawDXUSB+K4g9zEdmLXcXEvHju4naZJ3XZMEyfNuE2J05ROUhs8zq0N1EzttG4MtcG5YHVCKRAMNcVyDIJgCQyrG5J23/4hKThiz+r+nrPnfD//Sb93d58ZMczus+95DwUHAADA+Hte0m9SbvjrjqUz9OTHF6sgN8drSULSWj5cIZt0dCd1qKlVB05e0IGTCb1wpFmvnm71O1ZGE/JytO7Xp3mNv+8yC8KFggMAAGB89ZcbnX4Hiap4XkxfXler33vf7MGW3mWM2eMiEzDQYy8c19OvnMy4pr07qQsdPWq9mFTiYo/OtXersaVDqSDfizmNT1xdqSsmeu6i+ieXWRAuFBwAAADjh3LDZ++rKtM37likmqmFQ1n+GWttqTHmqfHOBQz03KEzfkdwIpZj9Omb5nmNt7ODCqPhuT8PAAAAo0K54aOZkyZoyycWa/eG5UMtNyRpmaSt1trD1tpbxzEeEFn1S6apaspEr/E3XWZB+FBwAAAAjD3KDR/lGKPVCyYrZaXDp1tHsn2/VtIz1tonrLWeJyECGJ7cHKM/+2CV17jBGLPDZR6ED5eoAAAAjC3KDZ+lrNVTe0/oqb0nJEllhXlaXTNZH6idrDV1FZpWUjDUp/qkpHpr7ae4bSwweg/eOFd1M4q9xpsdRkFIUXAAAACMHcqNADrb1q3v7Tul7+07pViO0Y3V5bpz6QzVL5muooLYYA8vkbTFWnuHpLs5HwAYmdllcf3l2mqvcRMlIsYCl6gAAACMDcqNLJBMWe080qx7nj6gyj/dpT9+5oiazg/pT3aTpF1csgKMzFdvu0qF+Z6F4sMusyC8grGDI7vuagQAADBQb7nxNcqNbHKhs0d/vfO4Hn+pUeuvnaWNa+arvDA/00Nq1VtyrGYnBzB0918/R7csnuo1bmD3BsYKOzgAAABGh3Ijy3X1pPS13W9o/iO79ZUXGzXImaT9JQc7OYAhuG7eFdpUf5XXOCHpXodxEHIUHAAAACNHuREi59q7tWHbYa36yit681zGP2mtpCPW2pWOogFZqXLSBG1b/27l5hivJU8YYw65zIRwo+AAAAAYGcqNkHrptRYtfvRl/eDV5kzLSiR9m50cQHrlhfn6/h+8V1OLPe9adMQY85DLTAg/Cg4AAIDho9wIubc7urV283/pH3/8ZqZllZIedRQJyBrlhfna9amr9a7KEq8lCUmrHEZCRFBwAAAADA/lRkR0J63Wf+ugHn+pMdOye6y1tzqKBATeEMoNSVrLQb0YDxQcAAAAQ0e5EUEbth3Wlp+cyLTk77hUBZCqKwr1wz9aPli58ZAxZo+rTIgWCg4AAIChodyIKGul+759UHuOnfVawqUqiLwPLZyihk9fqwVTizIt226M2eQqE6KHggMAAGBwlBsR15Oyuv3J/TqT6PJawqUqiKRYjtHDH6zSc7+/VKXx3ExLtxtj6l3lQjRRcAAAAGRGuQFJUtP5Tv3Otw5kWvJxV1mAIKidVqQf/uEKff7D1TKed4KVRLkBRyg4AAAAvFFu4Fc8e/CM/vXAL7zG66y1dS7zAH7Iixl99gPztP+z12n5lZMGW76JcgOuZNxDBAAAEGGUG8M0uyw+6Bprrbp6rLqSKbV3JXWxJ+Ug2djasO1V3bywQnmxtF9Z3yvpIceRACdyjFH9kmn63IerVV1RONjyhKS/4MwNuETBAQAAcDnKjWGK5Ri98bkbh/241otJNbd26fWWdr3e0qFDTQntP3FBDY1vq60rOQ5JR+/1lnZt3XtC66+dlW58myg4EDLGSGsWVujzt1QPdoeUfk2SbuduKXAtIAWH9TsAAABAv75yYw3lhgNFBTEVFcQ1tzyud9Yj3Umrl4+d1fb9p/XP+06pudXzcE9fPLbzuO69ZqZyLj94oNJau4FvrREGk4vyddeySv3udbOHsmOj305JdxljTo1jNCCtgBQcAAAAgUC5ERB5MaNVNeVaVVOuTfVXactP3tSXXjiu483tfkeTJL12pk3//rO3tKauIt14jSQKDmSlooKYVtdM1m+9e7rql0xTfu6Qj21MSHrQGLN1/NIBmVFwAAAA9KLcCKi8mNF9183W3ctn6gv/8X/6wvPH1JPyfwfw0w0nvQqO33CdBRipvJhR7bQirawq05q6Cq2qLh9OqdGPXRsIBAoOAAAAyo2sUJCbo41r5uv6qjLd9sQ+nW3r9jXPswfPKNHZo+IJl7+lttau5PwBBEnxhFzNnDRBMydN0NzyuBZXlui9s0u1ZFaJCoZfaPRrkPRFY8yOMYwKjBgFBwAAiDrKjfHXMODnWknFI32yVTXlev7+q7X68VeU6OwZXbJRaO9KatfRFt36rqnpxqskUXBgyL506wItnF406ueJ5RhNzI8pnhdTPC9H8fyYJhfmqzQ+ph/9miQ9xlkzCBoKDgAAEGWUGw4YY5ZlmltrV0oqk3S9pFmS3q9BCpClc0r1Dx+r051b949ZzpHYebTZq+Coc50F2W35lZO0sqrM7xiDaZD0HYoNBBUFBwAAiCrKjYB4x6Ucv9zm3ld6PChpndfj7lg6Q9/9aZOePXhmnBN6e/F/W7xGy13mAMZRQtIPJD1ijDnkdxggkxFfbAUAAJDFKDcCzhizxxhTL2mReg8wTOvRW2p0+Z1a3Tn6izZ1dqfSjSqttdNd5wHGSJOk7ZLuMcaUGGPqKTeQDYKxg8P/Q7ABAEB09JYbf0+5kQ36PlTdZK3dpjS7ORbNKNY1V16hHx0/5z6cpGTK6mBTQkvnlKYbL9M7dqUAAdYk6bCkQ5Ke4YBcZKtgFBwAAABuUG5krwckrZA0Y+Dgo++Z7lvBIUkHTl7wKjjmOo4CDKb/wN+fSTovabekV7i9K8KCggMAAEQF5UYWM8acstY+JulvB85uqC73IdElb5zt8BrNcZkDobVR0khP0z3GpSWIEgoOAAAQBZQb4ZD2LI666cWamB9Te1fSdR5JUtP5i768LiJjvzGGS52AIeCQUQAAEHaUGyHR90100+W/l+aUxX1I1OvUef5pAUAQUHAAAIAwo9wInxPpfjm9tMB1jl96u6PHa1TnMgcARB0FBwAACCvKjQiZmBfz7bU9bhMrSSUucwBA1FFwAACAMKLciJjcmPHttTu6/Tn7AwDwqyg4AABA2FBuRFDbRf9Khp6U9e21AQCXUHAAAIAwodwIMWvtdEkL0s1OX/DvTibxPN5SA0AQ8L8xAAAIC8qN8Puo0pxrkUxZHXur3Yc4vYoKcn17bQDAJRQcAAAgDCg3Qq5v98bGdLO9jW/7eg5GYb5/B5wCAC6h4AAAANmOciPk+sqNXfK4K8m/7D/tNtAApXHPHRwXXOYAgKij4AAAANmMciPkrLW/LemIpNp087aupLbuPeE000BXlk/0Gh1ymQMAoo4LBgEAQLai3Agpa22dpHWS1kuqzLT20eeP6Wxbt5NcXqqmeBYc513mAICoo+AAAADZiHIjy/WVGPP6fpwraY6kWZJWaJBSo9+Pjp/T3+x6fVzyDUfVlEKv0X6XOQAg6ig4AABAtqHcyDLWWjvWz3n4VKvWfX2funpSY/3Uw7aosthrdMxlDgCIOgoOAACQTSg3oP882qKPPfnfequ1y+8oWjC1SFOK8tPOjDGcwQEADgWk4BjzUh8AAIRPX7mxlnIjohKdPdr4b69p04uNSqaC8f5x5fwyr1GDyxwAgMAUHAAAABlRbkRYS1uXNr/8c331pUadSfi/a+OdbvAuOH7sMgcAICgFRzAKeAAAEEy95cZmyo0oOd7crl1HW7Tjf05r59GWQJy1MVA8L6YPLazwGu92mQUAEJSCAwAAID3KjSwy1DMxupMpdSetEp09Otferea2Lv38bKcaWzp0+HRCB04mdPrCxXFOO3prF1WoNJ7+7bQxZofjOAAQeRQcAAAgqCg3skgyZVXxJzv9juHUXcs872a73WUOAECvHL8DAAAApEG5gUCbUxbXzVdN8Ro/5zILAKAXBQcAAAgayg0E3mfeP0+xHJNulDDGbHUcBwAgCg4AABAslBsIvDllcd17zSyv8TaXWQAAl1BwAACAoKDcQFb485urlBdLu3tDkr7sMgsA4BIKDgAAEASUG8gKN8wv1ydXeO7e2G6MOeQyDwDgEgoOAADgN8oNZIWJ+TF9485FMp6bN/SIuzQAgIEoOAAAgJ8oN5A1/uojNaqaMtFrvIXdGwDgLwoOAADgF8oNZI27l8/UAzfM9Ro3SXrYXRoAQDq5fgeQJG1e+1NJ3pv9AAAAAJ9c82tX6Ou312Vacr8x5pSrPACA9NjBAQAAAHiomVqoZ+57j/JzPd82bzHG7HCZCQCQHgUHAAAAkEbdjGLteWiFKorzvZYcEZemAEBgBOMSFQAAACBAlswq0QsPXK3yQs9yIyHpNi5NAYDg+H8AAAD//+zdPYtcZRjH4f9zdjY7ySbRrCbrbpSA2SyJEqMIwUJSJUpAxYhCwBfsLAQhINgoWGgliH1SpLFTsbMJFum0C4TkG2wd3A9wUgQhje7kZXfmnrmubuA5M3c3w48z5xY4AADgPu+9/EyufvxS9g3/96fyW7amAEwWgQMAAJIMupbv3l7PV28c3eropdba9Z2YCYDRCRwAAMy8Y4cWc+XDkzmztrTV0UuttZ92YiYAHozAAQDAzFoYdPny7PP55vxaFv57U8q/xA2ACSZwAAAwc7rW8u6p5Xz/znqOL+/d6vhmki9aa1e3fzIAHpbAAQDAzJjrWj54ZSVfn1/Liytbho3k3irYzzxzA2DyCRwAAEy9tYN78tHpw/n0tWdzZGn3qJddS/KJVbAANQgcAABMpfVDizl34ulcfHU1rx898CCXbib5sbX27fZMBsB2EDgAAChv16DL8eXFnDq8P2eOLeXNEwfz3IHhw7yVuzYAihI4AACYSIOuZWHQZTg/l+F8lz275vLU4nxW9g+z+uRCVp8Y5sjS7pxc3ZcXVvZm0LVH+biNJJ+31n5/TOMDsMMe6VsAAIDx6fu+H/cMU2AjyQ/TsP617/sLSX4b9xwj+LW19v64h+j7/q8kp8c9xwguCG8wGndwAAAwi64l+dnqV4DpIXAAADArNpJcTvJLa+3muIcB4PESOAAAmGZ/J/kjyZ+ttevjHgaA7SNwAAAwLTaS3EpyM8kNfz8BmC0CBwAAk24zye37Xv+TexEjSW4kueMhjADYogIAAACUJ3AAAAAA5QkcAAAAQHkCBwAAAFCewAEAAACUJ3AAAAAA5QkcAAAAQHkCBwAAAFCewAEAAACUJ3AAAAAA5QkcAAAAQHkCBwAAAFCewAEAAACUJ3AAAAAA5QkcAAAAQHkCBwAAAFCewAEAAACUJ3AAAAAA5QkcAAAAQHkCBwAAAFCewAEAAACUJ3AAAAAA5QkcAAAAQHkCBwAAAFCewAEAAACUJ3AAAAAA5QkcAAAAQHkCBwAAAFCewAEAAACUJ3AAAAAA5QkcAAAAQHkCBwAAAFCewAEAAACUJ3AAAAAA5QkcAAAAQHkCBwAAAFCewAEAAACUJ3AAAAAA5QkcAAAAQHkCBwAAAFCewAEAAACUJ3AAAAAA5QkcAAAAQHkCBwAAAFCewAEAAACUJ3AAAAAA5QkcAAAAQHl3AQAA///s2AEJAAAAgKD/r9sR6AwFBwAAALAnOAAAAIA9wQEAAADsCQ4AAABgT3AAAAAAe4IDAAAA2BMcAAAAwJ7gAAAAAPYEBwAAALAnOAAAAIA9wQEAAADsCQ4AAABgT3AAAAAAe4IDAAAA2BMcAAAAwJ7gAAAAAPYEBwAAALAnOAAAAIA9wQEAAADsCQ4AAABgT3AAAAAAe4IDAAAA2BMcAAAAwJ7gAAAAAPYEBwAAALAnOAAAAIA9wQEAAADsCQ4AAABgT3AAAAAAe4IDAAAA2BMcAAAAwJ7gAAAAAPYEBwAAALAnOAAAAIA9wQEAAADsCQ4AAABgT3AAAAAAe4IDAAAA2BMcAAAAwJ7gAAAAAPYEBwAAALAnOAAAAIA9wQEAAADsCQ4AAABgT3AAAAAAe4IDAAAA2BMcAAAAwJ7gAAAAAPYEBwAAALAnOAAAAIA9wQEAAADsCQ4AAABgT3AAAAAAe4IDAAAA2BMcAAAAwJ7gAAAAAPYEBwAAALAnOAAAAIA9wQEAAADsCQ4AAABgT3AAAAAAe4IDAAAA2BMcAAAAwJ7gAAAAAPYCAAD//+zYAQkAAACAoP+v2xHoDAUHAAAAsCc4AAAAgD3BAQAAAOwJDgAAAGBPcAAAAAB7ggMAAADYExwAAADAnuAAAAAA9gQHAAAAsCc4AAAAgD3BAQAAAOwJDgAAAGBPcAAAAAB7ggMAAADYExwAAADAnuAAAAAA9gQHAAAAsCc4AAAAgD3BAQAAAOwJDgAAAGBPcAAAAAB7ggMAAADYExwAAADAnuAAAAAA9gQHAAAAsCc4AAAAgD3BAQAAAOwJDgAAAGBPcAAAAAB7ggMAAADYExwAAADAnuAAAAAA9gQHAAAAsCc4AAAAgD3BAQAAAOwJDgAAAGBPcAAAAAB7ggMAAADYExwAAADAnuAAAAAA9gQHAAAAsCc4AAAAgD3BAQAAAOwJDgAAAGBPcAAAAAB7ggMAAADYExwAAADAnuAAAAAA9gQHAAAAsCc4AAAAgD3BAQAAAOwJDgAAAGBPcAAAAAB7ggMAAADYExwAAADAnuAAAAAA9gQHAAAAsCc4AAAAgD3BAQAAAOwJDgAAAGBPcAAAAAB7ggMAAADYExwAAADAXgAAAP//7NgBCQAAAICg/6/bEegMBQcAAACwJzgAAACAPcEBAAAA7AkOAAAAYE9wAAAAAHuCAwAAANgTHAAAAMCe4AAAAAD2BAcAAACwJzgAAACAPcEBAAAA7AkOAAAAYE9wAAAAAHuCAwAAANgTHAAAAMCe4AAAAAD2BAcAAACwJzgAAACAPcEBAAAA7AkOAAAAYE9wAAAAAHuCAwAAANgTHAAAAMCe4AAAAAD2BAcAAACwJzgAAACAPcEBAAAA7AkOAAAAYE9wAAAAAHuCAwAAANgTHAAAAMCe4AAAAAD2BAcAAACwJzgAAACAPcEBAAAA7AkOAAAAYE9wAAAAAHuCAwAAANgTHAAAAMCe4AAAAAD2BAcAAACwJzgAAACAPcEBAAAA7AkOAAAAYE9wAAAAAHuCAwAAANgTHAAAAMCe4AAAAAD2BAcAAACwJzgAAACAPcEBAAAA7AkOAAAAYE9wAAAAAHuCAwAAANgTHAAAAMCe4AAAAAD2BAcAAACwJzgAAACAPcEBAAAA7AkOAAAAYE9wAAAAAHuCAwAAANgTHAAAAMCe4AAAAAD2AgAA///t2AEJAAAAgKD/r9sR6AwFBwAAALAnOAAAAIA9wQEAAADsCQ4AAABgT3AAAAAAe4IDAAAA2BMcAAAAwJ7gAAAAAPYEBwAAALAnOAAAAIA9wQEAAADsCQ4AAABgT3AAAAAAe4IDAAAA2BMcAAAAwJ7gAAAAAPYEBwAAALAnOAAAAIA9wQEAAADsCQ4AAABgT3AAAAAAe4IDAAAA2BMcAAAAwJ7gAAAAAPYEBwAAALAnOAAAAIA9wQEAAADsCQ4AAABgT3AAAAAAe4IDAAAA2BMcAAAAwJ7gAAAAAPYEBwAAALAnOAAAAIA9wQEAAADsCQ4AAABgT3AAAAAAe4IDAAAA2BMcAAAAwJ7gAAAAAPYEBwAAALAnOAAAAIA9wQEAAADsCQ4AAABgT3AAAAAAe4IDAAAA2BMcAAAAwJ7gAAAAAPYEBwAAALAnOAAAAIA9wQEAAADsCQ4AAABgT3AAAAAAe4IDAAAA2BMcAAAAwJ7gAAAAAPYEBwAAALAnOAAAAIA9wQEAAADsCQ4AAABgT3AAAAAAe4IDAAAA2BMcAAAAwJ7gAAAAAPYC9HEUYn1wIpwAAAAASUVORK5CYII=;" vertex="1" parent="1">
          <mxGeometry x="-1630" y="-994" width="80" height="80" as="geometry" />
        </mxCell>
        <mxCell id="c060zSU2xn9-Ug7hkql3-7" value="" style="shape=image;verticalLabelPosition=bottom;labelBackgroundColor=default;verticalAlign=top;aspect=fixed;imageAspect=0;image=data:image/svg+xml,PHN2ZyB4bWxucz0iaHR0cDovL3d3dy53My5vcmcvMjAwMC9zdmciIHZpZXdCb3g9Ii00My4zMzYzNSAtMzUuNDY2IDM3NS41ODE3IDIxMi43OTYiIHdpZHRoPSIxMjAwIiBoZWlnaHQ9IjgwMCI+PHBhdGggZmlsbD0iI2UyMDA3YSIgZD0iTTI2MC4wODUgNjUuMjg4aDI4LjgyNHYyOC44MjRoLTI4LjgyNHptLTg2LjQ3IDBoMjguODJ2MjguODI0aC0yOC44MnptLTg2LjQ3NCAwaDI4LjgyNXYyOC44MjRIODcuMTR6bS0xOC4zNDggNDYuMjQ4YzAgOS4xNDUgMS4zMzQgMTUuMDggNC4wMTMgMTcuODE3IDIuMjY1IDIuMzMxIDYuMTI0IDMuNzY3IDExLjUzNCA0LjMwMiAxLjYwNC4xMzUgNC4zNTUuMTk3IDguMjM4LjE5N3Y4LjAxMkgyMy4xMjV2LTguMDEyYzUuNTggMCA5LjY4OS0uMjY1IDEyLjM0OC0uOCA1LjM4Mi0xLjEzMiA4Ljc3My00LjI2OCAxMC4xNjYtOS40MDkuNzI3LTIuNjY0IDEuMDk4LTYuNzAxIDEuMDk4LTEyLjEwN1Y2LjgxMmMtMTEuNzg0LjMzMy0yMSA0LjIzNS0yNy42NTQgMTEuNzEyQzEyLjc2MyAyNS42OCA4LjkwOCAzNi42MyA3LjUwNiA1MS4zODJMMCA1MC4wODYgMS4zOTcgMGgxMTIuOTFsMS40MDEgNTAuMDg2LTcuNTE1IDEuMjk2Yy0xLjM5Ny0xNC43NTItNS4yODUtMjUuNzAzLTExLjYzLTMyLjg1OC02LjY4Ny03LjQ3Ny0xNS45NDctMTEuMzgtMjcuNzctMTEuNzEydjEwNC43MjR6TS4xMzcgNjUuMjg4aDI4LjgyNXYyOC44MjRILjEzN3oiLz48L3N2Zz4=;" vertex="1" parent="1">
          <mxGeometry x="-2150" y="-1287.5" width="67.5" height="45" as="geometry" />
        </mxCell>
        <mxCell id="c060zSU2xn9-Ug7hkql3-8" value="" style="shape=image;verticalLabelPosition=bottom;labelBackgroundColor=default;verticalAlign=top;aspect=fixed;imageAspect=0;image=data:image/png,iVBORw0KGgoAAAANSUhEUgAAANMAAAAqCAYAAAApmm4IAAAAAXNSR0IArs4c6QAAAARnQU1BAACxjwv8YQUAAAAJcEhZcwAADsMAAA7DAcdvqGQAAAlBSURBVHhe7ZwHaFRZFIbPzCTGGntXrFgiCoZYVzTqKtgVewni2oNR0RiwgyW4sa0NFSuKXbAXFHtiXRUFu2jEgl1jIjomM7PvP76nY5xk7sS3w2bnfHDx5b57b165/zn3nPuixaVBgiD8Mlb9X0EQfhERkyCYhIhJEExCxCQIJiFiEgSTEDEJgkmImATBJERMgmASIiZBMAm1LyC0Jq6ML/oP3rBoErWRS5Opy+Ugradenz02Sx6yWLS+gpBLURKTK91OaVERRI50vSYbbEGUp9Mf9PdvDkpMTqAvGan6iayxWYMpLvI1BVlD9BpByH2oL/MgpAzF4tQ8kuaVnE47OVwKxan1EYRcjsRMgmASIiZBMAkRkyCYRMCI6cWLF9SgQQNq0qQJPX78WK/9matXr1KtWrW4Lfr8X0hPT6cVK1ZQ1apVqVy5crRs2TL9TM74/Pkz9evXj5o3b06vXr3SawObgPNMjx49ovHjx9OHDx/0mu+gbsaMGT+dO3PmDE/Cbdu26TW5j4MHD/K9FS9enPr06UO1a9fWz+SMa9euUVJSEt2/f5/Onj2r1wY2AbnMS0xMpJkzZ7K1NsAx6i5cuKDXfCcoKEg/yp1kZGTQ/v37qVSpUrRz505asGABtWrVirArsmvXLp89C8Zbv379t+cHIwNPFegEnJjCw8OpXbt2tGnTJlq1ahVPKBQco65z587cxh0sDR88eEC9e/fWa3IXdrud3r59S5UrV2bPBHDPEMS8efPI6XRynSrwRidOnKAaNWpQvXr16NSpU3Tu3Dn9bOAScGIKCQmhCRMmUJUqVWj+/PkcI2EJFB8fT82aNaPp06dzG3eOHj36U5zhcDho79691LRpUz6HAtHdunWLz6NttWrV6PLly7Ro0SKqUKEC1a9fnz0EgDijoqK4Hn1xbu3atT9YeEx4/I66detym+rVq9OkSZPo48ePegvv4yDui4yM5Ml+8eJFFgCuDfc8depUevjwIfdB3zFjxnAfbxw4cICXwgMHDqSRI0fydW7fvp09lgGusXv37jxu5lKpUiVeARhxbObfazy769ev//Bzds+yf//+PDbOjRgxgl6+fMnn/ImimCz8ZYNKsQQFa6PayGKxkdWah6yWYKXiTypWrEhLly6l4OBgGjBgAIurYMGCNHHiRAoNDdVbZQ0mz8qVK/mlvXnzhnr27MkeDbgvHcHy5ctZEB07dqT8+fNT+fLlWcDt27fnmAP1mAhFihShKVOm8AQ3xrhy5QrFxMRQiRIlaNq0aSwKeIG0tDQ+rzJOvnz5+FyxYsW4wLuWLl2ahYVrwTPo1q0b923cuDGPmx1YEu7Zs4fKlClDrVu3ZmMCkR85coRu3rypt/q6NMZ5jGsUI06DCBs2bMjHvuDpWSIG7tWrF50/f56FPXz4cDZ+o0aN8hgX/5toClBAEwc+EcKXDV7R2trCIqh8qIsaVYyhDKddP5E1VghPK/4Elg2eCQ8fQByoc7f6WQFLiMxYWFgYbdy4kcqWLcv17pYZfPr0iQoVKkSHDx/mSQvwgpEFK1q0KG3evJk9JICnW7JkCSUkJLCH7NKlC6WkpLAgWrZsSUOHDmXx4mer1crjQDAq48TGxn6z8rNmzaICBQpQjx496P3795w8gFAhMBXQHss8jAtPANHgGM8SsRO8KL6xhHePjo7WexFnUDHp4ZVwL75+h+npWcKowXBA4PCMjRo14nrcN7w1lqK4Nn+h5JmcFistqR9Nf4XHeC2LtXZJ5ZpSZWsIRQaF0u8KpZUtVLsQ/3/kCqs+duxYXjrhWJU7d+7Q69evebIYQgKYWO7JChz37dv328sHECIsOF6yIQBgs9nYQyBJgOULhBkREcETA8KFZUdfjIW2voxjFlg6QjAQAoRh3GuHDh3Yox86dMjjtgOuAUs1eBEIGysDX/H0LGFQ4L1hBOvUqaPXEhs5vJdLly7pNf5BSUwOF9GfN+00+4b38qdWTr7QXmCKFpAmzyN6GO+9JCdoZkbB65kMJgVeLkThi6VEnIGXCiubHWiTN29e/aevwIpiUuKFZwZt0QfJAiQNMEHXrFnDy6LTp0+zh9q3bx9bZF/GMYsbN27wkhK/H+I2YiBkBjGxnz9/zteXGcQ6W7ZsoTZt2rDwcoKnZ4n7h1EzYkHjeiCup0+fUmqq94+szURJTPisPDXdpVQ+ZLjIDl04v2gq1G4GX42rFMU/1fgvAKuH5RYsra8ULlyYrax7fGGAyYFxEdsYSRAsbZAc2bp1Kx8jFoA19nWcXwXeZfXq1TwuNmrdYyEUiATLT3gu91Q7RDZnzhy+ViQaMgvCE1iqqoCxEE8i8XPv3j169uzZDwVLT38ScNk8M4A3gNdAOh0JCANYbG8TAV9XIJ2MIB4ezgCTFEkRZKEQYGPynTx5kgNugAmMOAjt4HF8GScrcA7tIT6Q3fUb6XAkGxCTzZ0794eC5ECnTp1+2sTdvXs3Z+4Qm8JjuGOI4cmTJ99iVRxj70sFGBQkTTD+sWPH+PoB/oUnhxHyJyKmHFCzZk0aPXo0fwWA1C4SA7C62J86fvy43sozECE2h9+9e8fZuWHDhnE2sW3btrzPBStvxG/Y/0GGCrHCunXreNKiP2IOX8bJCsRkEB283bhx49i7YCnnCSMdPmjQICpZsqRe+x0IE9eK7OGGDRtYHMnJybRw4UJeQt++fZvi4uL4GlHwnHAPeH5I22O5jSQCEiS4LlUGDx7My228A9w77gOGB8/MPZ71ByKmHIDJAUuLxADSs/AeO3bs4D0ObIx6AxYaffDSsd+DyY9l1OLFi9maIj4ALVq04MAdCY/Jkydz9g1eAWIGquNkBZIXyCwixY6JjEmJ+8mMkQ6HV4K3ywp47K5du3KaGgLB88FeEjwFsnC4PqNgP86IWZEwwfjwqNgKUHmGBnjm8GS4j7t37/JyGCDLOmTIED72F0p/aWt3uKjw9hSyK2yUB2vyjK2Vl+KLLNIi9dl6POQFi7aub52iSVv+0lbIvYhnEgSTEDEJgkmImATBJERMgmASymJCYiFEpeCbWP6YwPY1saBSrNlnnQQhN6D2/+ZpLb441b9QgJiCLE6tIzYAFftZ8mjF/9/nCYJZKIlJEATvaAszQRDMQMQkCCYhYhIEkxAxCYJJiJgEwRSI/gFYNS8koVUkIQAAAABJRU5ErkJggg==;" vertex="1" parent="1">
          <mxGeometry x="-2278" y="-850" width="211" height="42" as="geometry" />
        </mxCell>
        <mxCell id="c060zSU2xn9-Ug7hkql3-9" value="" style="shape=image;verticalLabelPosition=bottom;labelBackgroundColor=default;verticalAlign=top;aspect=fixed;imageAspect=0;image=data:image/png,iVBORw0KGgoAAAANSUhEUgAAANMAAAAqCAYAAAApmm4IAAAAAXNSR0IArs4c6QAAAARnQU1BAACxjwv8YQUAAAAJcEhZcwAADsMAAA7DAcdvqGQAAAlBSURBVHhe7ZwHaFRZFIbPzCTGGntXrFgiCoZYVzTqKtgVewni2oNR0RiwgyW4sa0NFSuKXbAXFHtiXRUFu2jEgl1jIjomM7PvP76nY5xk7sS3w2bnfHDx5b57b165/zn3nPuixaVBgiD8Mlb9X0EQfhERkyCYhIhJEExCxCQIJiFiEgSTEDEJgkmImATBJERMgmASIiZBMAm1LyC0Jq6ML/oP3rBoErWRS5Opy+Ugradenz02Sx6yWLS+gpBLURKTK91OaVERRI50vSYbbEGUp9Mf9PdvDkpMTqAvGan6iayxWYMpLvI1BVlD9BpByH2oL/MgpAzF4tQ8kuaVnE47OVwKxan1EYRcjsRMgmASIiZBMAkRkyCYRMCI6cWLF9SgQQNq0qQJPX78WK/9matXr1KtWrW4Lfr8X0hPT6cVK1ZQ1apVqVy5crRs2TL9TM74/Pkz9evXj5o3b06vXr3SawObgPNMjx49ovHjx9OHDx/0mu+gbsaMGT+dO3PmDE/Cbdu26TW5j4MHD/K9FS9enPr06UO1a9fWz+SMa9euUVJSEt2/f5/Onj2r1wY2AbnMS0xMpJkzZ7K1NsAx6i5cuKDXfCcoKEg/yp1kZGTQ/v37qVSpUrRz505asGABtWrVirArsmvXLp89C8Zbv379t+cHIwNPFegEnJjCw8OpXbt2tGnTJlq1ahVPKBQco65z587cxh0sDR88eEC9e/fWa3IXdrud3r59S5UrV2bPBHDPEMS8efPI6XRynSrwRidOnKAaNWpQvXr16NSpU3Tu3Dn9bOAScGIKCQmhCRMmUJUqVWj+/PkcI2EJFB8fT82aNaPp06dzG3eOHj36U5zhcDho79691LRpUz6HAtHdunWLz6NttWrV6PLly7Ro0SKqUKEC1a9fnz0EgDijoqK4Hn1xbu3atT9YeEx4/I66detym+rVq9OkSZPo48ePegvv4yDui4yM5Ml+8eJFFgCuDfc8depUevjwIfdB3zFjxnAfbxw4cICXwgMHDqSRI0fydW7fvp09lgGusXv37jxu5lKpUiVeARhxbObfazy769ev//Bzds+yf//+PDbOjRgxgl6+fMnn/ImimCz8ZYNKsQQFa6PayGKxkdWah6yWYKXiTypWrEhLly6l4OBgGjBgAIurYMGCNHHiRAoNDdVbZQ0mz8qVK/mlvXnzhnr27MkeDbgvHcHy5ctZEB07dqT8+fNT+fLlWcDt27fnmAP1mAhFihShKVOm8AQ3xrhy5QrFxMRQiRIlaNq0aSwKeIG0tDQ+rzJOvnz5+FyxYsW4wLuWLl2ahYVrwTPo1q0b923cuDGPmx1YEu7Zs4fKlClDrVu3ZmMCkR85coRu3rypt/q6NMZ5jGsUI06DCBs2bMjHvuDpWSIG7tWrF50/f56FPXz4cDZ+o0aN8hgX/5toClBAEwc+EcKXDV7R2trCIqh8qIsaVYyhDKddP5E1VghPK/4Elg2eCQ8fQByoc7f6WQFLiMxYWFgYbdy4kcqWLcv17pYZfPr0iQoVKkSHDx/mSQvwgpEFK1q0KG3evJk9JICnW7JkCSUkJLCH7NKlC6WkpLAgWrZsSUOHDmXx4mer1crjQDAq48TGxn6z8rNmzaICBQpQjx496P3795w8gFAhMBXQHss8jAtPANHgGM8SsRO8KL6xhHePjo7WexFnUDHp4ZVwL75+h+npWcKowXBA4PCMjRo14nrcN7w1lqK4Nn+h5JmcFistqR9Nf4XHeC2LtXZJ5ZpSZWsIRQaF0u8KpZUtVLsQ/3/kCqs+duxYXjrhWJU7d+7Q69evebIYQgKYWO7JChz37dv328sHECIsOF6yIQBgs9nYQyBJgOULhBkREcETA8KFZUdfjIW2voxjFlg6QjAQAoRh3GuHDh3Yox86dMjjtgOuAUs1eBEIGysDX/H0LGFQ4L1hBOvUqaPXEhs5vJdLly7pNf5BSUwOF9GfN+00+4b38qdWTr7QXmCKFpAmzyN6GO+9JCdoZkbB65kMJgVeLkThi6VEnIGXCiubHWiTN29e/aevwIpiUuKFZwZt0QfJAiQNMEHXrFnDy6LTp0+zh9q3bx9bZF/GMYsbN27wkhK/H+I2YiBkBjGxnz9/zteXGcQ6W7ZsoTZt2rDwcoKnZ4n7h1EzYkHjeiCup0+fUmqq94+szURJTPisPDXdpVQ+ZLjIDl04v2gq1G4GX42rFMU/1fgvAKuH5RYsra8ULlyYrax7fGGAyYFxEdsYSRAsbZAc2bp1Kx8jFoA19nWcXwXeZfXq1TwuNmrdYyEUiATLT3gu91Q7RDZnzhy+ViQaMgvCE1iqqoCxEE8i8XPv3j169uzZDwVLT38ScNk8M4A3gNdAOh0JCANYbG8TAV9XIJ2MIB4ezgCTFEkRZKEQYGPynTx5kgNugAmMOAjt4HF8GScrcA7tIT6Q3fUb6XAkGxCTzZ0794eC5ECnTp1+2sTdvXs3Z+4Qm8JjuGOI4cmTJ99iVRxj70sFGBQkTTD+sWPH+PoB/oUnhxHyJyKmHFCzZk0aPXo0fwWA1C4SA7C62J86fvy43sozECE2h9+9e8fZuWHDhnE2sW3btrzPBStvxG/Y/0GGCrHCunXreNKiP2IOX8bJCsRkEB283bhx49i7YCnnCSMdPmjQICpZsqRe+x0IE9eK7OGGDRtYHMnJybRw4UJeQt++fZvi4uL4GlHwnHAPeH5I22O5jSQCEiS4LlUGDx7My228A9w77gOGB8/MPZ71ByKmHIDJAUuLxADSs/AeO3bs4D0ObIx6AxYaffDSsd+DyY9l1OLFi9maIj4ALVq04MAdCY/Jkydz9g1eAWIGquNkBZIXyCwixY6JjEmJ+8mMkQ6HV4K3ywp47K5du3KaGgLB88FeEjwFsnC4PqNgP86IWZEwwfjwqNgKUHmGBnjm8GS4j7t37/JyGCDLOmTIED72F0p/aWt3uKjw9hSyK2yUB2vyjK2Vl+KLLNIi9dl6POQFi7aub52iSVv+0lbIvYhnEgSTEDEJgkmImATBJERMgmASymJCYiFEpeCbWP6YwPY1saBSrNlnnQQhN6D2/+ZpLb441b9QgJiCLE6tIzYAFftZ8mjF/9/nCYJZKIlJEATvaAszQRDMQMQkCCYhYhIEkxAxCYJJiJgEwRSI/gFYNS8koVUkIQAAAABJRU5ErkJggg==;" vertex="1" parent="1">
          <mxGeometry x="-2180" y="-998" width="211" height="42" as="geometry" />
        </mxCell>
      </root>
    </mxGraphModel>
  </diagram>
</mxfile>
